G04 #@! TF.GenerationSoftware,KiCad,Pcbnew,5.1.6-c6e7f7d~86~ubuntu19.10.1*
G04 #@! TF.CreationDate,2020-06-13T17:36:59-04:00*
G04 #@! TF.ProjectId,Esp32Badge-v1,45737033-3242-4616-9467-652d76312e6b,2*
G04 #@! TF.SameCoordinates,Original*
G04 #@! TF.FileFunction,Copper,L2,Bot*
G04 #@! TF.FilePolarity,Positive*
%FSLAX46Y46*%
G04 Gerber Fmt 4.6, Leading zero omitted, Abs format (unit mm)*
G04 Created by KiCad (PCBNEW 5.1.6-c6e7f7d~86~ubuntu19.10.1) date 2020-06-13 17:36:59*
%MOMM*%
%LPD*%
G01*
G04 APERTURE LIST*
G04 #@! TA.AperFunction,ComponentPad*
%ADD10C,2.000000*%
G04 #@! TD*
G04 #@! TA.AperFunction,ComponentPad*
%ADD11R,2.000000X2.000000*%
G04 #@! TD*
G04 #@! TA.AperFunction,ComponentPad*
%ADD12C,2.340000*%
G04 #@! TD*
G04 #@! TA.AperFunction,ComponentPad*
%ADD13O,1.700000X1.700000*%
G04 #@! TD*
G04 #@! TA.AperFunction,ComponentPad*
%ADD14R,1.700000X1.700000*%
G04 #@! TD*
G04 #@! TA.AperFunction,ComponentPad*
%ADD15C,1.530000*%
G04 #@! TD*
G04 #@! TA.AperFunction,ComponentPad*
%ADD16R,1.530000X1.530000*%
G04 #@! TD*
G04 #@! TA.AperFunction,ComponentPad*
%ADD17C,1.524000*%
G04 #@! TD*
G04 #@! TA.AperFunction,ComponentPad*
%ADD18R,1.524000X1.524000*%
G04 #@! TD*
G04 #@! TA.AperFunction,ComponentPad*
%ADD19C,2.250000*%
G04 #@! TD*
G04 #@! TA.AperFunction,ComponentPad*
%ADD20O,1.600000X1.600000*%
G04 #@! TD*
G04 #@! TA.AperFunction,ComponentPad*
%ADD21C,1.600000*%
G04 #@! TD*
G04 #@! TA.AperFunction,ComponentPad*
%ADD22R,1.050000X1.500000*%
G04 #@! TD*
G04 #@! TA.AperFunction,ComponentPad*
%ADD23O,1.050000X1.500000*%
G04 #@! TD*
G04 #@! TA.AperFunction,ComponentPad*
%ADD24R,3.500000X3.500000*%
G04 #@! TD*
G04 #@! TA.AperFunction,ComponentPad*
%ADD25C,3.500000*%
G04 #@! TD*
G04 #@! TA.AperFunction,ComponentPad*
%ADD26C,1.724000*%
G04 #@! TD*
G04 #@! TA.AperFunction,ComponentPad*
%ADD27C,1.676400*%
G04 #@! TD*
G04 #@! TA.AperFunction,ComponentPad*
%ADD28R,1.676400X1.676400*%
G04 #@! TD*
G04 #@! TA.AperFunction,ViaPad*
%ADD29C,0.800000*%
G04 #@! TD*
G04 #@! TA.AperFunction,Conductor*
%ADD30C,0.250000*%
G04 #@! TD*
G04 #@! TA.AperFunction,Conductor*
%ADD31C,0.500000*%
G04 #@! TD*
G04 APERTURE END LIST*
D10*
X81280000Y-47498000D03*
D11*
X83820000Y-47498000D03*
D10*
X78740000Y-47498000D03*
D11*
X90424000Y-53848000D03*
D10*
X90424000Y-56388000D03*
X90424000Y-58928000D03*
X77978000Y-61976000D03*
X84582000Y-61976000D03*
D12*
X74930000Y-51054000D03*
X87884000Y-51054000D03*
X87884000Y-61468000D03*
X74930000Y-61468000D03*
D10*
X77978000Y-66802000D03*
X84582000Y-66802000D03*
X194310000Y-79248000D03*
D11*
X196850000Y-79248000D03*
D10*
X191770000Y-79248000D03*
D11*
X203454000Y-85598000D03*
D10*
X203454000Y-88138000D03*
X203454000Y-90678000D03*
X191008000Y-93726000D03*
X197612000Y-93726000D03*
D12*
X187960000Y-82804000D03*
X200914000Y-82804000D03*
X200914000Y-93218000D03*
X187960000Y-93218000D03*
D10*
X191008000Y-98552000D03*
X197612000Y-98552000D03*
D13*
X210922000Y-91389200D03*
X210922000Y-88849200D03*
X210922000Y-86309200D03*
X210922000Y-83769200D03*
X210922000Y-81229200D03*
D14*
X210922000Y-78689200D03*
D15*
X113040000Y-80010000D03*
X115580000Y-80010000D03*
X118120000Y-80010000D03*
X120660000Y-80010000D03*
X123200000Y-80010000D03*
X125740000Y-80010000D03*
X128280000Y-80010000D03*
X130820000Y-80010000D03*
X133360000Y-80010000D03*
X135900000Y-80010000D03*
X138440000Y-80010000D03*
X140980000Y-80010000D03*
X143520000Y-80010000D03*
X146060000Y-80010000D03*
X148600000Y-80010000D03*
X151140000Y-80010000D03*
X153680000Y-80010000D03*
X156220000Y-80010000D03*
X158760000Y-80010000D03*
X158760000Y-102870000D03*
X156220000Y-102870000D03*
X153680000Y-102870000D03*
X151140000Y-102870000D03*
X148600000Y-102870000D03*
X146060000Y-102870000D03*
X143520000Y-102870000D03*
X140980000Y-102870000D03*
X138440000Y-102870000D03*
X135900000Y-102870000D03*
X133360000Y-102870000D03*
X130820000Y-102870000D03*
X128280000Y-102870000D03*
X125740000Y-102870000D03*
X123200000Y-102870000D03*
X120660000Y-102870000D03*
X118120000Y-102870000D03*
X115580000Y-102870000D03*
D16*
X113040000Y-102870000D03*
D17*
X89204800Y-78663800D03*
X89204800Y-75615800D03*
X89204800Y-67995800D03*
X89204800Y-64947800D03*
X66852800Y-64947800D03*
D18*
X66852800Y-78663800D03*
D17*
X66294000Y-57937400D03*
X66294000Y-53873400D03*
X66294000Y-51841400D03*
X68834000Y-57937400D03*
X68834000Y-53873400D03*
X68834000Y-51841400D03*
X66294000Y-49809400D03*
X68834000Y-49809400D03*
D19*
X67564000Y-59969400D03*
X67564000Y-47777400D03*
D17*
X173228000Y-80264000D03*
X170688000Y-80264000D03*
D18*
X168148000Y-80264000D03*
D20*
X152640000Y-30480000D03*
D21*
X152640000Y-38100000D03*
D20*
X148590000Y-30480000D03*
D21*
X148590000Y-38100000D03*
D22*
X149352000Y-50800000D03*
D23*
X152908000Y-50800000D03*
X151130000Y-50800000D03*
D20*
X162560000Y-59690000D03*
D21*
X162560000Y-67310000D03*
D18*
X179070000Y-47244000D03*
D17*
X179070000Y-49784000D03*
X179070000Y-52324000D03*
X179070000Y-54864000D03*
X97282000Y-67564000D03*
X97282000Y-65024000D03*
X97282000Y-62484000D03*
X97282000Y-59944000D03*
X97282000Y-57404000D03*
X97282000Y-54864000D03*
X97282000Y-52324000D03*
X97282000Y-49784000D03*
X97282000Y-47244000D03*
X97282000Y-44704000D03*
X97282000Y-42164000D03*
X97282000Y-39624000D03*
X97282000Y-37084000D03*
D18*
X97282000Y-34544000D03*
D24*
X102870000Y-96520000D03*
D25*
X174870000Y-96520000D03*
D26*
X168656000Y-28194000D03*
X159004000Y-28194000D03*
D18*
X159766000Y-38354000D03*
D17*
X161798000Y-38354000D03*
X167894000Y-38354000D03*
X165862000Y-38354000D03*
X163830000Y-38354000D03*
D18*
X103632000Y-55372000D03*
X103632000Y-52832000D03*
X103632000Y-63500000D03*
X103632000Y-66040000D03*
X103632000Y-50038000D03*
X122682000Y-62992000D03*
X122682000Y-65532000D03*
X122682000Y-53086000D03*
X122682000Y-50546000D03*
D17*
X103632000Y-42164000D03*
X106172000Y-42164000D03*
X108712000Y-42164000D03*
X111252000Y-42164000D03*
X113792000Y-42164000D03*
X116332000Y-42164000D03*
X118872000Y-42164000D03*
X121412000Y-42164000D03*
X123952000Y-42164000D03*
X130048000Y-41656000D03*
X130048000Y-39116000D03*
X130048000Y-36576000D03*
X130048000Y-34036000D03*
X130048000Y-31496000D03*
D18*
X130048000Y-28956000D03*
D27*
X129540000Y-60960000D03*
X132080000Y-60960000D03*
X134620000Y-60960000D03*
X137160000Y-60960000D03*
X139700000Y-60960000D03*
X142240000Y-60960000D03*
X144780000Y-60960000D03*
X147320000Y-60960000D03*
X147320000Y-68580000D03*
X144780000Y-68580000D03*
X142240000Y-68580000D03*
X139700000Y-68580000D03*
X137160000Y-68580000D03*
X134620000Y-68580000D03*
X132080000Y-68580000D03*
D28*
X129540000Y-68580000D03*
D20*
X157480000Y-59690000D03*
D21*
X157480000Y-67310000D03*
D20*
X177800000Y-59690000D03*
D21*
X177800000Y-67310000D03*
D20*
X172720000Y-59690000D03*
D21*
X172720000Y-67310000D03*
D20*
X167640000Y-59690000D03*
D21*
X167640000Y-67310000D03*
D20*
X172720000Y-46990000D03*
D21*
X172720000Y-54610000D03*
D20*
X167640000Y-46990000D03*
D21*
X167640000Y-54610000D03*
D20*
X162560000Y-46990000D03*
D21*
X162560000Y-54610000D03*
D20*
X157480000Y-46990000D03*
D21*
X157480000Y-54610000D03*
D18*
X184404000Y-30018000D03*
D17*
X184404000Y-36114000D03*
D18*
X92456000Y-36322000D03*
D17*
X92456000Y-30226000D03*
D20*
X129540000Y-46990000D03*
D21*
X129540000Y-54610000D03*
D20*
X134620000Y-46990000D03*
D21*
X134620000Y-54610000D03*
D20*
X139700000Y-46990000D03*
D21*
X139700000Y-54610000D03*
D20*
X144780000Y-46990000D03*
D21*
X144780000Y-54610000D03*
D10*
X82700000Y-78740000D03*
X82700000Y-83240000D03*
X76200000Y-78740000D03*
X76200000Y-83240000D03*
X82700000Y-93980000D03*
X82700000Y-98480000D03*
X76200000Y-93980000D03*
X76200000Y-98480000D03*
X72540000Y-86360000D03*
X72540000Y-90860000D03*
X66040000Y-86360000D03*
X66040000Y-90860000D03*
X92860000Y-86360000D03*
X92860000Y-90860000D03*
X86360000Y-86360000D03*
X86360000Y-90860000D03*
X202080000Y-63500000D03*
X202080000Y-68000000D03*
X195580000Y-63500000D03*
X195580000Y-68000000D03*
X212240000Y-55880000D03*
X212240000Y-60380000D03*
X205740000Y-55880000D03*
X205740000Y-60380000D03*
X191920000Y-55880000D03*
X191920000Y-60380000D03*
X185420000Y-55880000D03*
X185420000Y-60380000D03*
X202080000Y-48260000D03*
X202080000Y-52760000D03*
X195580000Y-48260000D03*
X195580000Y-52760000D03*
D29*
X112247500Y-68066200D03*
X119984800Y-83768500D03*
X127916400Y-78083300D03*
X138009700Y-53375900D03*
X129032800Y-76148300D03*
X142167100Y-86365300D03*
X146575700Y-65131000D03*
X116165400Y-61509200D03*
X113697100Y-49018000D03*
X92944200Y-61187000D03*
X157046300Y-61198700D03*
X126358900Y-67561000D03*
D30*
X128280000Y-80010000D02*
X127191100Y-78921100D01*
X127191100Y-78921100D02*
X127191100Y-70349100D01*
X127191100Y-70349100D02*
X127802000Y-69738200D01*
X127802000Y-69738200D02*
X127802000Y-65238000D01*
X127802000Y-65238000D02*
X132080000Y-60960000D01*
X143649200Y-46432600D02*
X150640500Y-39441300D01*
X150640500Y-39441300D02*
X157591400Y-39441300D01*
X157591400Y-39441300D02*
X158678700Y-38354000D01*
X130048000Y-31496000D02*
X132541900Y-33989900D01*
X132541900Y-33989900D02*
X132541900Y-36311900D01*
X132541900Y-36311900D02*
X142662600Y-46432600D01*
X142662600Y-46432600D02*
X143649200Y-46432600D01*
X144780000Y-60960000D02*
X143649200Y-59829200D01*
X143649200Y-59829200D02*
X143649200Y-46432600D01*
X159766000Y-38354000D02*
X158678700Y-38354000D01*
X146060000Y-102870000D02*
X147320000Y-101610000D01*
X147320000Y-101610000D02*
X147320000Y-68580000D01*
X202080000Y-63500000D02*
X210922000Y-72342000D01*
X210922000Y-72342000D02*
X210922000Y-77513900D01*
X205740000Y-55880000D02*
X202080000Y-59540000D01*
X202080000Y-59540000D02*
X202080000Y-63500000D01*
X210922000Y-78689200D02*
X210922000Y-77513900D01*
D31*
X88011000Y-66802000D02*
X89204800Y-67995800D01*
X84582000Y-66802000D02*
X88011000Y-66802000D01*
X89204800Y-64947800D02*
X88011000Y-66141600D01*
X88011000Y-66141600D02*
X88011000Y-66802000D01*
D30*
X97282000Y-37084000D02*
X93993700Y-40372300D01*
X93993700Y-40372300D02*
X93993700Y-47571000D01*
X93993700Y-47571000D02*
X89098600Y-52466100D01*
X89098600Y-52466100D02*
X89098600Y-59972600D01*
X89098600Y-59972600D02*
X89382200Y-60256200D01*
X89382200Y-60256200D02*
X89382200Y-64770400D01*
X89382200Y-64770400D02*
X89204800Y-64947800D01*
X77978000Y-77851000D02*
X81811000Y-77851000D01*
X81811000Y-77851000D02*
X82700000Y-78740000D01*
X76200000Y-78740000D02*
X77089000Y-77851000D01*
X77089000Y-77851000D02*
X77978000Y-77851000D01*
X77978000Y-77851000D02*
X77978000Y-66802000D01*
D31*
X77978000Y-66802000D02*
X68707000Y-66802000D01*
X68707000Y-66802000D02*
X66852800Y-64947800D01*
D30*
X76200000Y-93980000D02*
X76200000Y-90020000D01*
X76200000Y-90020000D02*
X72540000Y-86360000D01*
X210922000Y-78689200D02*
X210922000Y-79864500D01*
X210922000Y-79864500D02*
X211289300Y-79864500D01*
X211289300Y-79864500D02*
X212107400Y-80682600D01*
X212107400Y-80682600D02*
X212107400Y-81783500D01*
X212107400Y-81783500D02*
X211391700Y-82499200D01*
X211391700Y-82499200D02*
X210515500Y-82499200D01*
X210515500Y-82499200D02*
X205693900Y-87320800D01*
X205693900Y-87320800D02*
X205693900Y-90617700D01*
X205693900Y-90617700D02*
X197759600Y-98552000D01*
X197759600Y-98552000D02*
X197612000Y-98552000D01*
X72540000Y-86360000D02*
X72540000Y-82400000D01*
X72540000Y-82400000D02*
X76200000Y-78740000D01*
X86360000Y-86360000D02*
X82700000Y-90020000D01*
X82700000Y-90020000D02*
X82700000Y-93980000D01*
X205740000Y-55880000D02*
X205740000Y-51920000D01*
X205740000Y-51920000D02*
X202080000Y-48260000D01*
X195580000Y-48260000D02*
X191920000Y-51920000D01*
X191920000Y-51920000D02*
X191920000Y-55880000D01*
X66294000Y-53873400D02*
X66320000Y-53873400D01*
D31*
X66294000Y-53873400D02*
X67729100Y-55308500D01*
X67729100Y-55308500D02*
X68668900Y-55308500D01*
X68668900Y-55308500D02*
X72110600Y-58750200D01*
X72110600Y-58750200D02*
X72110600Y-62090300D01*
X72110600Y-62090300D02*
X73710800Y-63690500D01*
X73710800Y-63690500D02*
X78486000Y-63690500D01*
X78486000Y-63690500D02*
X88087200Y-73291700D01*
X88087200Y-73291700D02*
X89585800Y-73291700D01*
X102831900Y-86537800D02*
X102831900Y-88125300D01*
X89585800Y-73291700D02*
X102831900Y-86537800D01*
X102870000Y-87720600D02*
X102831900Y-88125300D01*
X102831900Y-88125300D02*
X102870000Y-96520000D01*
D30*
X180161000Y-66139500D02*
X183741500Y-66139500D01*
X183741500Y-66139500D02*
X196850000Y-79248000D01*
X177800000Y-67310000D02*
X178970500Y-66139500D01*
X178970500Y-66139500D02*
X180161000Y-66139500D01*
X173845300Y-46990000D02*
X174678600Y-46156700D01*
X174678600Y-46156700D02*
X179984900Y-46156700D01*
X179984900Y-46156700D02*
X180161000Y-46332800D01*
X180161000Y-46332800D02*
X180161000Y-66139500D01*
X172720000Y-46990000D02*
X173845300Y-46990000D01*
X134620000Y-48115300D02*
X133044400Y-49690900D01*
X133044400Y-49690900D02*
X133044400Y-56818700D01*
X133044400Y-56818700D02*
X129540000Y-60323100D01*
X129540000Y-60323100D02*
X129540000Y-60960000D01*
X130048000Y-30043300D02*
X129951400Y-30043300D01*
X129951400Y-30043300D02*
X128041100Y-31953600D01*
X128041100Y-31953600D02*
X128041100Y-44365800D01*
X128041100Y-44365800D02*
X129540000Y-45864700D01*
X134620000Y-46990000D02*
X134620000Y-48115300D01*
X196850000Y-79248000D02*
X196850000Y-80878500D01*
X196850000Y-80878500D02*
X201569500Y-85598000D01*
X201569500Y-85598000D02*
X203454000Y-85598000D01*
X168148000Y-67818000D02*
X168148000Y-80264000D01*
X167640000Y-67310000D02*
X168148000Y-67818000D01*
X172720000Y-67310000D02*
X168656000Y-67310000D01*
X168656000Y-67310000D02*
X168148000Y-67818000D01*
X203454000Y-85598000D02*
X204779300Y-85598000D01*
X204779300Y-85598000D02*
X209148100Y-81229200D01*
X209148100Y-81229200D02*
X210922000Y-81229200D01*
X152896000Y-50448700D02*
X156354700Y-46990000D01*
X144780000Y-46990000D02*
X149437300Y-46990000D01*
X149437300Y-46990000D02*
X152896000Y-50448700D01*
X152896000Y-50448700D02*
X152896000Y-50788000D01*
X152896000Y-50788000D02*
X152908000Y-50800000D01*
X157480000Y-46990000D02*
X156354700Y-46990000D01*
X129540000Y-46990000D02*
X129540000Y-45864700D01*
X130048000Y-28956000D02*
X130048000Y-30043300D01*
X112247500Y-68066200D02*
X125703700Y-54610000D01*
X125703700Y-54610000D02*
X129540000Y-54610000D01*
X119984800Y-83768500D02*
X122075100Y-81678200D01*
X122075100Y-81678200D02*
X122075100Y-74789700D01*
X122075100Y-74789700D02*
X127126600Y-69738200D01*
X127126600Y-69738200D02*
X127126600Y-65276500D01*
X127126600Y-65276500D02*
X130916400Y-61486700D01*
X130916400Y-61486700D02*
X130916400Y-59796400D01*
X130916400Y-59796400D02*
X134620000Y-56092800D01*
X134620000Y-56092800D02*
X134620000Y-54610000D01*
X127916400Y-78083300D02*
X128143100Y-78083300D01*
X128143100Y-78083300D02*
X130703600Y-75522800D01*
X130703600Y-75522800D02*
X130703600Y-67416400D01*
X130703600Y-67416400D02*
X137160000Y-60960000D01*
X137160000Y-60960000D02*
X137160000Y-57150000D01*
X137160000Y-57150000D02*
X139700000Y-54610000D01*
X134620000Y-60960000D02*
X128346200Y-67233800D01*
X128346200Y-67233800D02*
X128346200Y-75461700D01*
X128346200Y-75461700D02*
X129032800Y-76148300D01*
X134620000Y-60960000D02*
X134620000Y-56765600D01*
X134620000Y-56765600D02*
X138009700Y-53375900D01*
X138440000Y-80010000D02*
X142167100Y-83737100D01*
X142167100Y-83737100D02*
X142167100Y-86365300D01*
X97939200Y-62369200D02*
X115580000Y-80010000D01*
X97282000Y-47244000D02*
X98835500Y-48797500D01*
X98835500Y-48797500D02*
X98835500Y-61472900D01*
X98835500Y-61472900D02*
X97939200Y-62369200D01*
X97939200Y-62369200D02*
X97396800Y-62369200D01*
X97396800Y-62369200D02*
X97282000Y-62484000D01*
X97282000Y-54864000D02*
X96192500Y-55953500D01*
X96192500Y-55953500D02*
X96192500Y-63934500D01*
X96192500Y-63934500D02*
X97282000Y-65024000D01*
X97282000Y-49784000D02*
X98371300Y-50873300D01*
X98371300Y-50873300D02*
X98371300Y-56314700D01*
X98371300Y-56314700D02*
X97282000Y-57404000D01*
X122682000Y-53086000D02*
X121594700Y-53086000D01*
X92456000Y-36322000D02*
X93543300Y-36322000D01*
X93543300Y-36322000D02*
X93877000Y-35988300D01*
X93877000Y-35988300D02*
X101550800Y-35988300D01*
X101550800Y-35988300D02*
X107442000Y-41879500D01*
X107442000Y-41879500D02*
X107442000Y-42504000D01*
X107442000Y-42504000D02*
X113218300Y-48280300D01*
X113218300Y-48280300D02*
X116789000Y-48280300D01*
X116789000Y-48280300D02*
X121594700Y-53086000D01*
X122682000Y-50546000D02*
X121594700Y-50546000D01*
X92456000Y-30226000D02*
X98365500Y-30226000D01*
X98365500Y-30226000D02*
X109982000Y-41842500D01*
X109982000Y-41842500D02*
X109982000Y-42458900D01*
X109982000Y-42458900D02*
X111704600Y-44181500D01*
X111704600Y-44181500D02*
X115230200Y-44181500D01*
X115230200Y-44181500D02*
X121594700Y-50546000D01*
X183316700Y-30018000D02*
X181961600Y-31373100D01*
X181961600Y-31373100D02*
X160503900Y-31373100D01*
X160503900Y-31373100D02*
X156992600Y-27861800D01*
X156992600Y-27861800D02*
X129124600Y-27861800D01*
X129124600Y-27861800D02*
X127564000Y-29422400D01*
X127564000Y-29422400D02*
X127564000Y-50834200D01*
X127564000Y-50834200D02*
X130668600Y-53938800D01*
X130668600Y-53938800D02*
X130668600Y-56092700D01*
X130668600Y-56092700D02*
X123769300Y-62992000D01*
X122682000Y-62992000D02*
X123769300Y-62992000D01*
X184404000Y-30018000D02*
X183316700Y-30018000D01*
X146575700Y-65131000D02*
X154789600Y-65131000D01*
X154789600Y-65131000D02*
X165623400Y-54297200D01*
X165623400Y-54297200D02*
X165623400Y-52475800D01*
X165623400Y-52475800D02*
X181985200Y-36114000D01*
X181985200Y-36114000D02*
X184404000Y-36114000D01*
X157480000Y-59690000D02*
X157480000Y-58564700D01*
X151130000Y-50800000D02*
X151980300Y-50800000D01*
X151980300Y-50800000D02*
X151980300Y-53065000D01*
X151980300Y-53065000D02*
X157480000Y-58564700D01*
X162560000Y-54610000D02*
X162560000Y-56723700D01*
X162560000Y-56723700D02*
X157329000Y-61954700D01*
X157329000Y-61954700D02*
X151843800Y-61954700D01*
X151843800Y-61954700D02*
X149684600Y-59795500D01*
X149684600Y-59795500D02*
X146816100Y-59795500D01*
X146816100Y-59795500D02*
X146050000Y-60561600D01*
X146050000Y-60561600D02*
X146050000Y-61351400D01*
X146050000Y-61351400D02*
X145277800Y-62123600D01*
X145277800Y-62123600D02*
X143616400Y-62123600D01*
X143616400Y-62123600D02*
X137160000Y-68580000D01*
X139700000Y-68580000D02*
X142423700Y-65856300D01*
X142423700Y-65856300D02*
X154736500Y-65856300D01*
X154736500Y-65856300D02*
X165982800Y-54610000D01*
X165982800Y-54610000D02*
X167640000Y-54610000D01*
X172720000Y-54610000D02*
X169868500Y-54610000D01*
X169868500Y-54610000D02*
X162848100Y-61630400D01*
X162848100Y-61630400D02*
X160719400Y-61630400D01*
X160719400Y-61630400D02*
X155716900Y-66632900D01*
X155716900Y-66632900D02*
X144187100Y-66632900D01*
X144187100Y-66632900D02*
X142240000Y-68580000D01*
X167640000Y-59690000D02*
X167640000Y-60815300D01*
X167640000Y-60815300D02*
X166514700Y-61940600D01*
X166514700Y-61940600D02*
X166514700Y-84955300D01*
X166514700Y-84955300D02*
X148600000Y-102870000D01*
X97282000Y-39624000D02*
X102008000Y-44350000D01*
X102008000Y-44350000D02*
X102008000Y-55791700D01*
X102008000Y-55791700D02*
X107725500Y-61509200D01*
X107725500Y-61509200D02*
X116165400Y-61509200D01*
X179070000Y-47244000D02*
X179070000Y-48331300D01*
X179070000Y-48331300D02*
X178934100Y-48331300D01*
X178934100Y-48331300D02*
X177800000Y-49465400D01*
X177800000Y-49465400D02*
X177800000Y-58514400D01*
X177800000Y-58514400D02*
X177800000Y-59690000D01*
X177800000Y-58514400D02*
X167180800Y-58514400D01*
X167180800Y-58514400D02*
X158676300Y-67018900D01*
X158676300Y-67018900D02*
X158676300Y-72473700D01*
X158676300Y-72473700D02*
X151140000Y-80010000D01*
X157480000Y-67310000D02*
X146921700Y-67310000D01*
X146921700Y-67310000D02*
X146156400Y-68075300D01*
X146156400Y-68075300D02*
X146156400Y-73394900D01*
X146156400Y-73394900D02*
X144960800Y-74590500D01*
X144960800Y-74590500D02*
X144960800Y-99887200D01*
X144960800Y-99887200D02*
X142230700Y-102617300D01*
X142230700Y-102617300D02*
X142230700Y-103205000D01*
X142230700Y-103205000D02*
X140972200Y-104463500D01*
X140972200Y-104463500D02*
X129873500Y-104463500D01*
X129873500Y-104463500D02*
X128280000Y-102870000D01*
X103632000Y-55372000D02*
X107343100Y-55372000D01*
X107343100Y-55372000D02*
X113697100Y-49018000D01*
D31*
X68834000Y-49809400D02*
X66802000Y-51841400D01*
D30*
X66802000Y-51841400D02*
X66294000Y-51841400D01*
D31*
X116850000Y-91239500D02*
X126840300Y-101229800D01*
X156716100Y-104913900D02*
X158760000Y-102870000D01*
X116903500Y-75509500D02*
X116903500Y-77698600D01*
X104894000Y-63500000D02*
X116903500Y-75509500D01*
X103632000Y-63500000D02*
X104894000Y-63500000D01*
X116850000Y-77261700D02*
X116903500Y-77698600D01*
X116903500Y-77698600D02*
X116850000Y-91239500D01*
X126840300Y-101229800D02*
X126840300Y-101376800D01*
X126840300Y-101376800D02*
X126987300Y-101523800D01*
D30*
X126987300Y-103190502D02*
X127012700Y-103215902D01*
D31*
X126987300Y-101523800D02*
X126987300Y-103190502D01*
X127012700Y-103215902D02*
X127012700Y-103797100D01*
X127012700Y-103797100D02*
X128447800Y-105232200D01*
X156397800Y-105232200D02*
X158760000Y-102870000D01*
X128447800Y-105232200D02*
X156397800Y-105232200D01*
D30*
X97282000Y-44704000D02*
X99719800Y-47141800D01*
X99719800Y-47141800D02*
X99719800Y-57201200D01*
X99719800Y-57201200D02*
X119259500Y-76740900D01*
X119259500Y-76740900D02*
X119259500Y-92264400D01*
X119259500Y-92264400D02*
X129550200Y-102555100D01*
X129550200Y-102555100D02*
X129550200Y-103162100D01*
X129550200Y-103162100D02*
X130353200Y-103965100D01*
X130353200Y-103965100D02*
X137344900Y-103965100D01*
X137344900Y-103965100D02*
X138440000Y-102870000D01*
X130048000Y-39116000D02*
X141322700Y-50390700D01*
X141322700Y-50390700D02*
X141322700Y-58097600D01*
X141322700Y-58097600D02*
X140970000Y-58450300D01*
X140970000Y-58450300D02*
X140970000Y-61401800D01*
X140970000Y-61401800D02*
X135968100Y-66403700D01*
X135968100Y-66403700D02*
X135968100Y-73561800D01*
X135968100Y-73561800D02*
X137019800Y-74613500D01*
X137019800Y-74613500D02*
X137019800Y-101750200D01*
X137019800Y-101750200D02*
X135900000Y-102870000D01*
X130048000Y-34036000D02*
X131181100Y-35169100D01*
X131181100Y-35169100D02*
X131181100Y-36991700D01*
X131181100Y-36991700D02*
X130326800Y-37846000D01*
X130326800Y-37846000D02*
X129756900Y-37846000D01*
X129756900Y-37846000D02*
X128941800Y-38661100D01*
X128941800Y-38661100D02*
X128941800Y-39566400D01*
X128941800Y-39566400D02*
X129602000Y-40226600D01*
X129602000Y-40226600D02*
X130210300Y-40226600D01*
X130210300Y-40226600D02*
X140872300Y-50888600D01*
X140872300Y-50888600D02*
X140872300Y-57834300D01*
X140872300Y-57834300D02*
X138430000Y-60276600D01*
X138430000Y-60276600D02*
X138430000Y-61376300D01*
X138430000Y-61376300D02*
X133428100Y-66378200D01*
X133428100Y-66378200D02*
X133428100Y-73561800D01*
X133428100Y-73561800D02*
X134464200Y-74597900D01*
X134464200Y-74597900D02*
X134464200Y-101765800D01*
X134464200Y-101765800D02*
X133360000Y-102870000D01*
X132080000Y-68580000D02*
X132080000Y-101610000D01*
X132080000Y-101610000D02*
X130820000Y-102870000D01*
X143520000Y-102870000D02*
X144631900Y-103981900D01*
X144631900Y-103981900D02*
X149077800Y-103981900D01*
X149077800Y-103981900D02*
X149690900Y-103368800D01*
X149690900Y-103368800D02*
X149690900Y-102777100D01*
X149690900Y-102777100D02*
X171116600Y-81351400D01*
X171116600Y-81351400D02*
X172140600Y-81351400D01*
X172140600Y-81351400D02*
X173228000Y-80264000D01*
X140980000Y-102870000D02*
X142900700Y-100949300D01*
X142900700Y-100949300D02*
X142900700Y-83029500D01*
X142900700Y-83029500D02*
X142250000Y-82378800D01*
X142250000Y-82378800D02*
X142250000Y-79549800D01*
X142250000Y-79549800D02*
X138508100Y-75807900D01*
X138508100Y-75807900D02*
X138508100Y-68119200D01*
X138508100Y-68119200D02*
X142145100Y-64482200D01*
X142145100Y-64482200D02*
X143797900Y-64482200D01*
X143797900Y-64482200D02*
X143797900Y-64482100D01*
X143797900Y-64482100D02*
X147320000Y-60960000D01*
X103632000Y-52832000D02*
X103632000Y-51744700D01*
X106172000Y-42164000D02*
X106172000Y-49510500D01*
X106172000Y-49510500D02*
X103937800Y-51744700D01*
X103937800Y-51744700D02*
X103632000Y-51744700D01*
X118120000Y-102870000D02*
X118120000Y-100398800D01*
X118120000Y-100398800D02*
X88766200Y-71045000D01*
X88766200Y-71045000D02*
X86876400Y-71045000D01*
X86876400Y-71045000D02*
X81280000Y-65448600D01*
X81280000Y-65448600D02*
X81280000Y-47498000D01*
X90424000Y-56388000D02*
X92218900Y-58182900D01*
X92221614Y-67424300D02*
X92214700Y-67424300D01*
X92218900Y-58182900D02*
X92214700Y-67424300D01*
X92214700Y-67424300D02*
X92218900Y-67873700D01*
X120660000Y-102870000D02*
X120660000Y-99108100D01*
X120660000Y-99108100D02*
X92189300Y-70637400D01*
X92189300Y-67449700D02*
X92214700Y-67424300D01*
X92189300Y-70637400D02*
X92189300Y-67449700D01*
X113040000Y-80010000D02*
X113040000Y-79522600D01*
X113040000Y-79522600D02*
X99811400Y-66294000D01*
X99811400Y-66294000D02*
X96968800Y-66294000D01*
X96968800Y-66294000D02*
X92944200Y-62269400D01*
X92944200Y-62269400D02*
X92944200Y-61187000D01*
X203454000Y-90678000D02*
X192024000Y-79248000D01*
X192024000Y-79248000D02*
X191770000Y-79248000D01*
X149352000Y-50800000D02*
X149352000Y-53504400D01*
X149352000Y-53504400D02*
X157046300Y-61198700D01*
X167894000Y-38354000D02*
X166806600Y-37266600D01*
X166806600Y-37266600D02*
X153473400Y-37266600D01*
X153473400Y-37266600D02*
X152640000Y-38100000D01*
X130048000Y-36576000D02*
X128491400Y-38132600D01*
X128491400Y-38132600D02*
X128491400Y-42376100D01*
X128491400Y-42376100D02*
X131161200Y-45045900D01*
X131161200Y-45045900D02*
X131161200Y-57085800D01*
X131161200Y-57085800D02*
X126358900Y-61888100D01*
X126358900Y-61888100D02*
X126358900Y-67561000D01*
X66294000Y-57937400D02*
X66092700Y-58138700D01*
D31*
X65532001Y-61074301D02*
X69742500Y-65284800D01*
X78873800Y-65284800D02*
X89204800Y-75615800D01*
X66294000Y-57937400D02*
X65532001Y-58699399D01*
X69742500Y-65284800D02*
X78873800Y-65284800D01*
X65532001Y-58699399D02*
X65532001Y-61074301D01*
M02*
