G04 #@! TF.GenerationSoftware,KiCad,Pcbnew,5.1.6-c6e7f7d~86~ubuntu19.10.1*
G04 #@! TF.CreationDate,2020-06-13T17:36:59-04:00*
G04 #@! TF.ProjectId,Esp32Badge-v1,45737033-3242-4616-9467-652d76312e6b,2*
G04 #@! TF.SameCoordinates,Original*
G04 #@! TF.FileFunction,Copper,L1,Top*
G04 #@! TF.FilePolarity,Positive*
%FSLAX46Y46*%
G04 Gerber Fmt 4.6, Leading zero omitted, Abs format (unit mm)*
G04 Created by KiCad (PCBNEW 5.1.6-c6e7f7d~86~ubuntu19.10.1) date 2020-06-13 17:36:59*
%MOMM*%
%LPD*%
G01*
G04 APERTURE LIST*
G04 #@! TA.AperFunction,ComponentPad*
%ADD10C,2.000000*%
G04 #@! TD*
G04 #@! TA.AperFunction,ComponentPad*
%ADD11R,2.000000X2.000000*%
G04 #@! TD*
G04 #@! TA.AperFunction,ComponentPad*
%ADD12C,2.340000*%
G04 #@! TD*
G04 #@! TA.AperFunction,ComponentPad*
%ADD13O,1.700000X1.700000*%
G04 #@! TD*
G04 #@! TA.AperFunction,ComponentPad*
%ADD14R,1.700000X1.700000*%
G04 #@! TD*
G04 #@! TA.AperFunction,ComponentPad*
%ADD15C,1.530000*%
G04 #@! TD*
G04 #@! TA.AperFunction,ComponentPad*
%ADD16R,1.530000X1.530000*%
G04 #@! TD*
G04 #@! TA.AperFunction,ComponentPad*
%ADD17C,1.524000*%
G04 #@! TD*
G04 #@! TA.AperFunction,ComponentPad*
%ADD18R,1.524000X1.524000*%
G04 #@! TD*
G04 #@! TA.AperFunction,ComponentPad*
%ADD19C,2.250000*%
G04 #@! TD*
G04 #@! TA.AperFunction,ComponentPad*
%ADD20O,1.600000X1.600000*%
G04 #@! TD*
G04 #@! TA.AperFunction,ComponentPad*
%ADD21C,1.600000*%
G04 #@! TD*
G04 #@! TA.AperFunction,ComponentPad*
%ADD22R,1.050000X1.500000*%
G04 #@! TD*
G04 #@! TA.AperFunction,ComponentPad*
%ADD23O,1.050000X1.500000*%
G04 #@! TD*
G04 #@! TA.AperFunction,ComponentPad*
%ADD24R,3.500000X3.500000*%
G04 #@! TD*
G04 #@! TA.AperFunction,ComponentPad*
%ADD25C,3.500000*%
G04 #@! TD*
G04 #@! TA.AperFunction,ComponentPad*
%ADD26C,1.724000*%
G04 #@! TD*
G04 #@! TA.AperFunction,ComponentPad*
%ADD27C,1.676400*%
G04 #@! TD*
G04 #@! TA.AperFunction,ComponentPad*
%ADD28R,1.676400X1.676400*%
G04 #@! TD*
G04 #@! TA.AperFunction,ViaPad*
%ADD29C,0.800000*%
G04 #@! TD*
G04 #@! TA.AperFunction,Conductor*
%ADD30C,0.250000*%
G04 #@! TD*
G04 #@! TA.AperFunction,Conductor*
%ADD31C,0.500000*%
G04 #@! TD*
G04 APERTURE END LIST*
D10*
X81280000Y-47498000D03*
D11*
X83820000Y-47498000D03*
D10*
X78740000Y-47498000D03*
D11*
X90424000Y-53848000D03*
D10*
X90424000Y-56388000D03*
X90424000Y-58928000D03*
X77978000Y-61976000D03*
X84582000Y-61976000D03*
D12*
X74930000Y-51054000D03*
X87884000Y-51054000D03*
X87884000Y-61468000D03*
X74930000Y-61468000D03*
D10*
X77978000Y-66802000D03*
X84582000Y-66802000D03*
X194310000Y-79248000D03*
D11*
X196850000Y-79248000D03*
D10*
X191770000Y-79248000D03*
D11*
X203454000Y-85598000D03*
D10*
X203454000Y-88138000D03*
X203454000Y-90678000D03*
X191008000Y-93726000D03*
X197612000Y-93726000D03*
D12*
X187960000Y-82804000D03*
X200914000Y-82804000D03*
X200914000Y-93218000D03*
X187960000Y-93218000D03*
D10*
X191008000Y-98552000D03*
X197612000Y-98552000D03*
D13*
X210922000Y-91389200D03*
X210922000Y-88849200D03*
X210922000Y-86309200D03*
X210922000Y-83769200D03*
X210922000Y-81229200D03*
D14*
X210922000Y-78689200D03*
D15*
X113040000Y-80010000D03*
X115580000Y-80010000D03*
X118120000Y-80010000D03*
X120660000Y-80010000D03*
X123200000Y-80010000D03*
X125740000Y-80010000D03*
X128280000Y-80010000D03*
X130820000Y-80010000D03*
X133360000Y-80010000D03*
X135900000Y-80010000D03*
X138440000Y-80010000D03*
X140980000Y-80010000D03*
X143520000Y-80010000D03*
X146060000Y-80010000D03*
X148600000Y-80010000D03*
X151140000Y-80010000D03*
X153680000Y-80010000D03*
X156220000Y-80010000D03*
X158760000Y-80010000D03*
X158760000Y-102870000D03*
X156220000Y-102870000D03*
X153680000Y-102870000D03*
X151140000Y-102870000D03*
X148600000Y-102870000D03*
X146060000Y-102870000D03*
X143520000Y-102870000D03*
X140980000Y-102870000D03*
X138440000Y-102870000D03*
X135900000Y-102870000D03*
X133360000Y-102870000D03*
X130820000Y-102870000D03*
X128280000Y-102870000D03*
X125740000Y-102870000D03*
X123200000Y-102870000D03*
X120660000Y-102870000D03*
X118120000Y-102870000D03*
X115580000Y-102870000D03*
D16*
X113040000Y-102870000D03*
D17*
X89204800Y-78663800D03*
X89204800Y-75615800D03*
X89204800Y-67995800D03*
X89204800Y-64947800D03*
X66852800Y-64947800D03*
D18*
X66852800Y-78663800D03*
D17*
X66294000Y-57937400D03*
X66294000Y-53873400D03*
X66294000Y-51841400D03*
X68834000Y-57937400D03*
X68834000Y-53873400D03*
X68834000Y-51841400D03*
X66294000Y-49809400D03*
X68834000Y-49809400D03*
D19*
X67564000Y-59969400D03*
X67564000Y-47777400D03*
D17*
X173228000Y-80264000D03*
X170688000Y-80264000D03*
D18*
X168148000Y-80264000D03*
D20*
X152640000Y-30480000D03*
D21*
X152640000Y-38100000D03*
D20*
X148590000Y-30480000D03*
D21*
X148590000Y-38100000D03*
D22*
X149352000Y-50800000D03*
D23*
X152908000Y-50800000D03*
X151130000Y-50800000D03*
D20*
X162560000Y-59690000D03*
D21*
X162560000Y-67310000D03*
D18*
X179070000Y-47244000D03*
D17*
X179070000Y-49784000D03*
X179070000Y-52324000D03*
X179070000Y-54864000D03*
X97282000Y-67564000D03*
X97282000Y-65024000D03*
X97282000Y-62484000D03*
X97282000Y-59944000D03*
X97282000Y-57404000D03*
X97282000Y-54864000D03*
X97282000Y-52324000D03*
X97282000Y-49784000D03*
X97282000Y-47244000D03*
X97282000Y-44704000D03*
X97282000Y-42164000D03*
X97282000Y-39624000D03*
X97282000Y-37084000D03*
D18*
X97282000Y-34544000D03*
D24*
X102870000Y-96520000D03*
D25*
X174870000Y-96520000D03*
D26*
X168656000Y-28194000D03*
X159004000Y-28194000D03*
D18*
X159766000Y-38354000D03*
D17*
X161798000Y-38354000D03*
X167894000Y-38354000D03*
X165862000Y-38354000D03*
X163830000Y-38354000D03*
D18*
X103632000Y-55372000D03*
X103632000Y-52832000D03*
X103632000Y-63500000D03*
X103632000Y-66040000D03*
X103632000Y-50038000D03*
X122682000Y-62992000D03*
X122682000Y-65532000D03*
X122682000Y-53086000D03*
X122682000Y-50546000D03*
D17*
X103632000Y-42164000D03*
X106172000Y-42164000D03*
X108712000Y-42164000D03*
X111252000Y-42164000D03*
X113792000Y-42164000D03*
X116332000Y-42164000D03*
X118872000Y-42164000D03*
X121412000Y-42164000D03*
X123952000Y-42164000D03*
X130048000Y-41656000D03*
X130048000Y-39116000D03*
X130048000Y-36576000D03*
X130048000Y-34036000D03*
X130048000Y-31496000D03*
D18*
X130048000Y-28956000D03*
D27*
X129540000Y-60960000D03*
X132080000Y-60960000D03*
X134620000Y-60960000D03*
X137160000Y-60960000D03*
X139700000Y-60960000D03*
X142240000Y-60960000D03*
X144780000Y-60960000D03*
X147320000Y-60960000D03*
X147320000Y-68580000D03*
X144780000Y-68580000D03*
X142240000Y-68580000D03*
X139700000Y-68580000D03*
X137160000Y-68580000D03*
X134620000Y-68580000D03*
X132080000Y-68580000D03*
D28*
X129540000Y-68580000D03*
D20*
X157480000Y-59690000D03*
D21*
X157480000Y-67310000D03*
D20*
X177800000Y-59690000D03*
D21*
X177800000Y-67310000D03*
D20*
X172720000Y-59690000D03*
D21*
X172720000Y-67310000D03*
D20*
X167640000Y-59690000D03*
D21*
X167640000Y-67310000D03*
D20*
X172720000Y-46990000D03*
D21*
X172720000Y-54610000D03*
D20*
X167640000Y-46990000D03*
D21*
X167640000Y-54610000D03*
D20*
X162560000Y-46990000D03*
D21*
X162560000Y-54610000D03*
D20*
X157480000Y-46990000D03*
D21*
X157480000Y-54610000D03*
D18*
X184404000Y-30018000D03*
D17*
X184404000Y-36114000D03*
D18*
X92456000Y-36322000D03*
D17*
X92456000Y-30226000D03*
D20*
X129540000Y-46990000D03*
D21*
X129540000Y-54610000D03*
D20*
X134620000Y-46990000D03*
D21*
X134620000Y-54610000D03*
D20*
X139700000Y-46990000D03*
D21*
X139700000Y-54610000D03*
D20*
X144780000Y-46990000D03*
D21*
X144780000Y-54610000D03*
D10*
X82700000Y-78740000D03*
X82700000Y-83240000D03*
X76200000Y-78740000D03*
X76200000Y-83240000D03*
X82700000Y-93980000D03*
X82700000Y-98480000D03*
X76200000Y-93980000D03*
X76200000Y-98480000D03*
X72540000Y-86360000D03*
X72540000Y-90860000D03*
X66040000Y-86360000D03*
X66040000Y-90860000D03*
X92860000Y-86360000D03*
X92860000Y-90860000D03*
X86360000Y-86360000D03*
X86360000Y-90860000D03*
X202080000Y-63500000D03*
X202080000Y-68000000D03*
X195580000Y-63500000D03*
X195580000Y-68000000D03*
X212240000Y-55880000D03*
X212240000Y-60380000D03*
X205740000Y-55880000D03*
X205740000Y-60380000D03*
X191920000Y-55880000D03*
X191920000Y-60380000D03*
X185420000Y-55880000D03*
X185420000Y-60380000D03*
X202080000Y-48260000D03*
X202080000Y-52760000D03*
X195580000Y-48260000D03*
X195580000Y-52760000D03*
D29*
X112247500Y-68066200D03*
X119984800Y-83768500D03*
X127916400Y-78083300D03*
X138009700Y-53375900D03*
X129032800Y-76148300D03*
X142167100Y-86365300D03*
X146575700Y-65131000D03*
X116165400Y-61509200D03*
X113697100Y-49018000D03*
X92944200Y-61187000D03*
X157046300Y-61198700D03*
X126358900Y-67561000D03*
D30*
X128280000Y-80010000D02*
X126722300Y-78452300D01*
X126722300Y-78452300D02*
X100767700Y-78452300D01*
X100767700Y-78452300D02*
X92860000Y-86360000D01*
X144723700Y-62235300D02*
X144780000Y-62179000D01*
X144780000Y-62179000D02*
X144780000Y-60960000D01*
X132080000Y-60960000D02*
X133355300Y-62235300D01*
X133355300Y-62235300D02*
X144723700Y-62235300D01*
X147320000Y-68580000D02*
X147320000Y-64831600D01*
X147320000Y-64831600D02*
X144723700Y-62235300D01*
D31*
X191008000Y-98552000D02*
X176902000Y-98552000D01*
X176902000Y-98552000D02*
X174870000Y-96520000D01*
X197612000Y-98552000D02*
X191008000Y-98552000D01*
X146060000Y-102870000D02*
X149062500Y-99867500D01*
X149062500Y-99867500D02*
X171522500Y-99867500D01*
X171522500Y-99867500D02*
X174870000Y-96520000D01*
D30*
X86360000Y-86360000D02*
X92860000Y-86360000D01*
D31*
X84582000Y-66802000D02*
X77978000Y-66802000D01*
X100406200Y-63766700D02*
X90247700Y-63766700D01*
X90249400Y-63903200D02*
X89204800Y-64947800D01*
D30*
X76200000Y-93980000D02*
X82700000Y-93980000D01*
X66040000Y-86360000D02*
X72540000Y-86360000D01*
X195580000Y-63500000D02*
X202080000Y-63500000D01*
X205740000Y-55880000D02*
X212240000Y-55880000D01*
X185420000Y-55880000D02*
X191920000Y-55880000D01*
X195580000Y-48260000D02*
X202080000Y-48260000D01*
D31*
X102620000Y-66040000D02*
X103632000Y-66040000D01*
X100406200Y-63826200D02*
X102620000Y-66040000D01*
D30*
X100406200Y-63766700D02*
X100406200Y-63826200D01*
X114130300Y-102870000D02*
X114130300Y-102777700D01*
X114130300Y-102777700D02*
X133084900Y-83823100D01*
X133084900Y-83823100D02*
X163501600Y-83823100D01*
X163501600Y-83823100D02*
X167060700Y-80264000D01*
X129540000Y-46990000D02*
X102108000Y-46990000D01*
X102108000Y-46990000D02*
X97282000Y-42164000D01*
X134620000Y-46990000D02*
X129540000Y-46990000D01*
X113040000Y-102870000D02*
X114130300Y-102870000D01*
X168148000Y-80264000D02*
X167060700Y-80264000D01*
X96191500Y-42164000D02*
X90857500Y-47498000D01*
X90857500Y-47498000D02*
X90424000Y-47498000D01*
X97282000Y-42164000D02*
X96191500Y-42164000D01*
X96191500Y-42164000D02*
X96191500Y-36585900D01*
X96191500Y-36585900D02*
X97146100Y-35631300D01*
X97146100Y-35631300D02*
X97282000Y-35631300D01*
X97282000Y-34544000D02*
X97282000Y-35631300D01*
X139700000Y-46990000D02*
X144780000Y-46990000D01*
X134620000Y-46990000D02*
X139700000Y-46990000D01*
X90424000Y-47498000D02*
X85145300Y-47498000D01*
X90424000Y-52522700D02*
X90424000Y-47498000D01*
X90424000Y-53848000D02*
X90424000Y-52522700D01*
X83820000Y-47498000D02*
X85145300Y-47498000D01*
X172720000Y-67310000D02*
X177800000Y-67310000D01*
X167640000Y-46990000D02*
X172720000Y-46990000D01*
X162560000Y-46990000D02*
X167640000Y-46990000D01*
X157480000Y-46990000D02*
X162560000Y-46990000D01*
X129540000Y-54610000D02*
X130695600Y-53454400D01*
X130695600Y-53454400D02*
X135109600Y-53454400D01*
X135109600Y-53454400D02*
X142240000Y-60584800D01*
X142240000Y-60584800D02*
X142240000Y-60960000D01*
X82700000Y-83240000D02*
X86166400Y-83240000D01*
X86166400Y-83240000D02*
X101340200Y-68066200D01*
X101340200Y-68066200D02*
X112247500Y-68066200D01*
X76200000Y-83240000D02*
X82700000Y-83240000D01*
X82700000Y-98480000D02*
X87054000Y-94126000D01*
X87054000Y-94126000D02*
X109627300Y-94126000D01*
X109627300Y-94126000D02*
X119984800Y-83768500D01*
X76200000Y-98480000D02*
X82700000Y-98480000D01*
X134620000Y-54610000D02*
X139700000Y-59690000D01*
X139700000Y-59690000D02*
X139700000Y-60960000D01*
X127916400Y-78083300D02*
X127822500Y-77989400D01*
X127822500Y-77989400D02*
X92053900Y-77989400D01*
X92053900Y-77989400D02*
X79183300Y-90860000D01*
X79183300Y-90860000D02*
X72540000Y-90860000D01*
X66040000Y-90860000D02*
X72540000Y-90860000D01*
X129032800Y-76148300D02*
X131967200Y-79082700D01*
X131967200Y-79082700D02*
X131967200Y-80485900D01*
X131967200Y-80485900D02*
X131320900Y-81132200D01*
X131320900Y-81132200D02*
X127809000Y-81132200D01*
X127809000Y-81132200D02*
X127180700Y-80503900D01*
X127180700Y-80503900D02*
X127180700Y-79875500D01*
X127180700Y-79875500D02*
X126212100Y-78906900D01*
X126212100Y-78906900D02*
X104813100Y-78906900D01*
X104813100Y-78906900D02*
X92860000Y-90860000D01*
X138009700Y-53375900D02*
X143545900Y-53375900D01*
X143545900Y-53375900D02*
X144780000Y-54610000D01*
X86360000Y-90860000D02*
X92860000Y-90860000D01*
X210922000Y-83769200D02*
X209746700Y-83769200D01*
X125740000Y-80010000D02*
X127741300Y-82011300D01*
X127741300Y-82011300D02*
X159063100Y-82011300D01*
X159063100Y-82011300D02*
X163613100Y-77461300D01*
X163613100Y-77461300D02*
X203438800Y-77461300D01*
X203438800Y-77461300D02*
X209746700Y-83769200D01*
X118120000Y-80010000D02*
X120636300Y-82526300D01*
X120636300Y-82526300D02*
X160669100Y-82526300D01*
X160669100Y-82526300D02*
X165273500Y-77921900D01*
X165273500Y-77921900D02*
X201359400Y-77921900D01*
X201359400Y-77921900D02*
X209746700Y-86309200D01*
X210922000Y-86309200D02*
X209746700Y-86309200D01*
X210922000Y-91389200D02*
X210922000Y-90213900D01*
X142167100Y-86365300D02*
X199979400Y-86365300D01*
X199979400Y-86365300D02*
X202072000Y-84272700D01*
X202072000Y-84272700D02*
X204601600Y-84272700D01*
X204601600Y-84272700D02*
X210542800Y-90213900D01*
X210542800Y-90213900D02*
X210922000Y-90213900D01*
X210922000Y-87673900D02*
X211289300Y-87673900D01*
X211289300Y-87673900D02*
X212131100Y-86832100D01*
X212131100Y-86832100D02*
X212131100Y-83295100D01*
X212131100Y-83295100D02*
X211335200Y-82499200D01*
X211335200Y-82499200D02*
X210383700Y-82499200D01*
X210383700Y-82499200D02*
X204895400Y-77010900D01*
X204895400Y-77010900D02*
X163426600Y-77010900D01*
X163426600Y-77010900D02*
X158881500Y-81556000D01*
X158881500Y-81556000D02*
X142526000Y-81556000D01*
X142526000Y-81556000D02*
X140980000Y-80010000D01*
X210922000Y-88849200D02*
X210922000Y-87673900D01*
X179070000Y-49784000D02*
X179005300Y-49719300D01*
X179005300Y-49719300D02*
X125492800Y-49719300D01*
X125492800Y-49719300D02*
X123578800Y-51633300D01*
X123578800Y-51633300D02*
X101671300Y-51633300D01*
X101671300Y-51633300D02*
X97282000Y-47244000D01*
X97282000Y-65024000D02*
X99385300Y-67127300D01*
X99385300Y-67127300D02*
X117986200Y-67127300D01*
X117986200Y-67127300D02*
X130820000Y-79961100D01*
X130820000Y-79961100D02*
X130820000Y-80010000D01*
X97282000Y-54864000D02*
X96192400Y-53774400D01*
X96192400Y-53774400D02*
X96192400Y-46758400D01*
X96192400Y-46758400D02*
X96878800Y-46072000D01*
X96878800Y-46072000D02*
X97661800Y-46072000D01*
X97661800Y-46072000D02*
X102715200Y-51125400D01*
X102715200Y-51125400D02*
X118960400Y-51125400D01*
X118960400Y-51125400D02*
X120898900Y-49186900D01*
X120898900Y-49186900D02*
X161542700Y-49186900D01*
X161542700Y-49186900D02*
X162050400Y-48679200D01*
X162050400Y-48679200D02*
X179578800Y-48679200D01*
X179578800Y-48679200D02*
X180168700Y-49269100D01*
X180168700Y-49269100D02*
X180168700Y-51225300D01*
X180168700Y-51225300D02*
X179070000Y-52324000D01*
X97282000Y-57404000D02*
X108899800Y-57404000D01*
X108899800Y-57404000D02*
X120165200Y-68669400D01*
X120165200Y-68669400D02*
X122584400Y-68669400D01*
X122584400Y-68669400D02*
X132695900Y-78780900D01*
X132695900Y-78780900D02*
X132695900Y-79346000D01*
X132695900Y-79346000D02*
X132696000Y-79346000D01*
X132696000Y-79346000D02*
X133360000Y-80010000D01*
X179070000Y-54864000D02*
X178192200Y-55741800D01*
X178192200Y-55741800D02*
X172098000Y-55741800D01*
X172098000Y-55741800D02*
X168459600Y-52103400D01*
X168459600Y-52103400D02*
X127495300Y-52103400D01*
X127495300Y-52103400D02*
X125425300Y-54173400D01*
X125425300Y-54173400D02*
X101671400Y-54173400D01*
X101671400Y-54173400D02*
X97282000Y-49784000D01*
X123769300Y-65532000D02*
X146174700Y-65532000D01*
X146174700Y-65532000D02*
X146575700Y-65131000D01*
X122682000Y-65532000D02*
X123769300Y-65532000D01*
X195580000Y-68000000D02*
X182972200Y-68000000D01*
X182972200Y-68000000D02*
X173534200Y-58562000D01*
X173534200Y-58562000D02*
X169450700Y-58562000D01*
X169450700Y-58562000D02*
X168798500Y-59214200D01*
X202080000Y-68000000D02*
X195580000Y-68000000D01*
X168798500Y-59214200D02*
X168798500Y-62721900D01*
X168798500Y-62721900D02*
X161759500Y-69760900D01*
X161759500Y-69760900D02*
X135800900Y-69760900D01*
X135800900Y-69760900D02*
X134620000Y-68580000D01*
X157480000Y-54610000D02*
X161434600Y-58564600D01*
X161434600Y-58564600D02*
X168148900Y-58564600D01*
X168148900Y-58564600D02*
X168798500Y-59214200D01*
X205740000Y-60380000D02*
X203330800Y-57970800D01*
X203330800Y-57970800D02*
X184094600Y-57970800D01*
X184094600Y-57970800D02*
X182373100Y-56249300D01*
X182373100Y-56249300D02*
X171331700Y-56249300D01*
X171331700Y-56249300D02*
X168555300Y-53472900D01*
X168555300Y-53472900D02*
X163697100Y-53472900D01*
X163697100Y-53472900D02*
X162560000Y-54610000D01*
X205740000Y-60380000D02*
X212240000Y-60380000D01*
X185420000Y-60380000D02*
X182189900Y-57149900D01*
X182189900Y-57149900D02*
X170179900Y-57149900D01*
X170179900Y-57149900D02*
X167640000Y-54610000D01*
X191920000Y-60380000D02*
X185420000Y-60380000D01*
X195580000Y-52760000D02*
X194746000Y-53594000D01*
X194746000Y-53594000D02*
X173736000Y-53594000D01*
X173736000Y-53594000D02*
X172720000Y-54610000D01*
X202080000Y-52760000D02*
X195580000Y-52760000D01*
X166514700Y-59690000D02*
X165389400Y-60815300D01*
X165389400Y-60815300D02*
X160405800Y-60815300D01*
X160405800Y-60815300D02*
X157635300Y-58044800D01*
X157635300Y-58044800D02*
X140598600Y-58044800D01*
X140598600Y-58044800D02*
X135557800Y-53004000D01*
X135557800Y-53004000D02*
X128453200Y-53004000D01*
X128453200Y-53004000D02*
X124547400Y-56909800D01*
X124547400Y-56909800D02*
X99734200Y-56909800D01*
X99734200Y-56909800D02*
X99120700Y-56296300D01*
X99120700Y-56296300D02*
X96813400Y-56296300D01*
X96813400Y-56296300D02*
X96192400Y-56917300D01*
X96192400Y-56917300D02*
X96192400Y-58854400D01*
X96192400Y-58854400D02*
X97282000Y-59944000D01*
X167640000Y-59690000D02*
X166514700Y-59690000D01*
X116165400Y-61509200D02*
X133551800Y-78895600D01*
X133551800Y-78895600D02*
X134785600Y-78895600D01*
X134785600Y-78895600D02*
X135900000Y-80010000D01*
X171594700Y-59690000D02*
X171594700Y-60674600D01*
X171594700Y-60674600D02*
X155731000Y-76538300D01*
X155731000Y-76538300D02*
X150490800Y-76538300D01*
X150490800Y-76538300D02*
X147330000Y-79699100D01*
X147330000Y-79699100D02*
X147330000Y-80295000D01*
X147330000Y-80295000D02*
X146519300Y-81105700D01*
X146519300Y-81105700D02*
X143065200Y-81105700D01*
X143065200Y-81105700D02*
X142250000Y-80290500D01*
X142250000Y-80290500D02*
X142250000Y-79710700D01*
X142250000Y-79710700D02*
X141459000Y-78919700D01*
X141459000Y-78919700D02*
X136990300Y-78919700D01*
X136990300Y-78919700D02*
X135900000Y-80010000D01*
X172720000Y-59690000D02*
X171594700Y-59690000D01*
X161798000Y-38354000D02*
X151865700Y-48286300D01*
X151865700Y-48286300D02*
X106471000Y-48286300D01*
X106471000Y-48286300D02*
X104719300Y-50038000D01*
X103632000Y-50038000D02*
X104719300Y-50038000D01*
X163830000Y-38354000D02*
X153447400Y-48736600D01*
X153447400Y-48736600D02*
X113978500Y-48736600D01*
X113978500Y-48736600D02*
X113697100Y-49018000D01*
D31*
X69595999Y-50571399D02*
X70548499Y-50571399D01*
X68834000Y-49809400D02*
X69595999Y-50571399D01*
X70548499Y-50571399D02*
X72986900Y-53009800D01*
X72986900Y-53009800D02*
X82016600Y-53009800D01*
X90906600Y-61709300D02*
X91364397Y-62167097D01*
X91061400Y-61935400D02*
X90780197Y-61657903D01*
X90780197Y-61657903D02*
X82016600Y-53009800D01*
X100398000Y-61226300D02*
X95250000Y-61175900D01*
X94386400Y-62039500D02*
X95250000Y-61175900D01*
X94373700Y-62166500D02*
X94373700Y-61963300D01*
X103632000Y-62488000D02*
X103632000Y-63500000D01*
X102370300Y-61226300D02*
X103632000Y-62488000D01*
X100398000Y-61226300D02*
X102370300Y-61226300D01*
D30*
X94258803Y-62167097D02*
X94386400Y-62039500D01*
D31*
X91364397Y-62167097D02*
X94258803Y-62167097D01*
D30*
X129540000Y-68580000D02*
X130703500Y-68580000D01*
X130703500Y-68580000D02*
X130703500Y-68870900D01*
X130703500Y-68870900D02*
X132324800Y-70492200D01*
X132324800Y-70492200D02*
X136542200Y-70492200D01*
X136542200Y-70492200D02*
X146060000Y-80010000D01*
X194310000Y-79248000D02*
X192298200Y-81259800D01*
X192298200Y-81259800D02*
X186625400Y-81259800D01*
X186625400Y-81259800D02*
X183611800Y-84273400D01*
X183611800Y-84273400D02*
X141796600Y-84273400D01*
X141796600Y-84273400D02*
X123200000Y-102870000D01*
X125740000Y-102870000D02*
X140472000Y-88138000D01*
X140472000Y-88138000D02*
X203454000Y-88138000D01*
X113040000Y-80010000D02*
X116035000Y-83005000D01*
X116035000Y-83005000D02*
X161464200Y-83005000D01*
X161464200Y-83005000D02*
X165292600Y-79176600D01*
X165292600Y-79176600D02*
X169600600Y-79176600D01*
X169600600Y-79176600D02*
X170688000Y-80264000D01*
X191770000Y-79248000D02*
X191695900Y-79173900D01*
X191695900Y-79173900D02*
X171778100Y-79173900D01*
X171778100Y-79173900D02*
X170688000Y-80264000D01*
X92944200Y-61187000D02*
X92683000Y-61187000D01*
X92683000Y-61187000D02*
X90424000Y-58928000D01*
X90424000Y-58928000D02*
X78994000Y-47498000D01*
X78994000Y-47498000D02*
X78740000Y-47498000D01*
X157046300Y-61198700D02*
X162560000Y-66712400D01*
X162560000Y-66712400D02*
X162560000Y-67310000D01*
X161434700Y-59690000D02*
X158574300Y-56829600D01*
X158574300Y-56829600D02*
X140020300Y-56829600D01*
X140020300Y-56829600D02*
X135744400Y-52553700D01*
X135744400Y-52553700D02*
X128266500Y-52553700D01*
X128266500Y-52553700D02*
X124360800Y-56459400D01*
X124360800Y-56459400D02*
X101417400Y-56459400D01*
X101417400Y-56459400D02*
X97282000Y-52324000D01*
X162560000Y-59690000D02*
X161434700Y-59690000D01*
X165862000Y-38354000D02*
X164448500Y-36940500D01*
X164448500Y-36940500D02*
X149749500Y-36940500D01*
X149749500Y-36940500D02*
X148590000Y-38100000D01*
X152640000Y-30480000D02*
X151514700Y-30480000D01*
X103632000Y-42164000D02*
X117959400Y-27836600D01*
X117959400Y-27836600D02*
X148871300Y-27836600D01*
X148871300Y-27836600D02*
X151514700Y-30480000D01*
X143520000Y-80010000D02*
X141392500Y-77882500D01*
X141392500Y-77882500D02*
X136680400Y-77882500D01*
X136680400Y-77882500D02*
X126358900Y-67561000D01*
X108712000Y-42164000D02*
X120569300Y-30306700D01*
X120569300Y-30306700D02*
X133925500Y-30306700D01*
X133925500Y-30306700D02*
X135526800Y-28705400D01*
X135526800Y-28705400D02*
X145690100Y-28705400D01*
X145690100Y-28705400D02*
X147464700Y-30480000D01*
X148590000Y-30480000D02*
X147464700Y-30480000D01*
X84582000Y-61976000D02*
X77978000Y-61976000D01*
X197612000Y-93726000D02*
X191008000Y-93726000D01*
D31*
X66852800Y-78663800D02*
X66852800Y-77576500D01*
X69955900Y-74473400D02*
X66852800Y-77576500D01*
X69955900Y-65388000D02*
X70916800Y-64427100D01*
X69955900Y-74473400D02*
X69955900Y-65388000D01*
X70916800Y-55956200D02*
X68834000Y-53873400D01*
X70916800Y-64427100D02*
X70916800Y-55956200D01*
M02*
