G04 #@! TF.GenerationSoftware,KiCad,Pcbnew,5.1.6-c6e7f7d~86~ubuntu19.10.1*
G04 #@! TF.CreationDate,2020-06-13T17:36:59-04:00*
G04 #@! TF.ProjectId,Esp32Badge-v1,45737033-3242-4616-9467-652d76312e6b,2*
G04 #@! TF.SameCoordinates,Original*
G04 #@! TF.FileFunction,Legend,Bot*
G04 #@! TF.FilePolarity,Positive*
%FSLAX46Y46*%
G04 Gerber Fmt 4.6, Leading zero omitted, Abs format (unit mm)*
G04 Created by KiCad (PCBNEW 5.1.6-c6e7f7d~86~ubuntu19.10.1) date 2020-06-13 17:36:59*
%MOMM*%
%LPD*%
G01*
G04 APERTURE LIST*
%ADD10C,0.150000*%
%ADD11C,0.010000*%
%ADD12C,0.120000*%
G04 APERTURE END LIST*
D10*
X214167980Y-77446476D02*
X213167980Y-77446476D01*
X213167980Y-77827428D01*
X213215600Y-77922666D01*
X213263219Y-77970285D01*
X213358457Y-78017904D01*
X213501314Y-78017904D01*
X213596552Y-77970285D01*
X213644171Y-77922666D01*
X213691790Y-77827428D01*
X213691790Y-77446476D01*
X213167980Y-78636952D02*
X213167980Y-78827428D01*
X213215600Y-78922666D01*
X213310838Y-79017904D01*
X213501314Y-79065523D01*
X213834647Y-79065523D01*
X214025123Y-79017904D01*
X214120361Y-78922666D01*
X214167980Y-78827428D01*
X214167980Y-78636952D01*
X214120361Y-78541714D01*
X214025123Y-78446476D01*
X213834647Y-78398857D01*
X213501314Y-78398857D01*
X213310838Y-78446476D01*
X213215600Y-78541714D01*
X213167980Y-78636952D01*
X213167980Y-79398857D02*
X214167980Y-79636952D01*
X213453695Y-79827428D01*
X214167980Y-80017904D01*
X213167980Y-80256000D01*
X213644171Y-80636952D02*
X213644171Y-80970285D01*
X214167980Y-81113142D02*
X214167980Y-80636952D01*
X213167980Y-80636952D01*
X213167980Y-81113142D01*
X214167980Y-82113142D02*
X213691790Y-81779809D01*
X214167980Y-81541714D02*
X213167980Y-81541714D01*
X213167980Y-81922666D01*
X213215600Y-82017904D01*
X213263219Y-82065523D01*
X213358457Y-82113142D01*
X213501314Y-82113142D01*
X213596552Y-82065523D01*
X213644171Y-82017904D01*
X213691790Y-81922666D01*
X213691790Y-81541714D01*
X207944404Y-36758571D02*
X207611071Y-36758571D01*
X207468214Y-37282380D02*
X207944404Y-37282380D01*
X207944404Y-36282380D01*
X207468214Y-36282380D01*
X207087261Y-37234761D02*
X206944404Y-37282380D01*
X206706309Y-37282380D01*
X206611071Y-37234761D01*
X206563452Y-37187142D01*
X206515833Y-37091904D01*
X206515833Y-36996666D01*
X206563452Y-36901428D01*
X206611071Y-36853809D01*
X206706309Y-36806190D01*
X206896785Y-36758571D01*
X206992023Y-36710952D01*
X207039642Y-36663333D01*
X207087261Y-36568095D01*
X207087261Y-36472857D01*
X207039642Y-36377619D01*
X206992023Y-36330000D01*
X206896785Y-36282380D01*
X206658690Y-36282380D01*
X206515833Y-36330000D01*
X206087261Y-37282380D02*
X206087261Y-36282380D01*
X205706309Y-36282380D01*
X205611071Y-36330000D01*
X205563452Y-36377619D01*
X205515833Y-36472857D01*
X205515833Y-36615714D01*
X205563452Y-36710952D01*
X205611071Y-36758571D01*
X205706309Y-36806190D01*
X206087261Y-36806190D01*
X205182500Y-36282380D02*
X204563452Y-36282380D01*
X204896785Y-36663333D01*
X204753928Y-36663333D01*
X204658690Y-36710952D01*
X204611071Y-36758571D01*
X204563452Y-36853809D01*
X204563452Y-37091904D01*
X204611071Y-37187142D01*
X204658690Y-37234761D01*
X204753928Y-37282380D01*
X205039642Y-37282380D01*
X205134880Y-37234761D01*
X205182500Y-37187142D01*
X204182500Y-36377619D02*
X204134880Y-36330000D01*
X204039642Y-36282380D01*
X203801547Y-36282380D01*
X203706309Y-36330000D01*
X203658690Y-36377619D01*
X203611071Y-36472857D01*
X203611071Y-36568095D01*
X203658690Y-36710952D01*
X204230119Y-37282380D01*
X203611071Y-37282380D01*
X201849166Y-37282380D02*
X202182500Y-36806190D01*
X202420595Y-37282380D02*
X202420595Y-36282380D01*
X202039642Y-36282380D01*
X201944404Y-36330000D01*
X201896785Y-36377619D01*
X201849166Y-36472857D01*
X201849166Y-36615714D01*
X201896785Y-36710952D01*
X201944404Y-36758571D01*
X202039642Y-36806190D01*
X202420595Y-36806190D01*
X200992023Y-36615714D02*
X200992023Y-37282380D01*
X201230119Y-36234761D02*
X201468214Y-36949047D01*
X200849166Y-36949047D01*
X200039642Y-36615714D02*
X200039642Y-37425238D01*
X200087261Y-37520476D01*
X200134880Y-37568095D01*
X200230119Y-37615714D01*
X200372976Y-37615714D01*
X200468214Y-37568095D01*
X200039642Y-37234761D02*
X200134880Y-37282380D01*
X200325357Y-37282380D01*
X200420595Y-37234761D01*
X200468214Y-37187142D01*
X200515833Y-37091904D01*
X200515833Y-36806190D01*
X200468214Y-36710952D01*
X200420595Y-36663333D01*
X200325357Y-36615714D01*
X200134880Y-36615714D01*
X200039642Y-36663333D01*
X199182500Y-37234761D02*
X199277738Y-37282380D01*
X199468214Y-37282380D01*
X199563452Y-37234761D01*
X199611071Y-37139523D01*
X199611071Y-36758571D01*
X199563452Y-36663333D01*
X199468214Y-36615714D01*
X199277738Y-36615714D01*
X199182500Y-36663333D01*
X199134880Y-36758571D01*
X199134880Y-36853809D01*
X199611071Y-36949047D01*
X197944404Y-37282380D02*
X197944404Y-36282380D01*
X197563452Y-36282380D01*
X197468214Y-36330000D01*
X197420595Y-36377619D01*
X197372976Y-36472857D01*
X197372976Y-36615714D01*
X197420595Y-36710952D01*
X197468214Y-36758571D01*
X197563452Y-36806190D01*
X197944404Y-36806190D01*
X196944404Y-37282380D02*
X196944404Y-36615714D01*
X196944404Y-36806190D02*
X196896785Y-36710952D01*
X196849166Y-36663333D01*
X196753928Y-36615714D01*
X196658690Y-36615714D01*
X196182500Y-37282380D02*
X196277738Y-37234761D01*
X196325357Y-37187142D01*
X196372976Y-37091904D01*
X196372976Y-36806190D01*
X196325357Y-36710952D01*
X196277738Y-36663333D01*
X196182500Y-36615714D01*
X196039642Y-36615714D01*
X195944404Y-36663333D01*
X195896785Y-36710952D01*
X195849166Y-36806190D01*
X195849166Y-37091904D01*
X195896785Y-37187142D01*
X195944404Y-37234761D01*
X196039642Y-37282380D01*
X196182500Y-37282380D01*
X194087261Y-37282380D02*
X194420595Y-36806190D01*
X194658690Y-37282380D02*
X194658690Y-36282380D01*
X194277738Y-36282380D01*
X194182500Y-36330000D01*
X194134880Y-36377619D01*
X194087261Y-36472857D01*
X194087261Y-36615714D01*
X194134880Y-36710952D01*
X194182500Y-36758571D01*
X194277738Y-36806190D01*
X194658690Y-36806190D01*
X193277738Y-37234761D02*
X193372976Y-37282380D01*
X193563452Y-37282380D01*
X193658690Y-37234761D01*
X193706309Y-37139523D01*
X193706309Y-36758571D01*
X193658690Y-36663333D01*
X193563452Y-36615714D01*
X193372976Y-36615714D01*
X193277738Y-36663333D01*
X193230119Y-36758571D01*
X193230119Y-36853809D01*
X193706309Y-36949047D01*
X192896785Y-36615714D02*
X192658690Y-37282380D01*
X192420595Y-36615714D01*
X192039642Y-37187142D02*
X191992023Y-37234761D01*
X192039642Y-37282380D01*
X192087261Y-37234761D01*
X192039642Y-37187142D01*
X192039642Y-37282380D01*
X192039642Y-36663333D02*
X191992023Y-36710952D01*
X192039642Y-36758571D01*
X192087261Y-36710952D01*
X192039642Y-36663333D01*
X192039642Y-36758571D01*
X190277738Y-37282380D02*
X190849166Y-37282380D01*
X190563452Y-37282380D02*
X190563452Y-36282380D01*
X190658690Y-36425238D01*
X190753928Y-36520476D01*
X190849166Y-36568095D01*
X189849166Y-37187142D02*
X189801547Y-37234761D01*
X189849166Y-37282380D01*
X189896785Y-37234761D01*
X189849166Y-37187142D01*
X189849166Y-37282380D01*
X189420595Y-36377619D02*
X189372976Y-36330000D01*
X189277738Y-36282380D01*
X189039642Y-36282380D01*
X188944404Y-36330000D01*
X188896785Y-36377619D01*
X188849166Y-36472857D01*
X188849166Y-36568095D01*
X188896785Y-36710952D01*
X189468214Y-37282380D01*
X188849166Y-37282380D01*
X213142580Y-89285961D02*
X213952104Y-89285961D01*
X214047342Y-89333580D01*
X214094961Y-89381200D01*
X214142580Y-89476438D01*
X214142580Y-89666914D01*
X214094961Y-89762152D01*
X214047342Y-89809771D01*
X213952104Y-89857390D01*
X213142580Y-89857390D01*
X213856866Y-90285961D02*
X213856866Y-90762152D01*
X214142580Y-90190723D02*
X213142580Y-90524057D01*
X214142580Y-90857390D01*
X214142580Y-91762152D02*
X213666390Y-91428819D01*
X214142580Y-91190723D02*
X213142580Y-91190723D01*
X213142580Y-91571676D01*
X213190200Y-91666914D01*
X213237819Y-91714533D01*
X213333057Y-91762152D01*
X213475914Y-91762152D01*
X213571152Y-91714533D01*
X213618771Y-91666914D01*
X213666390Y-91571676D01*
X213666390Y-91190723D01*
X213142580Y-92047866D02*
X213142580Y-92619295D01*
X214142580Y-92333580D02*
X213142580Y-92333580D01*
X214015580Y-83936009D02*
X213015580Y-83936009D01*
X213110819Y-84364580D02*
X213063200Y-84412200D01*
X213015580Y-84507438D01*
X213015580Y-84745533D01*
X213063200Y-84840771D01*
X213110819Y-84888390D01*
X213206057Y-84936009D01*
X213301295Y-84936009D01*
X213444152Y-84888390D01*
X214015580Y-84316961D01*
X214015580Y-84936009D01*
X213920342Y-85936009D02*
X213967961Y-85888390D01*
X214015580Y-85745533D01*
X214015580Y-85650295D01*
X213967961Y-85507438D01*
X213872723Y-85412200D01*
X213777485Y-85364580D01*
X213587009Y-85316961D01*
X213444152Y-85316961D01*
X213253676Y-85364580D01*
X213158438Y-85412200D01*
X213063200Y-85507438D01*
X213015580Y-85650295D01*
X213015580Y-85745533D01*
X213063200Y-85888390D01*
X213110819Y-85936009D01*
X208605285Y-84453361D02*
X208462428Y-84500980D01*
X208224333Y-84500980D01*
X208129095Y-84453361D01*
X208081476Y-84405742D01*
X208033857Y-84310504D01*
X208033857Y-84215266D01*
X208081476Y-84120028D01*
X208129095Y-84072409D01*
X208224333Y-84024790D01*
X208414809Y-83977171D01*
X208510047Y-83929552D01*
X208557666Y-83881933D01*
X208605285Y-83786695D01*
X208605285Y-83691457D01*
X208557666Y-83596219D01*
X208510047Y-83548600D01*
X208414809Y-83500980D01*
X208176714Y-83500980D01*
X208033857Y-83548600D01*
X207605285Y-84500980D02*
X207605285Y-83500980D01*
X207367190Y-83500980D01*
X207224333Y-83548600D01*
X207129095Y-83643838D01*
X207081476Y-83739076D01*
X207033857Y-83929552D01*
X207033857Y-84072409D01*
X207081476Y-84262885D01*
X207129095Y-84358123D01*
X207224333Y-84453361D01*
X207367190Y-84500980D01*
X207605285Y-84500980D01*
X206652904Y-84215266D02*
X206176714Y-84215266D01*
X206748142Y-84500980D02*
X206414809Y-83500980D01*
X206081476Y-84500980D01*
X208378276Y-86713961D02*
X208235419Y-86761580D01*
X207997323Y-86761580D01*
X207902085Y-86713961D01*
X207854466Y-86666342D01*
X207806847Y-86571104D01*
X207806847Y-86475866D01*
X207854466Y-86380628D01*
X207902085Y-86333009D01*
X207997323Y-86285390D01*
X208187800Y-86237771D01*
X208283038Y-86190152D01*
X208330657Y-86142533D01*
X208378276Y-86047295D01*
X208378276Y-85952057D01*
X208330657Y-85856819D01*
X208283038Y-85809200D01*
X208187800Y-85761580D01*
X207949704Y-85761580D01*
X207806847Y-85809200D01*
X206806847Y-86666342D02*
X206854466Y-86713961D01*
X206997323Y-86761580D01*
X207092561Y-86761580D01*
X207235419Y-86713961D01*
X207330657Y-86618723D01*
X207378276Y-86523485D01*
X207425895Y-86333009D01*
X207425895Y-86190152D01*
X207378276Y-85999676D01*
X207330657Y-85904438D01*
X207235419Y-85809200D01*
X207092561Y-85761580D01*
X206997323Y-85761580D01*
X206854466Y-85809200D01*
X206806847Y-85856819D01*
X205902085Y-86761580D02*
X206378276Y-86761580D01*
X206378276Y-85761580D01*
X172894476Y-67295780D02*
X172275428Y-67295780D01*
X172608761Y-67676733D01*
X172465904Y-67676733D01*
X172370666Y-67724352D01*
X172323047Y-67771971D01*
X172275428Y-67867209D01*
X172275428Y-68105304D01*
X172323047Y-68200542D01*
X172370666Y-68248161D01*
X172465904Y-68295780D01*
X172751619Y-68295780D01*
X172846857Y-68248161D01*
X172894476Y-68200542D01*
X171942095Y-67629114D02*
X171704000Y-68295780D01*
X171465904Y-67629114D01*
X171180190Y-67295780D02*
X170561142Y-67295780D01*
X170894476Y-67676733D01*
X170751619Y-67676733D01*
X170656380Y-67724352D01*
X170608761Y-67771971D01*
X170561142Y-67867209D01*
X170561142Y-68105304D01*
X170608761Y-68200542D01*
X170656380Y-68248161D01*
X170751619Y-68295780D01*
X171037333Y-68295780D01*
X171132571Y-68248161D01*
X171180190Y-68200542D01*
X208203704Y-78189200D02*
X208298942Y-78141580D01*
X208441800Y-78141580D01*
X208584657Y-78189200D01*
X208679895Y-78284438D01*
X208727514Y-78379676D01*
X208775133Y-78570152D01*
X208775133Y-78713009D01*
X208727514Y-78903485D01*
X208679895Y-78998723D01*
X208584657Y-79093961D01*
X208441800Y-79141580D01*
X208346561Y-79141580D01*
X208203704Y-79093961D01*
X208156085Y-79046342D01*
X208156085Y-78713009D01*
X208346561Y-78713009D01*
X207727514Y-79141580D02*
X207727514Y-78141580D01*
X207156085Y-79141580D01*
X207156085Y-78141580D01*
X206679895Y-79141580D02*
X206679895Y-78141580D01*
X206441800Y-78141580D01*
X206298942Y-78189200D01*
X206203704Y-78284438D01*
X206156085Y-78379676D01*
X206108466Y-78570152D01*
X206108466Y-78713009D01*
X206156085Y-78903485D01*
X206203704Y-78998723D01*
X206298942Y-79093961D01*
X206441800Y-79141580D01*
X206679895Y-79141580D01*
X208530676Y-80833980D02*
X207911628Y-80833980D01*
X208244961Y-81214933D01*
X208102104Y-81214933D01*
X208006866Y-81262552D01*
X207959247Y-81310171D01*
X207911628Y-81405409D01*
X207911628Y-81643504D01*
X207959247Y-81738742D01*
X208006866Y-81786361D01*
X208102104Y-81833980D01*
X208387819Y-81833980D01*
X208483057Y-81786361D01*
X208530676Y-81738742D01*
X207578295Y-81167314D02*
X207340200Y-81833980D01*
X207102104Y-81167314D01*
X206816390Y-80833980D02*
X206197342Y-80833980D01*
X206530676Y-81214933D01*
X206387819Y-81214933D01*
X206292580Y-81262552D01*
X206244961Y-81310171D01*
X206197342Y-81405409D01*
X206197342Y-81643504D01*
X206244961Y-81738742D01*
X206292580Y-81786361D01*
X206387819Y-81833980D01*
X206673533Y-81833980D01*
X206768771Y-81786361D01*
X206816390Y-81738742D01*
X208527495Y-91146380D02*
X207956066Y-91146380D01*
X208241780Y-92146380D02*
X208241780Y-91146380D01*
X207717971Y-91146380D02*
X207051304Y-92146380D01*
X207051304Y-91146380D02*
X207717971Y-92146380D01*
X206717971Y-91241619D02*
X206670352Y-91194000D01*
X206575114Y-91146380D01*
X206337019Y-91146380D01*
X206241780Y-91194000D01*
X206194161Y-91241619D01*
X206146542Y-91336857D01*
X206146542Y-91432095D01*
X206194161Y-91574952D01*
X206765590Y-92146380D01*
X206146542Y-92146380D01*
X207703657Y-89453980D02*
X208036990Y-88977790D01*
X208275085Y-89453980D02*
X208275085Y-88453980D01*
X207894133Y-88453980D01*
X207798895Y-88501600D01*
X207751276Y-88549219D01*
X207703657Y-88644457D01*
X207703657Y-88787314D01*
X207751276Y-88882552D01*
X207798895Y-88930171D01*
X207894133Y-88977790D01*
X208275085Y-88977790D01*
X207370323Y-88453980D02*
X206703657Y-89453980D01*
X206703657Y-88453980D02*
X207370323Y-89453980D01*
X206370323Y-88549219D02*
X206322704Y-88501600D01*
X206227466Y-88453980D01*
X205989371Y-88453980D01*
X205894133Y-88501600D01*
X205846514Y-88549219D01*
X205798895Y-88644457D01*
X205798895Y-88739695D01*
X205846514Y-88882552D01*
X206417942Y-89453980D01*
X205798895Y-89453980D01*
X172211904Y-139842857D02*
X170688095Y-139842857D01*
X101091904Y-139842857D02*
X99568095Y-139842857D01*
X100330000Y-140604761D02*
X100330000Y-139080952D01*
X207611071Y-34218571D02*
X207944404Y-34218571D01*
X207944404Y-34742380D02*
X207944404Y-33742380D01*
X207468214Y-33742380D01*
X206944404Y-34742380D02*
X207039642Y-34694761D01*
X207087261Y-34647142D01*
X207134880Y-34551904D01*
X207134880Y-34266190D01*
X207087261Y-34170952D01*
X207039642Y-34123333D01*
X206944404Y-34075714D01*
X206801547Y-34075714D01*
X206706309Y-34123333D01*
X206658690Y-34170952D01*
X206611071Y-34266190D01*
X206611071Y-34551904D01*
X206658690Y-34647142D01*
X206706309Y-34694761D01*
X206801547Y-34742380D01*
X206944404Y-34742380D01*
X206182500Y-34742380D02*
X206182500Y-34075714D01*
X206182500Y-34266190D02*
X206134880Y-34170952D01*
X206087261Y-34123333D01*
X205992023Y-34075714D01*
X205896785Y-34075714D01*
X204896785Y-33742380D02*
X204277738Y-33742380D01*
X204611071Y-34123333D01*
X204468214Y-34123333D01*
X204372976Y-34170952D01*
X204325357Y-34218571D01*
X204277738Y-34313809D01*
X204277738Y-34551904D01*
X204325357Y-34647142D01*
X204372976Y-34694761D01*
X204468214Y-34742380D01*
X204753928Y-34742380D01*
X204849166Y-34694761D01*
X204896785Y-34647142D01*
X203706309Y-34170952D02*
X203801547Y-34123333D01*
X203849166Y-34075714D01*
X203896785Y-33980476D01*
X203896785Y-33932857D01*
X203849166Y-33837619D01*
X203801547Y-33790000D01*
X203706309Y-33742380D01*
X203515833Y-33742380D01*
X203420595Y-33790000D01*
X203372976Y-33837619D01*
X203325357Y-33932857D01*
X203325357Y-33980476D01*
X203372976Y-34075714D01*
X203420595Y-34123333D01*
X203515833Y-34170952D01*
X203706309Y-34170952D01*
X203801547Y-34218571D01*
X203849166Y-34266190D01*
X203896785Y-34361428D01*
X203896785Y-34551904D01*
X203849166Y-34647142D01*
X203801547Y-34694761D01*
X203706309Y-34742380D01*
X203515833Y-34742380D01*
X203420595Y-34694761D01*
X203372976Y-34647142D01*
X203325357Y-34551904D01*
X203325357Y-34361428D01*
X203372976Y-34266190D01*
X203420595Y-34218571D01*
X203515833Y-34170952D01*
X202134880Y-34742380D02*
X202134880Y-33742380D01*
X201753928Y-33742380D01*
X201658690Y-33790000D01*
X201611071Y-33837619D01*
X201563452Y-33932857D01*
X201563452Y-34075714D01*
X201611071Y-34170952D01*
X201658690Y-34218571D01*
X201753928Y-34266190D01*
X202134880Y-34266190D01*
X201134880Y-34742380D02*
X201134880Y-34075714D01*
X201134880Y-33742380D02*
X201182500Y-33790000D01*
X201134880Y-33837619D01*
X201087261Y-33790000D01*
X201134880Y-33742380D01*
X201134880Y-33837619D01*
X200658690Y-34075714D02*
X200658690Y-34742380D01*
X200658690Y-34170952D02*
X200611071Y-34123333D01*
X200515833Y-34075714D01*
X200372976Y-34075714D01*
X200277738Y-34123333D01*
X200230119Y-34218571D01*
X200230119Y-34742380D01*
X198992023Y-34218571D02*
X198658690Y-34218571D01*
X198515833Y-34742380D02*
X198992023Y-34742380D01*
X198992023Y-33742380D01*
X198515833Y-33742380D01*
X198134880Y-34694761D02*
X197992023Y-34742380D01*
X197753928Y-34742380D01*
X197658690Y-34694761D01*
X197611071Y-34647142D01*
X197563452Y-34551904D01*
X197563452Y-34456666D01*
X197611071Y-34361428D01*
X197658690Y-34313809D01*
X197753928Y-34266190D01*
X197944404Y-34218571D01*
X198039642Y-34170952D01*
X198087261Y-34123333D01*
X198134880Y-34028095D01*
X198134880Y-33932857D01*
X198087261Y-33837619D01*
X198039642Y-33790000D01*
X197944404Y-33742380D01*
X197706309Y-33742380D01*
X197563452Y-33790000D01*
X197134880Y-34742380D02*
X197134880Y-33742380D01*
X196753928Y-33742380D01*
X196658690Y-33790000D01*
X196611071Y-33837619D01*
X196563452Y-33932857D01*
X196563452Y-34075714D01*
X196611071Y-34170952D01*
X196658690Y-34218571D01*
X196753928Y-34266190D01*
X197134880Y-34266190D01*
X196230119Y-33742380D02*
X195611071Y-33742380D01*
X195944404Y-34123333D01*
X195801547Y-34123333D01*
X195706309Y-34170952D01*
X195658690Y-34218571D01*
X195611071Y-34313809D01*
X195611071Y-34551904D01*
X195658690Y-34647142D01*
X195706309Y-34694761D01*
X195801547Y-34742380D01*
X196087261Y-34742380D01*
X196182500Y-34694761D01*
X196230119Y-34647142D01*
X195230119Y-33837619D02*
X195182500Y-33790000D01*
X195087261Y-33742380D01*
X194849166Y-33742380D01*
X194753928Y-33790000D01*
X194706309Y-33837619D01*
X194658690Y-33932857D01*
X194658690Y-34028095D01*
X194706309Y-34170952D01*
X195277738Y-34742380D01*
X194658690Y-34742380D01*
X194230119Y-34361428D02*
X193468214Y-34361428D01*
X193039642Y-34694761D02*
X192896785Y-34742380D01*
X192658690Y-34742380D01*
X192563452Y-34694761D01*
X192515833Y-34647142D01*
X192468214Y-34551904D01*
X192468214Y-34456666D01*
X192515833Y-34361428D01*
X192563452Y-34313809D01*
X192658690Y-34266190D01*
X192849166Y-34218571D01*
X192944404Y-34170952D01*
X192992023Y-34123333D01*
X193039642Y-34028095D01*
X193039642Y-33932857D01*
X192992023Y-33837619D01*
X192944404Y-33790000D01*
X192849166Y-33742380D01*
X192611071Y-33742380D01*
X192468214Y-33790000D01*
X139731428Y-99417142D02*
X139779047Y-99464761D01*
X139921904Y-99512380D01*
X140017142Y-99512380D01*
X140160000Y-99464761D01*
X140255238Y-99369523D01*
X140302857Y-99274285D01*
X140350476Y-99083809D01*
X140350476Y-98940952D01*
X140302857Y-98750476D01*
X140255238Y-98655238D01*
X140160000Y-98560000D01*
X140017142Y-98512380D01*
X139921904Y-98512380D01*
X139779047Y-98560000D01*
X139731428Y-98607619D01*
X138731428Y-99512380D02*
X139064761Y-99036190D01*
X139302857Y-99512380D02*
X139302857Y-98512380D01*
X138921904Y-98512380D01*
X138826666Y-98560000D01*
X138779047Y-98607619D01*
X138731428Y-98702857D01*
X138731428Y-98845714D01*
X138779047Y-98940952D01*
X138826666Y-98988571D01*
X138921904Y-99036190D01*
X139302857Y-99036190D01*
X137779047Y-99512380D02*
X138350476Y-99512380D01*
X138064761Y-99512380D02*
X138064761Y-98512380D01*
X138160000Y-98655238D01*
X138255238Y-98750476D01*
X138350476Y-98798095D01*
X137207619Y-98940952D02*
X137302857Y-98893333D01*
X137350476Y-98845714D01*
X137398095Y-98750476D01*
X137398095Y-98702857D01*
X137350476Y-98607619D01*
X137302857Y-98560000D01*
X137207619Y-98512380D01*
X137017142Y-98512380D01*
X136921904Y-98560000D01*
X136874285Y-98607619D01*
X136826666Y-98702857D01*
X136826666Y-98750476D01*
X136874285Y-98845714D01*
X136921904Y-98893333D01*
X137017142Y-98940952D01*
X137207619Y-98940952D01*
X137302857Y-98988571D01*
X137350476Y-99036190D01*
X137398095Y-99131428D01*
X137398095Y-99321904D01*
X137350476Y-99417142D01*
X137302857Y-99464761D01*
X137207619Y-99512380D01*
X137017142Y-99512380D01*
X136921904Y-99464761D01*
X136874285Y-99417142D01*
X136826666Y-99321904D01*
X136826666Y-99131428D01*
X136874285Y-99036190D01*
X136921904Y-98988571D01*
X137017142Y-98940952D01*
X135969523Y-98512380D02*
X136160000Y-98512380D01*
X136255238Y-98560000D01*
X136302857Y-98607619D01*
X136398095Y-98750476D01*
X136445714Y-98940952D01*
X136445714Y-99321904D01*
X136398095Y-99417142D01*
X136350476Y-99464761D01*
X136255238Y-99512380D01*
X136064761Y-99512380D01*
X135969523Y-99464761D01*
X135921904Y-99417142D01*
X135874285Y-99321904D01*
X135874285Y-99083809D01*
X135921904Y-98988571D01*
X135969523Y-98940952D01*
X136064761Y-98893333D01*
X136255238Y-98893333D01*
X136350476Y-98940952D01*
X136398095Y-98988571D01*
X136445714Y-99083809D01*
X134969523Y-98512380D02*
X135445714Y-98512380D01*
X135493333Y-98988571D01*
X135445714Y-98940952D01*
X135350476Y-98893333D01*
X135112380Y-98893333D01*
X135017142Y-98940952D01*
X134969523Y-98988571D01*
X134921904Y-99083809D01*
X134921904Y-99321904D01*
X134969523Y-99417142D01*
X135017142Y-99464761D01*
X135112380Y-99512380D01*
X135350476Y-99512380D01*
X135445714Y-99464761D01*
X135493333Y-99417142D01*
X134302857Y-98512380D02*
X134207619Y-98512380D01*
X134112380Y-98560000D01*
X134064761Y-98607619D01*
X134017142Y-98702857D01*
X133969523Y-98893333D01*
X133969523Y-99131428D01*
X134017142Y-99321904D01*
X134064761Y-99417142D01*
X134112380Y-99464761D01*
X134207619Y-99512380D01*
X134302857Y-99512380D01*
X134398095Y-99464761D01*
X134445714Y-99417142D01*
X134493333Y-99321904D01*
X134540952Y-99131428D01*
X134540952Y-98893333D01*
X134493333Y-98702857D01*
X134445714Y-98607619D01*
X134398095Y-98560000D01*
X134302857Y-98512380D01*
X207944404Y-32202380D02*
X207944404Y-31202380D01*
X207515833Y-32202380D02*
X207515833Y-31678571D01*
X207563452Y-31583333D01*
X207658690Y-31535714D01*
X207801547Y-31535714D01*
X207896785Y-31583333D01*
X207944404Y-31630952D01*
X207182500Y-31535714D02*
X206801547Y-31535714D01*
X207039642Y-31202380D02*
X207039642Y-32059523D01*
X206992023Y-32154761D01*
X206896785Y-32202380D01*
X206801547Y-32202380D01*
X206611071Y-31535714D02*
X206230119Y-31535714D01*
X206468214Y-31202380D02*
X206468214Y-32059523D01*
X206420595Y-32154761D01*
X206325357Y-32202380D01*
X206230119Y-32202380D01*
X205896785Y-31535714D02*
X205896785Y-32535714D01*
X205896785Y-31583333D02*
X205801547Y-31535714D01*
X205611071Y-31535714D01*
X205515833Y-31583333D01*
X205468214Y-31630952D01*
X205420595Y-31726190D01*
X205420595Y-32011904D01*
X205468214Y-32107142D01*
X205515833Y-32154761D01*
X205611071Y-32202380D01*
X205801547Y-32202380D01*
X205896785Y-32154761D01*
X205039642Y-32154761D02*
X204944404Y-32202380D01*
X204753928Y-32202380D01*
X204658690Y-32154761D01*
X204611071Y-32059523D01*
X204611071Y-32011904D01*
X204658690Y-31916666D01*
X204753928Y-31869047D01*
X204896785Y-31869047D01*
X204992023Y-31821428D01*
X205039642Y-31726190D01*
X205039642Y-31678571D01*
X204992023Y-31583333D01*
X204896785Y-31535714D01*
X204753928Y-31535714D01*
X204658690Y-31583333D01*
X204182500Y-32107142D02*
X204134880Y-32154761D01*
X204182500Y-32202380D01*
X204230119Y-32154761D01*
X204182500Y-32107142D01*
X204182500Y-32202380D01*
X204182500Y-31583333D02*
X204134880Y-31630952D01*
X204182500Y-31678571D01*
X204230119Y-31630952D01*
X204182500Y-31583333D01*
X204182500Y-31678571D01*
X202992023Y-31154761D02*
X203849166Y-32440476D01*
X201944404Y-31154761D02*
X202801547Y-32440476D01*
X201753928Y-31535714D02*
X201372976Y-31535714D01*
X201611071Y-31202380D02*
X201611071Y-32059523D01*
X201563452Y-32154761D01*
X201468214Y-32202380D01*
X201372976Y-32202380D01*
X201134880Y-31535714D02*
X200944404Y-32202380D01*
X200753928Y-31726190D01*
X200563452Y-32202380D01*
X200372976Y-31535714D01*
X199849166Y-32202380D02*
X199944404Y-32154761D01*
X199992023Y-32107142D01*
X200039642Y-32011904D01*
X200039642Y-31726190D01*
X199992023Y-31630952D01*
X199944404Y-31583333D01*
X199849166Y-31535714D01*
X199706309Y-31535714D01*
X199611071Y-31583333D01*
X199563452Y-31630952D01*
X199515833Y-31726190D01*
X199515833Y-32011904D01*
X199563452Y-32107142D01*
X199611071Y-32154761D01*
X199706309Y-32202380D01*
X199849166Y-32202380D01*
X199087261Y-32202380D02*
X199087261Y-31202380D01*
X199087261Y-31583333D02*
X198992023Y-31535714D01*
X198801547Y-31535714D01*
X198706309Y-31583333D01*
X198658690Y-31630952D01*
X198611071Y-31726190D01*
X198611071Y-32011904D01*
X198658690Y-32107142D01*
X198706309Y-32154761D01*
X198801547Y-32202380D01*
X198992023Y-32202380D01*
X199087261Y-32154761D01*
X198182500Y-32202380D02*
X198182500Y-31535714D01*
X198182500Y-31202380D02*
X198230119Y-31250000D01*
X198182500Y-31297619D01*
X198134880Y-31250000D01*
X198182500Y-31202380D01*
X198182500Y-31297619D01*
X197849166Y-31535714D02*
X197468214Y-31535714D01*
X197706309Y-31202380D02*
X197706309Y-32059523D01*
X197658690Y-32154761D01*
X197563452Y-32202380D01*
X197468214Y-32202380D01*
X197277738Y-31535714D02*
X196896785Y-31535714D01*
X197134880Y-31202380D02*
X197134880Y-32059523D01*
X197087261Y-32154761D01*
X196992023Y-32202380D01*
X196896785Y-32202380D01*
X196563452Y-32202380D02*
X196563452Y-31535714D01*
X196563452Y-31202380D02*
X196611071Y-31250000D01*
X196563452Y-31297619D01*
X196515833Y-31250000D01*
X196563452Y-31202380D01*
X196563452Y-31297619D01*
X196087261Y-31535714D02*
X196087261Y-32202380D01*
X196087261Y-31630952D02*
X196039642Y-31583333D01*
X195944404Y-31535714D01*
X195801547Y-31535714D01*
X195706309Y-31583333D01*
X195658690Y-31678571D01*
X195658690Y-32202380D01*
X195182500Y-32202380D02*
X195182500Y-31202380D01*
X195087261Y-31821428D02*
X194801547Y-32202380D01*
X194801547Y-31535714D02*
X195182500Y-31916666D01*
X193992023Y-32154761D02*
X194087261Y-32202380D01*
X194277738Y-32202380D01*
X194372976Y-32154761D01*
X194420595Y-32059523D01*
X194420595Y-31678571D01*
X194372976Y-31583333D01*
X194277738Y-31535714D01*
X194087261Y-31535714D01*
X193992023Y-31583333D01*
X193944404Y-31678571D01*
X193944404Y-31773809D01*
X194420595Y-31869047D01*
X193515833Y-32202380D02*
X193515833Y-31535714D01*
X193515833Y-31726190D02*
X193468214Y-31630952D01*
X193420595Y-31583333D01*
X193325357Y-31535714D01*
X193230119Y-31535714D01*
X192896785Y-32107142D02*
X192849166Y-32154761D01*
X192896785Y-32202380D01*
X192944404Y-32154761D01*
X192896785Y-32107142D01*
X192896785Y-32202380D01*
X191992023Y-32154761D02*
X192087261Y-32202380D01*
X192277738Y-32202380D01*
X192372976Y-32154761D01*
X192420595Y-32107142D01*
X192468214Y-32011904D01*
X192468214Y-31726190D01*
X192420595Y-31630952D01*
X192372976Y-31583333D01*
X192277738Y-31535714D01*
X192087261Y-31535714D01*
X191992023Y-31583333D01*
X191420595Y-32202380D02*
X191515833Y-32154761D01*
X191563452Y-32107142D01*
X191611071Y-32011904D01*
X191611071Y-31726190D01*
X191563452Y-31630952D01*
X191515833Y-31583333D01*
X191420595Y-31535714D01*
X191277738Y-31535714D01*
X191182500Y-31583333D01*
X191134880Y-31630952D01*
X191087261Y-31726190D01*
X191087261Y-32011904D01*
X191134880Y-32107142D01*
X191182500Y-32154761D01*
X191277738Y-32202380D01*
X191420595Y-32202380D01*
X190658690Y-32202380D02*
X190658690Y-31535714D01*
X190658690Y-31630952D02*
X190611071Y-31583333D01*
X190515833Y-31535714D01*
X190372976Y-31535714D01*
X190277738Y-31583333D01*
X190230119Y-31678571D01*
X190230119Y-32202380D01*
X190230119Y-31678571D02*
X190182500Y-31583333D01*
X190087261Y-31535714D01*
X189944404Y-31535714D01*
X189849166Y-31583333D01*
X189801547Y-31678571D01*
X189801547Y-32202380D01*
X124097714Y-72098857D02*
X123597714Y-72098857D01*
X123383428Y-72884571D02*
X124097714Y-72884571D01*
X124097714Y-71384571D01*
X123383428Y-71384571D01*
X122812000Y-72813142D02*
X122597714Y-72884571D01*
X122240571Y-72884571D01*
X122097714Y-72813142D01*
X122026285Y-72741714D01*
X121954857Y-72598857D01*
X121954857Y-72456000D01*
X122026285Y-72313142D01*
X122097714Y-72241714D01*
X122240571Y-72170285D01*
X122526285Y-72098857D01*
X122669142Y-72027428D01*
X122740571Y-71956000D01*
X122812000Y-71813142D01*
X122812000Y-71670285D01*
X122740571Y-71527428D01*
X122669142Y-71456000D01*
X122526285Y-71384571D01*
X122169142Y-71384571D01*
X121954857Y-71456000D01*
X121312000Y-72884571D02*
X121312000Y-71384571D01*
X120740571Y-71384571D01*
X120597714Y-71456000D01*
X120526285Y-71527428D01*
X120454857Y-71670285D01*
X120454857Y-71884571D01*
X120526285Y-72027428D01*
X120597714Y-72098857D01*
X120740571Y-72170285D01*
X121312000Y-72170285D01*
X119954857Y-71384571D02*
X119026285Y-71384571D01*
X119526285Y-71956000D01*
X119312000Y-71956000D01*
X119169142Y-72027428D01*
X119097714Y-72098857D01*
X119026285Y-72241714D01*
X119026285Y-72598857D01*
X119097714Y-72741714D01*
X119169142Y-72813142D01*
X119312000Y-72884571D01*
X119740571Y-72884571D01*
X119883428Y-72813142D01*
X119954857Y-72741714D01*
X118454857Y-71527428D02*
X118383428Y-71456000D01*
X118240571Y-71384571D01*
X117883428Y-71384571D01*
X117740571Y-71456000D01*
X117669142Y-71527428D01*
X117597714Y-71670285D01*
X117597714Y-71813142D01*
X117669142Y-72027428D01*
X118526285Y-72884571D01*
X117597714Y-72884571D01*
X114954857Y-72884571D02*
X115454857Y-72170285D01*
X115812000Y-72884571D02*
X115812000Y-71384571D01*
X115240571Y-71384571D01*
X115097714Y-71456000D01*
X115026285Y-71527428D01*
X114954857Y-71670285D01*
X114954857Y-71884571D01*
X115026285Y-72027428D01*
X115097714Y-72098857D01*
X115240571Y-72170285D01*
X115812000Y-72170285D01*
X113669142Y-71884571D02*
X113669142Y-72884571D01*
X114026285Y-71313142D02*
X114383428Y-72384571D01*
X113454857Y-72384571D01*
X112240571Y-71884571D02*
X112240571Y-73098857D01*
X112312000Y-73241714D01*
X112383428Y-73313142D01*
X112526285Y-73384571D01*
X112740571Y-73384571D01*
X112883428Y-73313142D01*
X112240571Y-72813142D02*
X112383428Y-72884571D01*
X112669142Y-72884571D01*
X112812000Y-72813142D01*
X112883428Y-72741714D01*
X112954857Y-72598857D01*
X112954857Y-72170285D01*
X112883428Y-72027428D01*
X112812000Y-71956000D01*
X112669142Y-71884571D01*
X112383428Y-71884571D01*
X112240571Y-71956000D01*
X110954857Y-72813142D02*
X111097714Y-72884571D01*
X111383428Y-72884571D01*
X111526285Y-72813142D01*
X111597714Y-72670285D01*
X111597714Y-72098857D01*
X111526285Y-71956000D01*
X111383428Y-71884571D01*
X111097714Y-71884571D01*
X110954857Y-71956000D01*
X110883428Y-72098857D01*
X110883428Y-72241714D01*
X111597714Y-72384571D01*
X109097714Y-72884571D02*
X109097714Y-71384571D01*
X108526285Y-71384571D01*
X108383428Y-71456000D01*
X108312000Y-71527428D01*
X108240571Y-71670285D01*
X108240571Y-71884571D01*
X108312000Y-72027428D01*
X108383428Y-72098857D01*
X108526285Y-72170285D01*
X109097714Y-72170285D01*
X107597714Y-72884571D02*
X107597714Y-71884571D01*
X107597714Y-72170285D02*
X107526285Y-72027428D01*
X107454857Y-71956000D01*
X107312000Y-71884571D01*
X107169142Y-71884571D01*
X106454857Y-72884571D02*
X106597714Y-72813142D01*
X106669142Y-72741714D01*
X106740571Y-72598857D01*
X106740571Y-72170285D01*
X106669142Y-72027428D01*
X106597714Y-71956000D01*
X106454857Y-71884571D01*
X106240571Y-71884571D01*
X106097714Y-71956000D01*
X106026285Y-72027428D01*
X105954857Y-72170285D01*
X105954857Y-72598857D01*
X106026285Y-72741714D01*
X106097714Y-72813142D01*
X106240571Y-72884571D01*
X106454857Y-72884571D01*
X125562000Y-73784571D02*
X125204857Y-75284571D01*
X124919142Y-74213142D01*
X124633428Y-75284571D01*
X124276285Y-73784571D01*
X123704857Y-75284571D02*
X123704857Y-74284571D01*
X123704857Y-73784571D02*
X123776285Y-73856000D01*
X123704857Y-73927428D01*
X123633428Y-73856000D01*
X123704857Y-73784571D01*
X123704857Y-73927428D01*
X122990571Y-75284571D02*
X122990571Y-74284571D01*
X122990571Y-74570285D02*
X122919142Y-74427428D01*
X122847714Y-74356000D01*
X122704857Y-74284571D01*
X122562000Y-74284571D01*
X121490571Y-75213142D02*
X121633428Y-75284571D01*
X121919142Y-75284571D01*
X122062000Y-75213142D01*
X122133428Y-75070285D01*
X122133428Y-74498857D01*
X122062000Y-74356000D01*
X121919142Y-74284571D01*
X121633428Y-74284571D01*
X121490571Y-74356000D01*
X121419142Y-74498857D01*
X121419142Y-74641714D01*
X122133428Y-74784571D01*
X120562000Y-75284571D02*
X120704857Y-75213142D01*
X120776285Y-75070285D01*
X120776285Y-73784571D01*
X119419142Y-75213142D02*
X119562000Y-75284571D01*
X119847714Y-75284571D01*
X119990571Y-75213142D01*
X120062000Y-75070285D01*
X120062000Y-74498857D01*
X119990571Y-74356000D01*
X119847714Y-74284571D01*
X119562000Y-74284571D01*
X119419142Y-74356000D01*
X119347714Y-74498857D01*
X119347714Y-74641714D01*
X120062000Y-74784571D01*
X118776285Y-75213142D02*
X118633428Y-75284571D01*
X118347714Y-75284571D01*
X118204857Y-75213142D01*
X118133428Y-75070285D01*
X118133428Y-74998857D01*
X118204857Y-74856000D01*
X118347714Y-74784571D01*
X118562000Y-74784571D01*
X118704857Y-74713142D01*
X118776285Y-74570285D01*
X118776285Y-74498857D01*
X118704857Y-74356000D01*
X118562000Y-74284571D01*
X118347714Y-74284571D01*
X118204857Y-74356000D01*
X117562000Y-75213142D02*
X117419142Y-75284571D01*
X117133428Y-75284571D01*
X116990571Y-75213142D01*
X116919142Y-75070285D01*
X116919142Y-74998857D01*
X116990571Y-74856000D01*
X117133428Y-74784571D01*
X117347714Y-74784571D01*
X117490571Y-74713142D01*
X117562000Y-74570285D01*
X117562000Y-74498857D01*
X117490571Y-74356000D01*
X117347714Y-74284571D01*
X117133428Y-74284571D01*
X116990571Y-74356000D01*
X114276285Y-75141714D02*
X114347714Y-75213142D01*
X114562000Y-75284571D01*
X114704857Y-75284571D01*
X114919142Y-75213142D01*
X115062000Y-75070285D01*
X115133428Y-74927428D01*
X115204857Y-74641714D01*
X115204857Y-74427428D01*
X115133428Y-74141714D01*
X115062000Y-73998857D01*
X114919142Y-73856000D01*
X114704857Y-73784571D01*
X114562000Y-73784571D01*
X114347714Y-73856000D01*
X114276285Y-73927428D01*
X113419142Y-75284571D02*
X113562000Y-75213142D01*
X113633428Y-75141714D01*
X113704857Y-74998857D01*
X113704857Y-74570285D01*
X113633428Y-74427428D01*
X113562000Y-74356000D01*
X113419142Y-74284571D01*
X113204857Y-74284571D01*
X113062000Y-74356000D01*
X112990571Y-74427428D01*
X112919142Y-74570285D01*
X112919142Y-74998857D01*
X112990571Y-75141714D01*
X113062000Y-75213142D01*
X113204857Y-75284571D01*
X113419142Y-75284571D01*
X112276285Y-74284571D02*
X112276285Y-75284571D01*
X112276285Y-74427428D02*
X112204857Y-74356000D01*
X112062000Y-74284571D01*
X111847714Y-74284571D01*
X111704857Y-74356000D01*
X111633428Y-74498857D01*
X111633428Y-75284571D01*
X111133428Y-74284571D02*
X110562000Y-74284571D01*
X110919142Y-73784571D02*
X110919142Y-75070285D01*
X110847714Y-75213142D01*
X110704857Y-75284571D01*
X110562000Y-75284571D01*
X110062000Y-75284571D02*
X110062000Y-74284571D01*
X110062000Y-74570285D02*
X109990571Y-74427428D01*
X109919142Y-74356000D01*
X109776285Y-74284571D01*
X109633428Y-74284571D01*
X108919142Y-75284571D02*
X109062000Y-75213142D01*
X109133428Y-75141714D01*
X109204857Y-74998857D01*
X109204857Y-74570285D01*
X109133428Y-74427428D01*
X109062000Y-74356000D01*
X108919142Y-74284571D01*
X108704857Y-74284571D01*
X108562000Y-74356000D01*
X108490571Y-74427428D01*
X108419142Y-74570285D01*
X108419142Y-74998857D01*
X108490571Y-75141714D01*
X108562000Y-75213142D01*
X108704857Y-75284571D01*
X108919142Y-75284571D01*
X107562000Y-75284571D02*
X107704857Y-75213142D01*
X107776285Y-75070285D01*
X107776285Y-73784571D01*
X106776285Y-75284571D02*
X106919142Y-75213142D01*
X106990571Y-75070285D01*
X106990571Y-73784571D01*
X105633428Y-75213142D02*
X105776285Y-75284571D01*
X106062000Y-75284571D01*
X106204857Y-75213142D01*
X106276285Y-75070285D01*
X106276285Y-74498857D01*
X106204857Y-74356000D01*
X106062000Y-74284571D01*
X105776285Y-74284571D01*
X105633428Y-74356000D01*
X105562000Y-74498857D01*
X105562000Y-74641714D01*
X106276285Y-74784571D01*
X104919142Y-75284571D02*
X104919142Y-74284571D01*
X104919142Y-74570285D02*
X104847714Y-74427428D01*
X104776285Y-74356000D01*
X104633428Y-74284571D01*
X104490571Y-74284571D01*
X207944404Y-29662380D02*
X207944404Y-28662380D01*
X207706309Y-28662380D01*
X207563452Y-28710000D01*
X207468214Y-28805238D01*
X207420595Y-28900476D01*
X207372976Y-29090952D01*
X207372976Y-29233809D01*
X207420595Y-29424285D01*
X207468214Y-29519523D01*
X207563452Y-29614761D01*
X207706309Y-29662380D01*
X207944404Y-29662380D01*
X206563452Y-29614761D02*
X206658690Y-29662380D01*
X206849166Y-29662380D01*
X206944404Y-29614761D01*
X206992023Y-29519523D01*
X206992023Y-29138571D01*
X206944404Y-29043333D01*
X206849166Y-28995714D01*
X206658690Y-28995714D01*
X206563452Y-29043333D01*
X206515833Y-29138571D01*
X206515833Y-29233809D01*
X206992023Y-29329047D01*
X206134880Y-29614761D02*
X206039642Y-29662380D01*
X205849166Y-29662380D01*
X205753928Y-29614761D01*
X205706309Y-29519523D01*
X205706309Y-29471904D01*
X205753928Y-29376666D01*
X205849166Y-29329047D01*
X205992023Y-29329047D01*
X206087261Y-29281428D01*
X206134880Y-29186190D01*
X206134880Y-29138571D01*
X206087261Y-29043333D01*
X205992023Y-28995714D01*
X205849166Y-28995714D01*
X205753928Y-29043333D01*
X205277738Y-29662380D02*
X205277738Y-28995714D01*
X205277738Y-28662380D02*
X205325357Y-28710000D01*
X205277738Y-28757619D01*
X205230119Y-28710000D01*
X205277738Y-28662380D01*
X205277738Y-28757619D01*
X204372976Y-28995714D02*
X204372976Y-29805238D01*
X204420595Y-29900476D01*
X204468214Y-29948095D01*
X204563452Y-29995714D01*
X204706309Y-29995714D01*
X204801547Y-29948095D01*
X204372976Y-29614761D02*
X204468214Y-29662380D01*
X204658690Y-29662380D01*
X204753928Y-29614761D01*
X204801547Y-29567142D01*
X204849166Y-29471904D01*
X204849166Y-29186190D01*
X204801547Y-29090952D01*
X204753928Y-29043333D01*
X204658690Y-28995714D01*
X204468214Y-28995714D01*
X204372976Y-29043333D01*
X203896785Y-28995714D02*
X203896785Y-29662380D01*
X203896785Y-29090952D02*
X203849166Y-29043333D01*
X203753928Y-28995714D01*
X203611071Y-28995714D01*
X203515833Y-29043333D01*
X203468214Y-29138571D01*
X203468214Y-29662380D01*
X202611071Y-29614761D02*
X202706309Y-29662380D01*
X202896785Y-29662380D01*
X202992023Y-29614761D01*
X203039642Y-29519523D01*
X203039642Y-29138571D01*
X202992023Y-29043333D01*
X202896785Y-28995714D01*
X202706309Y-28995714D01*
X202611071Y-29043333D01*
X202563452Y-29138571D01*
X202563452Y-29233809D01*
X203039642Y-29329047D01*
X201706309Y-29662380D02*
X201706309Y-28662380D01*
X201706309Y-29614761D02*
X201801547Y-29662380D01*
X201992023Y-29662380D01*
X202087261Y-29614761D01*
X202134880Y-29567142D01*
X202182500Y-29471904D01*
X202182500Y-29186190D01*
X202134880Y-29090952D01*
X202087261Y-29043333D01*
X201992023Y-28995714D01*
X201801547Y-28995714D01*
X201706309Y-29043333D01*
X200468214Y-29662380D02*
X200468214Y-28662380D01*
X200468214Y-29043333D02*
X200372976Y-28995714D01*
X200182500Y-28995714D01*
X200087261Y-29043333D01*
X200039642Y-29090952D01*
X199992023Y-29186190D01*
X199992023Y-29471904D01*
X200039642Y-29567142D01*
X200087261Y-29614761D01*
X200182500Y-29662380D01*
X200372976Y-29662380D01*
X200468214Y-29614761D01*
X199658690Y-28995714D02*
X199420595Y-29662380D01*
X199182500Y-28995714D02*
X199420595Y-29662380D01*
X199515833Y-29900476D01*
X199563452Y-29948095D01*
X199658690Y-29995714D01*
X198039642Y-29662380D02*
X198039642Y-28662380D01*
X197658690Y-28662380D01*
X197563452Y-28710000D01*
X197515833Y-28757619D01*
X197468214Y-28852857D01*
X197468214Y-28995714D01*
X197515833Y-29090952D01*
X197563452Y-29138571D01*
X197658690Y-29186190D01*
X198039642Y-29186190D01*
X196611071Y-29662380D02*
X196611071Y-29138571D01*
X196658690Y-29043333D01*
X196753928Y-28995714D01*
X196944404Y-28995714D01*
X197039642Y-29043333D01*
X196611071Y-29614761D02*
X196706309Y-29662380D01*
X196944404Y-29662380D01*
X197039642Y-29614761D01*
X197087261Y-29519523D01*
X197087261Y-29424285D01*
X197039642Y-29329047D01*
X196944404Y-29281428D01*
X196706309Y-29281428D01*
X196611071Y-29233809D01*
X195706309Y-28995714D02*
X195706309Y-29662380D01*
X196134880Y-28995714D02*
X196134880Y-29519523D01*
X196087261Y-29614761D01*
X195992023Y-29662380D01*
X195849166Y-29662380D01*
X195753928Y-29614761D01*
X195706309Y-29567142D01*
X195087261Y-29662380D02*
X195182500Y-29614761D01*
X195230119Y-29519523D01*
X195230119Y-28662380D01*
X193944404Y-29662380D02*
X193944404Y-28662380D01*
X193563452Y-28662380D01*
X193468214Y-28710000D01*
X193420595Y-28757619D01*
X193372976Y-28852857D01*
X193372976Y-28995714D01*
X193420595Y-29090952D01*
X193468214Y-29138571D01*
X193563452Y-29186190D01*
X193944404Y-29186190D01*
X192515833Y-29662380D02*
X192515833Y-29138571D01*
X192563452Y-29043333D01*
X192658690Y-28995714D01*
X192849166Y-28995714D01*
X192944404Y-29043333D01*
X192515833Y-29614761D02*
X192611071Y-29662380D01*
X192849166Y-29662380D01*
X192944404Y-29614761D01*
X192992023Y-29519523D01*
X192992023Y-29424285D01*
X192944404Y-29329047D01*
X192849166Y-29281428D01*
X192611071Y-29281428D01*
X192515833Y-29233809D01*
X191611071Y-28995714D02*
X191611071Y-29805238D01*
X191658690Y-29900476D01*
X191706309Y-29948095D01*
X191801547Y-29995714D01*
X191944404Y-29995714D01*
X192039642Y-29948095D01*
X191611071Y-29614761D02*
X191706309Y-29662380D01*
X191896785Y-29662380D01*
X191992023Y-29614761D01*
X192039642Y-29567142D01*
X192087261Y-29471904D01*
X192087261Y-29186190D01*
X192039642Y-29090952D01*
X191992023Y-29043333D01*
X191896785Y-28995714D01*
X191706309Y-28995714D01*
X191611071Y-29043333D01*
X190753928Y-29614761D02*
X190849166Y-29662380D01*
X191039642Y-29662380D01*
X191134880Y-29614761D01*
X191182500Y-29519523D01*
X191182500Y-29138571D01*
X191134880Y-29043333D01*
X191039642Y-28995714D01*
X190849166Y-28995714D01*
X190753928Y-29043333D01*
X190706309Y-29138571D01*
X190706309Y-29233809D01*
X191182500Y-29329047D01*
X190134880Y-29662380D02*
X190230119Y-29614761D01*
X190277738Y-29519523D01*
X190277738Y-28662380D01*
X180467142Y-96734285D02*
X182752857Y-96734285D01*
X95377142Y-96734285D02*
X97662857Y-96734285D01*
X96520000Y-97877142D02*
X96520000Y-95591428D01*
D11*
G36*
X170356650Y-69607040D02*
G01*
X170321854Y-69639248D01*
X170267435Y-69691253D01*
X170194763Y-69761684D01*
X170105210Y-69849172D01*
X170000145Y-69952346D01*
X169880938Y-70069836D01*
X169748961Y-70200270D01*
X169605583Y-70342280D01*
X169452174Y-70494495D01*
X169290106Y-70655543D01*
X169120747Y-70824056D01*
X168945470Y-70998662D01*
X168765643Y-71177991D01*
X168582637Y-71360673D01*
X168397823Y-71545338D01*
X168212571Y-71730615D01*
X168028251Y-71915134D01*
X167846233Y-72097524D01*
X167667888Y-72276415D01*
X167494586Y-72450437D01*
X167327697Y-72618220D01*
X167168593Y-72778393D01*
X167018642Y-72929585D01*
X166879215Y-73070427D01*
X166751684Y-73199548D01*
X166637417Y-73315578D01*
X166537785Y-73417146D01*
X166454159Y-73502882D01*
X166387909Y-73571415D01*
X166340405Y-73621376D01*
X166313018Y-73651394D01*
X166306500Y-73660046D01*
X166317541Y-73673850D01*
X166349749Y-73708646D01*
X166401754Y-73763065D01*
X166472185Y-73835737D01*
X166559673Y-73925290D01*
X166662847Y-74030355D01*
X166780337Y-74149562D01*
X166910771Y-74281539D01*
X167052781Y-74424917D01*
X167204996Y-74578326D01*
X167366044Y-74740394D01*
X167534557Y-74909753D01*
X167709163Y-75085030D01*
X167888492Y-75264857D01*
X168071174Y-75447863D01*
X168255839Y-75632677D01*
X168441116Y-75817929D01*
X168625635Y-76002249D01*
X168808025Y-76184267D01*
X168986916Y-76362612D01*
X169160938Y-76535914D01*
X169328721Y-76702803D01*
X169488894Y-76861907D01*
X169640086Y-77011858D01*
X169780928Y-77151285D01*
X169910049Y-77278816D01*
X170026079Y-77393083D01*
X170127647Y-77492715D01*
X170213383Y-77576341D01*
X170281916Y-77642591D01*
X170331877Y-77690095D01*
X170361895Y-77717482D01*
X170370547Y-77724000D01*
X170384091Y-77712946D01*
X170418920Y-77680536D01*
X170473898Y-77627889D01*
X170547890Y-77556130D01*
X170639760Y-77466381D01*
X170748373Y-77359764D01*
X170872592Y-77237402D01*
X171011282Y-77100416D01*
X171163307Y-76949931D01*
X171327532Y-76787068D01*
X171502820Y-76612949D01*
X171688037Y-76428698D01*
X171882046Y-76235437D01*
X172083712Y-76034288D01*
X172291898Y-75826374D01*
X172414430Y-75703882D01*
X172625729Y-75492448D01*
X172830911Y-75286880D01*
X173028852Y-75088314D01*
X173218429Y-74897886D01*
X173398522Y-74716731D01*
X173568006Y-74545986D01*
X173725761Y-74386786D01*
X173870662Y-74240267D01*
X174001588Y-74107564D01*
X174117416Y-73989813D01*
X174217023Y-73888151D01*
X174299288Y-73803712D01*
X174363088Y-73737633D01*
X174407300Y-73691049D01*
X174430801Y-73665096D01*
X174434500Y-73659953D01*
X174423460Y-73646149D01*
X174391252Y-73611353D01*
X174339247Y-73556934D01*
X174268816Y-73484262D01*
X174181328Y-73394709D01*
X174078154Y-73289644D01*
X173960664Y-73170437D01*
X173830230Y-73038460D01*
X173688220Y-72895082D01*
X173536005Y-72741673D01*
X173374957Y-72579605D01*
X173206444Y-72410246D01*
X173031838Y-72234969D01*
X172852509Y-72055142D01*
X172669827Y-71872136D01*
X172489337Y-71691500D01*
X171958000Y-71691500D01*
X171958000Y-71746938D01*
X171950457Y-71786059D01*
X171927551Y-71849089D01*
X171888868Y-71937033D01*
X171833992Y-72050899D01*
X171827255Y-72064438D01*
X171696509Y-72326500D01*
X171386500Y-72326500D01*
X171386500Y-74993500D01*
X171696509Y-74993500D01*
X171827255Y-75255561D01*
X171883859Y-75372215D01*
X171924228Y-75462841D01*
X171948776Y-75528447D01*
X171957918Y-75570038D01*
X171958000Y-75573061D01*
X171958000Y-75628500D01*
X168783000Y-75628500D01*
X168783000Y-75573061D01*
X168790544Y-75533940D01*
X168813450Y-75470910D01*
X168852133Y-75382966D01*
X168907009Y-75269100D01*
X168913746Y-75255561D01*
X169044492Y-74993500D01*
X169354500Y-74993500D01*
X169354500Y-72326500D01*
X169044492Y-72326500D01*
X168913746Y-72064438D01*
X168857142Y-71947784D01*
X168816773Y-71857158D01*
X168792225Y-71791552D01*
X168783083Y-71749961D01*
X168783000Y-71746938D01*
X168783000Y-71691500D01*
X171958000Y-71691500D01*
X172489337Y-71691500D01*
X172485162Y-71687322D01*
X172299885Y-71502070D01*
X172115366Y-71317750D01*
X171932976Y-71135732D01*
X171754085Y-70957387D01*
X171580063Y-70784085D01*
X171412280Y-70617196D01*
X171252107Y-70458092D01*
X171100915Y-70308141D01*
X170960073Y-70168714D01*
X170830952Y-70041183D01*
X170714922Y-69926916D01*
X170613354Y-69827284D01*
X170527618Y-69743658D01*
X170459085Y-69677408D01*
X170409124Y-69629904D01*
X170379106Y-69602517D01*
X170370454Y-69596000D01*
X170356650Y-69607040D01*
G37*
X170356650Y-69607040D02*
X170321854Y-69639248D01*
X170267435Y-69691253D01*
X170194763Y-69761684D01*
X170105210Y-69849172D01*
X170000145Y-69952346D01*
X169880938Y-70069836D01*
X169748961Y-70200270D01*
X169605583Y-70342280D01*
X169452174Y-70494495D01*
X169290106Y-70655543D01*
X169120747Y-70824056D01*
X168945470Y-70998662D01*
X168765643Y-71177991D01*
X168582637Y-71360673D01*
X168397823Y-71545338D01*
X168212571Y-71730615D01*
X168028251Y-71915134D01*
X167846233Y-72097524D01*
X167667888Y-72276415D01*
X167494586Y-72450437D01*
X167327697Y-72618220D01*
X167168593Y-72778393D01*
X167018642Y-72929585D01*
X166879215Y-73070427D01*
X166751684Y-73199548D01*
X166637417Y-73315578D01*
X166537785Y-73417146D01*
X166454159Y-73502882D01*
X166387909Y-73571415D01*
X166340405Y-73621376D01*
X166313018Y-73651394D01*
X166306500Y-73660046D01*
X166317541Y-73673850D01*
X166349749Y-73708646D01*
X166401754Y-73763065D01*
X166472185Y-73835737D01*
X166559673Y-73925290D01*
X166662847Y-74030355D01*
X166780337Y-74149562D01*
X166910771Y-74281539D01*
X167052781Y-74424917D01*
X167204996Y-74578326D01*
X167366044Y-74740394D01*
X167534557Y-74909753D01*
X167709163Y-75085030D01*
X167888492Y-75264857D01*
X168071174Y-75447863D01*
X168255839Y-75632677D01*
X168441116Y-75817929D01*
X168625635Y-76002249D01*
X168808025Y-76184267D01*
X168986916Y-76362612D01*
X169160938Y-76535914D01*
X169328721Y-76702803D01*
X169488894Y-76861907D01*
X169640086Y-77011858D01*
X169780928Y-77151285D01*
X169910049Y-77278816D01*
X170026079Y-77393083D01*
X170127647Y-77492715D01*
X170213383Y-77576341D01*
X170281916Y-77642591D01*
X170331877Y-77690095D01*
X170361895Y-77717482D01*
X170370547Y-77724000D01*
X170384091Y-77712946D01*
X170418920Y-77680536D01*
X170473898Y-77627889D01*
X170547890Y-77556130D01*
X170639760Y-77466381D01*
X170748373Y-77359764D01*
X170872592Y-77237402D01*
X171011282Y-77100416D01*
X171163307Y-76949931D01*
X171327532Y-76787068D01*
X171502820Y-76612949D01*
X171688037Y-76428698D01*
X171882046Y-76235437D01*
X172083712Y-76034288D01*
X172291898Y-75826374D01*
X172414430Y-75703882D01*
X172625729Y-75492448D01*
X172830911Y-75286880D01*
X173028852Y-75088314D01*
X173218429Y-74897886D01*
X173398522Y-74716731D01*
X173568006Y-74545986D01*
X173725761Y-74386786D01*
X173870662Y-74240267D01*
X174001588Y-74107564D01*
X174117416Y-73989813D01*
X174217023Y-73888151D01*
X174299288Y-73803712D01*
X174363088Y-73737633D01*
X174407300Y-73691049D01*
X174430801Y-73665096D01*
X174434500Y-73659953D01*
X174423460Y-73646149D01*
X174391252Y-73611353D01*
X174339247Y-73556934D01*
X174268816Y-73484262D01*
X174181328Y-73394709D01*
X174078154Y-73289644D01*
X173960664Y-73170437D01*
X173830230Y-73038460D01*
X173688220Y-72895082D01*
X173536005Y-72741673D01*
X173374957Y-72579605D01*
X173206444Y-72410246D01*
X173031838Y-72234969D01*
X172852509Y-72055142D01*
X172669827Y-71872136D01*
X172489337Y-71691500D01*
X171958000Y-71691500D01*
X171958000Y-71746938D01*
X171950457Y-71786059D01*
X171927551Y-71849089D01*
X171888868Y-71937033D01*
X171833992Y-72050899D01*
X171827255Y-72064438D01*
X171696509Y-72326500D01*
X171386500Y-72326500D01*
X171386500Y-74993500D01*
X171696509Y-74993500D01*
X171827255Y-75255561D01*
X171883859Y-75372215D01*
X171924228Y-75462841D01*
X171948776Y-75528447D01*
X171957918Y-75570038D01*
X171958000Y-75573061D01*
X171958000Y-75628500D01*
X168783000Y-75628500D01*
X168783000Y-75573061D01*
X168790544Y-75533940D01*
X168813450Y-75470910D01*
X168852133Y-75382966D01*
X168907009Y-75269100D01*
X168913746Y-75255561D01*
X169044492Y-74993500D01*
X169354500Y-74993500D01*
X169354500Y-72326500D01*
X169044492Y-72326500D01*
X168913746Y-72064438D01*
X168857142Y-71947784D01*
X168816773Y-71857158D01*
X168792225Y-71791552D01*
X168783083Y-71749961D01*
X168783000Y-71746938D01*
X168783000Y-71691500D01*
X171958000Y-71691500D01*
X172489337Y-71691500D01*
X172485162Y-71687322D01*
X172299885Y-71502070D01*
X172115366Y-71317750D01*
X171932976Y-71135732D01*
X171754085Y-70957387D01*
X171580063Y-70784085D01*
X171412280Y-70617196D01*
X171252107Y-70458092D01*
X171100915Y-70308141D01*
X170960073Y-70168714D01*
X170830952Y-70041183D01*
X170714922Y-69926916D01*
X170613354Y-69827284D01*
X170527618Y-69743658D01*
X170459085Y-69677408D01*
X170409124Y-69629904D01*
X170379106Y-69602517D01*
X170370454Y-69596000D01*
X170356650Y-69607040D01*
G36*
X163611393Y-70105752D02*
G01*
X163526500Y-70106522D01*
X163459993Y-70107772D01*
X163409643Y-70109551D01*
X163373223Y-70111909D01*
X163348507Y-70114897D01*
X163333266Y-70118565D01*
X163325273Y-70122963D01*
X163322302Y-70128141D01*
X163322000Y-70131355D01*
X163332824Y-70150884D01*
X163363015Y-70188673D01*
X163409149Y-70240872D01*
X163467806Y-70303633D01*
X163535562Y-70373108D01*
X163548418Y-70385986D01*
X163774835Y-70612000D01*
X164374550Y-70612000D01*
X164528956Y-70612073D01*
X164654919Y-70612402D01*
X164755749Y-70613143D01*
X164834753Y-70614459D01*
X164895239Y-70616507D01*
X164940515Y-70619449D01*
X164973889Y-70623442D01*
X164998670Y-70628648D01*
X165018165Y-70635226D01*
X165035682Y-70643334D01*
X165036919Y-70643963D01*
X165100934Y-70693752D01*
X165131537Y-70738581D01*
X165135509Y-70746739D01*
X165139138Y-70755884D01*
X165142439Y-70767421D01*
X165145427Y-70782753D01*
X165148119Y-70803284D01*
X165150529Y-70830420D01*
X165152673Y-70865564D01*
X165154567Y-70910122D01*
X165156226Y-70965496D01*
X165157666Y-71033092D01*
X165158902Y-71114313D01*
X165159950Y-71210565D01*
X165160825Y-71323252D01*
X165161543Y-71453777D01*
X165162120Y-71603546D01*
X165162571Y-71773962D01*
X165162911Y-71966430D01*
X165163156Y-72182354D01*
X165163322Y-72423139D01*
X165163423Y-72690189D01*
X165163477Y-72984909D01*
X165163497Y-73308702D01*
X165163500Y-73628249D01*
X165163496Y-73979588D01*
X165163473Y-74300582D01*
X165163416Y-74592634D01*
X165163309Y-74857149D01*
X165163136Y-75095531D01*
X165162883Y-75309185D01*
X165162533Y-75499515D01*
X165162071Y-75667926D01*
X165161482Y-75815821D01*
X165160750Y-75944606D01*
X165159859Y-76055683D01*
X165158794Y-76150459D01*
X165157539Y-76230337D01*
X165156079Y-76296721D01*
X165154399Y-76351016D01*
X165152482Y-76394626D01*
X165150313Y-76428956D01*
X165147877Y-76455409D01*
X165145158Y-76475391D01*
X165142141Y-76490305D01*
X165138810Y-76501557D01*
X165135150Y-76510549D01*
X165131537Y-76517918D01*
X165081748Y-76581933D01*
X165036919Y-76612536D01*
X165018941Y-76620964D01*
X164999179Y-76627767D01*
X164974214Y-76633119D01*
X164940629Y-76637194D01*
X164895007Y-76640163D01*
X164833930Y-76642201D01*
X164753980Y-76643480D01*
X164651741Y-76644174D01*
X164523795Y-76644455D01*
X164405921Y-76644500D01*
X163837577Y-76644500D01*
X163579789Y-76902643D01*
X163506022Y-76977671D01*
X163440489Y-77046543D01*
X163386380Y-77105723D01*
X163346884Y-77151677D01*
X163325190Y-77180869D01*
X163322000Y-77188393D01*
X163323453Y-77193929D01*
X163329319Y-77198664D01*
X163341861Y-77202657D01*
X163363343Y-77205963D01*
X163396028Y-77208640D01*
X163442178Y-77210744D01*
X163504057Y-77212333D01*
X163583927Y-77213462D01*
X163684052Y-77214188D01*
X163806694Y-77214569D01*
X163954117Y-77214661D01*
X164128584Y-77214521D01*
X164332357Y-77214205D01*
X164349907Y-77214174D01*
X164529409Y-77213678D01*
X164700805Y-77212865D01*
X164861242Y-77211768D01*
X165007867Y-77210423D01*
X165137827Y-77208866D01*
X165248270Y-77207133D01*
X165336343Y-77205259D01*
X165399193Y-77203279D01*
X165433968Y-77201229D01*
X165438373Y-77200631D01*
X165523413Y-77169277D01*
X165590369Y-77112980D01*
X165637265Y-77034156D01*
X165662123Y-76935221D01*
X165663181Y-76925719D01*
X165664137Y-76900283D01*
X165665023Y-76844642D01*
X165665835Y-76760342D01*
X165666571Y-76648926D01*
X165667228Y-76511941D01*
X165667805Y-76350930D01*
X165668299Y-76167440D01*
X165668707Y-75963015D01*
X165669028Y-75739200D01*
X165669258Y-75497539D01*
X165669396Y-75239579D01*
X165669438Y-74966864D01*
X165669383Y-74680939D01*
X165669229Y-74383349D01*
X165668972Y-74075639D01*
X165668611Y-73759354D01*
X165668353Y-73572687D01*
X165667809Y-73192373D01*
X165667321Y-72842510D01*
X165666859Y-72521801D01*
X165666389Y-72228947D01*
X165665881Y-71962650D01*
X165665303Y-71721613D01*
X165664623Y-71504536D01*
X165663810Y-71310122D01*
X165662832Y-71137073D01*
X165661657Y-70984090D01*
X165660254Y-70849875D01*
X165658590Y-70733130D01*
X165656636Y-70632558D01*
X165654357Y-70546859D01*
X165651724Y-70474735D01*
X165648704Y-70414889D01*
X165645267Y-70366022D01*
X165641379Y-70326836D01*
X165637009Y-70296033D01*
X165632127Y-70272315D01*
X165626700Y-70254383D01*
X165620696Y-70240940D01*
X165614084Y-70230687D01*
X165606832Y-70222326D01*
X165598909Y-70214559D01*
X165590283Y-70206087D01*
X165586173Y-70201710D01*
X165570798Y-70184457D01*
X165556641Y-70169567D01*
X165541372Y-70156858D01*
X165522660Y-70146145D01*
X165498176Y-70137244D01*
X165465589Y-70129971D01*
X165422569Y-70124144D01*
X165366786Y-70119577D01*
X165295908Y-70116088D01*
X165207607Y-70113492D01*
X165099551Y-70111605D01*
X164969410Y-70110245D01*
X164814855Y-70109227D01*
X164633554Y-70108367D01*
X164423177Y-70107481D01*
X164389594Y-70107337D01*
X164179365Y-70106463D01*
X163998657Y-70105816D01*
X163845244Y-70105449D01*
X163716899Y-70105411D01*
X163611393Y-70105752D01*
G37*
X163611393Y-70105752D02*
X163526500Y-70106522D01*
X163459993Y-70107772D01*
X163409643Y-70109551D01*
X163373223Y-70111909D01*
X163348507Y-70114897D01*
X163333266Y-70118565D01*
X163325273Y-70122963D01*
X163322302Y-70128141D01*
X163322000Y-70131355D01*
X163332824Y-70150884D01*
X163363015Y-70188673D01*
X163409149Y-70240872D01*
X163467806Y-70303633D01*
X163535562Y-70373108D01*
X163548418Y-70385986D01*
X163774835Y-70612000D01*
X164374550Y-70612000D01*
X164528956Y-70612073D01*
X164654919Y-70612402D01*
X164755749Y-70613143D01*
X164834753Y-70614459D01*
X164895239Y-70616507D01*
X164940515Y-70619449D01*
X164973889Y-70623442D01*
X164998670Y-70628648D01*
X165018165Y-70635226D01*
X165035682Y-70643334D01*
X165036919Y-70643963D01*
X165100934Y-70693752D01*
X165131537Y-70738581D01*
X165135509Y-70746739D01*
X165139138Y-70755884D01*
X165142439Y-70767421D01*
X165145427Y-70782753D01*
X165148119Y-70803284D01*
X165150529Y-70830420D01*
X165152673Y-70865564D01*
X165154567Y-70910122D01*
X165156226Y-70965496D01*
X165157666Y-71033092D01*
X165158902Y-71114313D01*
X165159950Y-71210565D01*
X165160825Y-71323252D01*
X165161543Y-71453777D01*
X165162120Y-71603546D01*
X165162571Y-71773962D01*
X165162911Y-71966430D01*
X165163156Y-72182354D01*
X165163322Y-72423139D01*
X165163423Y-72690189D01*
X165163477Y-72984909D01*
X165163497Y-73308702D01*
X165163500Y-73628249D01*
X165163496Y-73979588D01*
X165163473Y-74300582D01*
X165163416Y-74592634D01*
X165163309Y-74857149D01*
X165163136Y-75095531D01*
X165162883Y-75309185D01*
X165162533Y-75499515D01*
X165162071Y-75667926D01*
X165161482Y-75815821D01*
X165160750Y-75944606D01*
X165159859Y-76055683D01*
X165158794Y-76150459D01*
X165157539Y-76230337D01*
X165156079Y-76296721D01*
X165154399Y-76351016D01*
X165152482Y-76394626D01*
X165150313Y-76428956D01*
X165147877Y-76455409D01*
X165145158Y-76475391D01*
X165142141Y-76490305D01*
X165138810Y-76501557D01*
X165135150Y-76510549D01*
X165131537Y-76517918D01*
X165081748Y-76581933D01*
X165036919Y-76612536D01*
X165018941Y-76620964D01*
X164999179Y-76627767D01*
X164974214Y-76633119D01*
X164940629Y-76637194D01*
X164895007Y-76640163D01*
X164833930Y-76642201D01*
X164753980Y-76643480D01*
X164651741Y-76644174D01*
X164523795Y-76644455D01*
X164405921Y-76644500D01*
X163837577Y-76644500D01*
X163579789Y-76902643D01*
X163506022Y-76977671D01*
X163440489Y-77046543D01*
X163386380Y-77105723D01*
X163346884Y-77151677D01*
X163325190Y-77180869D01*
X163322000Y-77188393D01*
X163323453Y-77193929D01*
X163329319Y-77198664D01*
X163341861Y-77202657D01*
X163363343Y-77205963D01*
X163396028Y-77208640D01*
X163442178Y-77210744D01*
X163504057Y-77212333D01*
X163583927Y-77213462D01*
X163684052Y-77214188D01*
X163806694Y-77214569D01*
X163954117Y-77214661D01*
X164128584Y-77214521D01*
X164332357Y-77214205D01*
X164349907Y-77214174D01*
X164529409Y-77213678D01*
X164700805Y-77212865D01*
X164861242Y-77211768D01*
X165007867Y-77210423D01*
X165137827Y-77208866D01*
X165248270Y-77207133D01*
X165336343Y-77205259D01*
X165399193Y-77203279D01*
X165433968Y-77201229D01*
X165438373Y-77200631D01*
X165523413Y-77169277D01*
X165590369Y-77112980D01*
X165637265Y-77034156D01*
X165662123Y-76935221D01*
X165663181Y-76925719D01*
X165664137Y-76900283D01*
X165665023Y-76844642D01*
X165665835Y-76760342D01*
X165666571Y-76648926D01*
X165667228Y-76511941D01*
X165667805Y-76350930D01*
X165668299Y-76167440D01*
X165668707Y-75963015D01*
X165669028Y-75739200D01*
X165669258Y-75497539D01*
X165669396Y-75239579D01*
X165669438Y-74966864D01*
X165669383Y-74680939D01*
X165669229Y-74383349D01*
X165668972Y-74075639D01*
X165668611Y-73759354D01*
X165668353Y-73572687D01*
X165667809Y-73192373D01*
X165667321Y-72842510D01*
X165666859Y-72521801D01*
X165666389Y-72228947D01*
X165665881Y-71962650D01*
X165665303Y-71721613D01*
X165664623Y-71504536D01*
X165663810Y-71310122D01*
X165662832Y-71137073D01*
X165661657Y-70984090D01*
X165660254Y-70849875D01*
X165658590Y-70733130D01*
X165656636Y-70632558D01*
X165654357Y-70546859D01*
X165651724Y-70474735D01*
X165648704Y-70414889D01*
X165645267Y-70366022D01*
X165641379Y-70326836D01*
X165637009Y-70296033D01*
X165632127Y-70272315D01*
X165626700Y-70254383D01*
X165620696Y-70240940D01*
X165614084Y-70230687D01*
X165606832Y-70222326D01*
X165598909Y-70214559D01*
X165590283Y-70206087D01*
X165586173Y-70201710D01*
X165570798Y-70184457D01*
X165556641Y-70169567D01*
X165541372Y-70156858D01*
X165522660Y-70146145D01*
X165498176Y-70137244D01*
X165465589Y-70129971D01*
X165422569Y-70124144D01*
X165366786Y-70119577D01*
X165295908Y-70116088D01*
X165207607Y-70113492D01*
X165099551Y-70111605D01*
X164969410Y-70110245D01*
X164814855Y-70109227D01*
X164633554Y-70108367D01*
X164423177Y-70107481D01*
X164389594Y-70107337D01*
X164179365Y-70106463D01*
X163998657Y-70105816D01*
X163845244Y-70105449D01*
X163716899Y-70105411D01*
X163611393Y-70105752D01*
G36*
X129225218Y-70105616D02*
G01*
X129057662Y-70106129D01*
X128861636Y-70106898D01*
X128758157Y-70107337D01*
X128546515Y-70108302D01*
X128364305Y-70109283D01*
X128209207Y-70110346D01*
X128078903Y-70111557D01*
X127971075Y-70112982D01*
X127883403Y-70114688D01*
X127813568Y-70116739D01*
X127759253Y-70119203D01*
X127718138Y-70122145D01*
X127687905Y-70125632D01*
X127666235Y-70129728D01*
X127650810Y-70134501D01*
X127640860Y-70139148D01*
X127584190Y-70180892D01*
X127534175Y-70236330D01*
X127500789Y-70293855D01*
X127496090Y-70307629D01*
X127494800Y-70327937D01*
X127493585Y-70378188D01*
X127492446Y-70456576D01*
X127491383Y-70561294D01*
X127490395Y-70690536D01*
X127489483Y-70842496D01*
X127488646Y-71015367D01*
X127487885Y-71207342D01*
X127487200Y-71416616D01*
X127486590Y-71641381D01*
X127486055Y-71879831D01*
X127485596Y-72130159D01*
X127485213Y-72390560D01*
X127484905Y-72659226D01*
X127484673Y-72934352D01*
X127484516Y-73214130D01*
X127484435Y-73496754D01*
X127484429Y-73780418D01*
X127484499Y-74063315D01*
X127484644Y-74343639D01*
X127484865Y-74619583D01*
X127485161Y-74889341D01*
X127485533Y-75151106D01*
X127485981Y-75403072D01*
X127486504Y-75643432D01*
X127487103Y-75870380D01*
X127487777Y-76082109D01*
X127488527Y-76276813D01*
X127489352Y-76452686D01*
X127490253Y-76607920D01*
X127491229Y-76740710D01*
X127492281Y-76849249D01*
X127493408Y-76931730D01*
X127494611Y-76986347D01*
X127495890Y-77011293D01*
X127496090Y-77012370D01*
X127523561Y-77068548D01*
X127570237Y-77125637D01*
X127626144Y-77172029D01*
X127640860Y-77180851D01*
X127652797Y-77186252D01*
X127669003Y-77190920D01*
X127691798Y-77194922D01*
X127723501Y-77198324D01*
X127766430Y-77201190D01*
X127822903Y-77203589D01*
X127895240Y-77205585D01*
X127985759Y-77207245D01*
X128096780Y-77208634D01*
X128230619Y-77209819D01*
X128389597Y-77210865D01*
X128576032Y-77211840D01*
X128758157Y-77212662D01*
X128968390Y-77213536D01*
X129149101Y-77214182D01*
X129302517Y-77214549D01*
X129430866Y-77214586D01*
X129536374Y-77214244D01*
X129621269Y-77213474D01*
X129687778Y-77212223D01*
X129738128Y-77210444D01*
X129774547Y-77208085D01*
X129799261Y-77205096D01*
X129814499Y-77201428D01*
X129822487Y-77197031D01*
X129825453Y-77191853D01*
X129825750Y-77188669D01*
X129814896Y-77169594D01*
X129784437Y-77131884D01*
X129737530Y-77079039D01*
X129677329Y-77014560D01*
X129606990Y-76941947D01*
X129567607Y-76902288D01*
X129309463Y-76644500D01*
X128773224Y-76644500D01*
X128627823Y-76644408D01*
X128510630Y-76644006D01*
X128418104Y-76643106D01*
X128346704Y-76641518D01*
X128292888Y-76639053D01*
X128253115Y-76635523D01*
X128223844Y-76630737D01*
X128201533Y-76624508D01*
X128182641Y-76616647D01*
X128174332Y-76612536D01*
X128110317Y-76562747D01*
X128079714Y-76517918D01*
X128075742Y-76509760D01*
X128072113Y-76500615D01*
X128068812Y-76489078D01*
X128065824Y-76473746D01*
X128063132Y-76453215D01*
X128060722Y-76426079D01*
X128058578Y-76390935D01*
X128056684Y-76346377D01*
X128055025Y-76291003D01*
X128053585Y-76223407D01*
X128052349Y-76142186D01*
X128051301Y-76045934D01*
X128050426Y-75933247D01*
X128049708Y-75802722D01*
X128049131Y-75652953D01*
X128048680Y-75482537D01*
X128048340Y-75290069D01*
X128048095Y-75074145D01*
X128047929Y-74833360D01*
X128047828Y-74566310D01*
X128047774Y-74271590D01*
X128047754Y-73947797D01*
X128047750Y-73628249D01*
X128047755Y-73276911D01*
X128047778Y-72955917D01*
X128047835Y-72663865D01*
X128047942Y-72399350D01*
X128048115Y-72160968D01*
X128048368Y-71947314D01*
X128048718Y-71756984D01*
X128049180Y-71588573D01*
X128049769Y-71440678D01*
X128050501Y-71311893D01*
X128051392Y-71200816D01*
X128052457Y-71106040D01*
X128053712Y-71026162D01*
X128055172Y-70959778D01*
X128056852Y-70905483D01*
X128058769Y-70861873D01*
X128060938Y-70827543D01*
X128063374Y-70801090D01*
X128066093Y-70781108D01*
X128069110Y-70766194D01*
X128072441Y-70754942D01*
X128076101Y-70745950D01*
X128079714Y-70738581D01*
X128129503Y-70674566D01*
X128174332Y-70643963D01*
X128192309Y-70635536D01*
X128212071Y-70628732D01*
X128237036Y-70623380D01*
X128270620Y-70619306D01*
X128316241Y-70616336D01*
X128377317Y-70614298D01*
X128457264Y-70613019D01*
X128559501Y-70612325D01*
X128687444Y-70612044D01*
X128805355Y-70611999D01*
X129373724Y-70611999D01*
X129599737Y-70385582D01*
X129668636Y-70315212D01*
X129729065Y-70250913D01*
X129777610Y-70196534D01*
X129810855Y-70155921D01*
X129825386Y-70132922D01*
X129825750Y-70130951D01*
X129824496Y-70125399D01*
X129819250Y-70120645D01*
X129807786Y-70116638D01*
X129787879Y-70113331D01*
X129757304Y-70110673D01*
X129713837Y-70108616D01*
X129655250Y-70107110D01*
X129579321Y-70106107D01*
X129483822Y-70105556D01*
X129366530Y-70105409D01*
X129225218Y-70105616D01*
G37*
X129225218Y-70105616D02*
X129057662Y-70106129D01*
X128861636Y-70106898D01*
X128758157Y-70107337D01*
X128546515Y-70108302D01*
X128364305Y-70109283D01*
X128209207Y-70110346D01*
X128078903Y-70111557D01*
X127971075Y-70112982D01*
X127883403Y-70114688D01*
X127813568Y-70116739D01*
X127759253Y-70119203D01*
X127718138Y-70122145D01*
X127687905Y-70125632D01*
X127666235Y-70129728D01*
X127650810Y-70134501D01*
X127640860Y-70139148D01*
X127584190Y-70180892D01*
X127534175Y-70236330D01*
X127500789Y-70293855D01*
X127496090Y-70307629D01*
X127494800Y-70327937D01*
X127493585Y-70378188D01*
X127492446Y-70456576D01*
X127491383Y-70561294D01*
X127490395Y-70690536D01*
X127489483Y-70842496D01*
X127488646Y-71015367D01*
X127487885Y-71207342D01*
X127487200Y-71416616D01*
X127486590Y-71641381D01*
X127486055Y-71879831D01*
X127485596Y-72130159D01*
X127485213Y-72390560D01*
X127484905Y-72659226D01*
X127484673Y-72934352D01*
X127484516Y-73214130D01*
X127484435Y-73496754D01*
X127484429Y-73780418D01*
X127484499Y-74063315D01*
X127484644Y-74343639D01*
X127484865Y-74619583D01*
X127485161Y-74889341D01*
X127485533Y-75151106D01*
X127485981Y-75403072D01*
X127486504Y-75643432D01*
X127487103Y-75870380D01*
X127487777Y-76082109D01*
X127488527Y-76276813D01*
X127489352Y-76452686D01*
X127490253Y-76607920D01*
X127491229Y-76740710D01*
X127492281Y-76849249D01*
X127493408Y-76931730D01*
X127494611Y-76986347D01*
X127495890Y-77011293D01*
X127496090Y-77012370D01*
X127523561Y-77068548D01*
X127570237Y-77125637D01*
X127626144Y-77172029D01*
X127640860Y-77180851D01*
X127652797Y-77186252D01*
X127669003Y-77190920D01*
X127691798Y-77194922D01*
X127723501Y-77198324D01*
X127766430Y-77201190D01*
X127822903Y-77203589D01*
X127895240Y-77205585D01*
X127985759Y-77207245D01*
X128096780Y-77208634D01*
X128230619Y-77209819D01*
X128389597Y-77210865D01*
X128576032Y-77211840D01*
X128758157Y-77212662D01*
X128968390Y-77213536D01*
X129149101Y-77214182D01*
X129302517Y-77214549D01*
X129430866Y-77214586D01*
X129536374Y-77214244D01*
X129621269Y-77213474D01*
X129687778Y-77212223D01*
X129738128Y-77210444D01*
X129774547Y-77208085D01*
X129799261Y-77205096D01*
X129814499Y-77201428D01*
X129822487Y-77197031D01*
X129825453Y-77191853D01*
X129825750Y-77188669D01*
X129814896Y-77169594D01*
X129784437Y-77131884D01*
X129737530Y-77079039D01*
X129677329Y-77014560D01*
X129606990Y-76941947D01*
X129567607Y-76902288D01*
X129309463Y-76644500D01*
X128773224Y-76644500D01*
X128627823Y-76644408D01*
X128510630Y-76644006D01*
X128418104Y-76643106D01*
X128346704Y-76641518D01*
X128292888Y-76639053D01*
X128253115Y-76635523D01*
X128223844Y-76630737D01*
X128201533Y-76624508D01*
X128182641Y-76616647D01*
X128174332Y-76612536D01*
X128110317Y-76562747D01*
X128079714Y-76517918D01*
X128075742Y-76509760D01*
X128072113Y-76500615D01*
X128068812Y-76489078D01*
X128065824Y-76473746D01*
X128063132Y-76453215D01*
X128060722Y-76426079D01*
X128058578Y-76390935D01*
X128056684Y-76346377D01*
X128055025Y-76291003D01*
X128053585Y-76223407D01*
X128052349Y-76142186D01*
X128051301Y-76045934D01*
X128050426Y-75933247D01*
X128049708Y-75802722D01*
X128049131Y-75652953D01*
X128048680Y-75482537D01*
X128048340Y-75290069D01*
X128048095Y-75074145D01*
X128047929Y-74833360D01*
X128047828Y-74566310D01*
X128047774Y-74271590D01*
X128047754Y-73947797D01*
X128047750Y-73628249D01*
X128047755Y-73276911D01*
X128047778Y-72955917D01*
X128047835Y-72663865D01*
X128047942Y-72399350D01*
X128048115Y-72160968D01*
X128048368Y-71947314D01*
X128048718Y-71756984D01*
X128049180Y-71588573D01*
X128049769Y-71440678D01*
X128050501Y-71311893D01*
X128051392Y-71200816D01*
X128052457Y-71106040D01*
X128053712Y-71026162D01*
X128055172Y-70959778D01*
X128056852Y-70905483D01*
X128058769Y-70861873D01*
X128060938Y-70827543D01*
X128063374Y-70801090D01*
X128066093Y-70781108D01*
X128069110Y-70766194D01*
X128072441Y-70754942D01*
X128076101Y-70745950D01*
X128079714Y-70738581D01*
X128129503Y-70674566D01*
X128174332Y-70643963D01*
X128192309Y-70635536D01*
X128212071Y-70628732D01*
X128237036Y-70623380D01*
X128270620Y-70619306D01*
X128316241Y-70616336D01*
X128377317Y-70614298D01*
X128457264Y-70613019D01*
X128559501Y-70612325D01*
X128687444Y-70612044D01*
X128805355Y-70611999D01*
X129373724Y-70611999D01*
X129599737Y-70385582D01*
X129668636Y-70315212D01*
X129729065Y-70250913D01*
X129777610Y-70196534D01*
X129810855Y-70155921D01*
X129825386Y-70132922D01*
X129825750Y-70130951D01*
X129824496Y-70125399D01*
X129819250Y-70120645D01*
X129807786Y-70116638D01*
X129787879Y-70113331D01*
X129757304Y-70110673D01*
X129713837Y-70108616D01*
X129655250Y-70107110D01*
X129579321Y-70106107D01*
X129483822Y-70105556D01*
X129366530Y-70105409D01*
X129225218Y-70105616D01*
G36*
X161686964Y-72719406D02*
G01*
X161688376Y-72833129D01*
X161693202Y-72919767D01*
X161702483Y-72983892D01*
X161717262Y-73030080D01*
X161738580Y-73062906D01*
X161767479Y-73086944D01*
X161771193Y-73089266D01*
X161839582Y-73116331D01*
X161903056Y-73114434D01*
X161958017Y-73086336D01*
X162000866Y-73034795D01*
X162028006Y-72962574D01*
X162036037Y-72886093D01*
X162036125Y-72834500D01*
X162369500Y-72834500D01*
X162369500Y-75028425D01*
X162423475Y-75082400D01*
X162467387Y-75119065D01*
X162509314Y-75134541D01*
X162536188Y-75136375D01*
X162582747Y-75129716D01*
X162623895Y-75105409D01*
X162648900Y-75082400D01*
X162702875Y-75028425D01*
X162702875Y-72834500D01*
X162867342Y-72834500D01*
X163031809Y-72834499D01*
X163041133Y-72924847D01*
X163059830Y-73011341D01*
X163095698Y-73071683D01*
X163149330Y-73106798D01*
X163159827Y-73110202D01*
X163231954Y-73116156D01*
X163296640Y-73091449D01*
X163331291Y-73061727D01*
X163345512Y-73045159D01*
X163355696Y-73027459D01*
X163362516Y-73003344D01*
X163366646Y-72967527D01*
X163368758Y-72914723D01*
X163369526Y-72839648D01*
X163369625Y-72760744D01*
X163369625Y-72501125D01*
X161686875Y-72501125D01*
X161686964Y-72719406D01*
G37*
X161686964Y-72719406D02*
X161688376Y-72833129D01*
X161693202Y-72919767D01*
X161702483Y-72983892D01*
X161717262Y-73030080D01*
X161738580Y-73062906D01*
X161767479Y-73086944D01*
X161771193Y-73089266D01*
X161839582Y-73116331D01*
X161903056Y-73114434D01*
X161958017Y-73086336D01*
X162000866Y-73034795D01*
X162028006Y-72962574D01*
X162036037Y-72886093D01*
X162036125Y-72834500D01*
X162369500Y-72834500D01*
X162369500Y-75028425D01*
X162423475Y-75082400D01*
X162467387Y-75119065D01*
X162509314Y-75134541D01*
X162536188Y-75136375D01*
X162582747Y-75129716D01*
X162623895Y-75105409D01*
X162648900Y-75082400D01*
X162702875Y-75028425D01*
X162702875Y-72834500D01*
X162867342Y-72834500D01*
X163031809Y-72834499D01*
X163041133Y-72924847D01*
X163059830Y-73011341D01*
X163095698Y-73071683D01*
X163149330Y-73106798D01*
X163159827Y-73110202D01*
X163231954Y-73116156D01*
X163296640Y-73091449D01*
X163331291Y-73061727D01*
X163345512Y-73045159D01*
X163355696Y-73027459D01*
X163362516Y-73003344D01*
X163366646Y-72967527D01*
X163368758Y-72914723D01*
X163369526Y-72839648D01*
X163369625Y-72760744D01*
X163369625Y-72501125D01*
X161686875Y-72501125D01*
X161686964Y-72719406D01*
G36*
X159315135Y-73227423D02*
G01*
X159265122Y-73257286D01*
X159227683Y-73296786D01*
X159216070Y-73321971D01*
X159213939Y-73348030D01*
X159212975Y-73401735D01*
X159213132Y-73479006D01*
X159214363Y-73575762D01*
X159216623Y-73687925D01*
X159219866Y-73811412D01*
X159222563Y-73898353D01*
X159240088Y-74430777D01*
X159336022Y-74747857D01*
X159372130Y-74866304D01*
X159401801Y-74957839D01*
X159427823Y-75025930D01*
X159452988Y-75074047D01*
X159480086Y-75105656D01*
X159511907Y-75124227D01*
X159551241Y-75133226D01*
X159600878Y-75136122D01*
X159648612Y-75136375D01*
X159733050Y-75133181D01*
X159796532Y-75124103D01*
X159826320Y-75114120D01*
X159857367Y-75086432D01*
X159899243Y-75030510D01*
X159951036Y-74947617D01*
X159969509Y-74915683D01*
X160008033Y-74849448D01*
X160041460Y-74794624D01*
X160066504Y-74756414D01*
X160079877Y-74740023D01*
X160080634Y-74739766D01*
X160092088Y-74752926D01*
X160115314Y-74788570D01*
X160146947Y-74841277D01*
X160183619Y-74905620D01*
X160184005Y-74906312D01*
X160232700Y-74991728D01*
X160272327Y-75052917D01*
X160308311Y-75093903D01*
X160346082Y-75118705D01*
X160391066Y-75131347D01*
X160448691Y-75135848D01*
X160494423Y-75136315D01*
X160570525Y-75134461D01*
X160623743Y-75128026D01*
X160662782Y-75115582D01*
X160681331Y-75105681D01*
X160717206Y-75075439D01*
X160742378Y-75030704D01*
X160755731Y-74990646D01*
X160768433Y-74946030D01*
X160787562Y-74878344D01*
X160811003Y-74795096D01*
X160836639Y-74703795D01*
X160851100Y-74652187D01*
X160922211Y-74398187D01*
X160940599Y-73871506D01*
X160945704Y-73723193D01*
X160949386Y-73603201D01*
X160951329Y-73508122D01*
X160951220Y-73434547D01*
X160948744Y-73379066D01*
X160943587Y-73338272D01*
X160935434Y-73308755D01*
X160923971Y-73287106D01*
X160908885Y-73269916D01*
X160889859Y-73253776D01*
X160883147Y-73248481D01*
X160826280Y-73221719D01*
X160764675Y-73220688D01*
X160706568Y-73242140D01*
X160660194Y-73282827D01*
X160633787Y-73339499D01*
X160632319Y-73347425D01*
X160629758Y-73375833D01*
X160626353Y-73431528D01*
X160622317Y-73510063D01*
X160617861Y-73606993D01*
X160613197Y-73717870D01*
X160608537Y-73838251D01*
X160607216Y-73874312D01*
X160602162Y-74011054D01*
X160597659Y-74120727D01*
X160593231Y-74207995D01*
X160588403Y-74277521D01*
X160582697Y-74333971D01*
X160575638Y-74382009D01*
X160566749Y-74426297D01*
X160555555Y-74471502D01*
X160541578Y-74522286D01*
X160540760Y-74525187D01*
X160520240Y-74595771D01*
X160501860Y-74655004D01*
X160487766Y-74696217D01*
X160480557Y-74712348D01*
X160469256Y-74703909D01*
X160445581Y-74672233D01*
X160412576Y-74621836D01*
X160373287Y-74557235D01*
X160355921Y-74527436D01*
X160242250Y-74329990D01*
X160242250Y-74121206D01*
X160240717Y-74017240D01*
X160235225Y-73940066D01*
X160224439Y-73884836D01*
X160207022Y-73846700D01*
X160181639Y-73820809D01*
X160155382Y-73805965D01*
X160085219Y-73786835D01*
X160022323Y-73798177D01*
X159963196Y-73840629D01*
X159908875Y-73894950D01*
X159908875Y-74348566D01*
X159802631Y-74536213D01*
X159763223Y-74603617D01*
X159728741Y-74658492D01*
X159702304Y-74696177D01*
X159687029Y-74712012D01*
X159685118Y-74711836D01*
X159675894Y-74692488D01*
X159659868Y-74649718D01*
X159639541Y-74590458D01*
X159623517Y-74541062D01*
X159609663Y-74496682D01*
X159598453Y-74457391D01*
X159589441Y-74418961D01*
X159582182Y-74377162D01*
X159576228Y-74327765D01*
X159571135Y-74266544D01*
X159566457Y-74189268D01*
X159561747Y-74091710D01*
X159556560Y-73969641D01*
X159552367Y-73866375D01*
X159545020Y-73698002D01*
X159537793Y-73560521D01*
X159530623Y-73453072D01*
X159523445Y-73374797D01*
X159516196Y-73324837D01*
X159510747Y-73305590D01*
X159473335Y-73258318D01*
X159417979Y-73225685D01*
X159365945Y-73215559D01*
X159315135Y-73227423D01*
G37*
X159315135Y-73227423D02*
X159265122Y-73257286D01*
X159227683Y-73296786D01*
X159216070Y-73321971D01*
X159213939Y-73348030D01*
X159212975Y-73401735D01*
X159213132Y-73479006D01*
X159214363Y-73575762D01*
X159216623Y-73687925D01*
X159219866Y-73811412D01*
X159222563Y-73898353D01*
X159240088Y-74430777D01*
X159336022Y-74747857D01*
X159372130Y-74866304D01*
X159401801Y-74957839D01*
X159427823Y-75025930D01*
X159452988Y-75074047D01*
X159480086Y-75105656D01*
X159511907Y-75124227D01*
X159551241Y-75133226D01*
X159600878Y-75136122D01*
X159648612Y-75136375D01*
X159733050Y-75133181D01*
X159796532Y-75124103D01*
X159826320Y-75114120D01*
X159857367Y-75086432D01*
X159899243Y-75030510D01*
X159951036Y-74947617D01*
X159969509Y-74915683D01*
X160008033Y-74849448D01*
X160041460Y-74794624D01*
X160066504Y-74756414D01*
X160079877Y-74740023D01*
X160080634Y-74739766D01*
X160092088Y-74752926D01*
X160115314Y-74788570D01*
X160146947Y-74841277D01*
X160183619Y-74905620D01*
X160184005Y-74906312D01*
X160232700Y-74991728D01*
X160272327Y-75052917D01*
X160308311Y-75093903D01*
X160346082Y-75118705D01*
X160391066Y-75131347D01*
X160448691Y-75135848D01*
X160494423Y-75136315D01*
X160570525Y-75134461D01*
X160623743Y-75128026D01*
X160662782Y-75115582D01*
X160681331Y-75105681D01*
X160717206Y-75075439D01*
X160742378Y-75030704D01*
X160755731Y-74990646D01*
X160768433Y-74946030D01*
X160787562Y-74878344D01*
X160811003Y-74795096D01*
X160836639Y-74703795D01*
X160851100Y-74652187D01*
X160922211Y-74398187D01*
X160940599Y-73871506D01*
X160945704Y-73723193D01*
X160949386Y-73603201D01*
X160951329Y-73508122D01*
X160951220Y-73434547D01*
X160948744Y-73379066D01*
X160943587Y-73338272D01*
X160935434Y-73308755D01*
X160923971Y-73287106D01*
X160908885Y-73269916D01*
X160889859Y-73253776D01*
X160883147Y-73248481D01*
X160826280Y-73221719D01*
X160764675Y-73220688D01*
X160706568Y-73242140D01*
X160660194Y-73282827D01*
X160633787Y-73339499D01*
X160632319Y-73347425D01*
X160629758Y-73375833D01*
X160626353Y-73431528D01*
X160622317Y-73510063D01*
X160617861Y-73606993D01*
X160613197Y-73717870D01*
X160608537Y-73838251D01*
X160607216Y-73874312D01*
X160602162Y-74011054D01*
X160597659Y-74120727D01*
X160593231Y-74207995D01*
X160588403Y-74277521D01*
X160582697Y-74333971D01*
X160575638Y-74382009D01*
X160566749Y-74426297D01*
X160555555Y-74471502D01*
X160541578Y-74522286D01*
X160540760Y-74525187D01*
X160520240Y-74595771D01*
X160501860Y-74655004D01*
X160487766Y-74696217D01*
X160480557Y-74712348D01*
X160469256Y-74703909D01*
X160445581Y-74672233D01*
X160412576Y-74621836D01*
X160373287Y-74557235D01*
X160355921Y-74527436D01*
X160242250Y-74329990D01*
X160242250Y-74121206D01*
X160240717Y-74017240D01*
X160235225Y-73940066D01*
X160224439Y-73884836D01*
X160207022Y-73846700D01*
X160181639Y-73820809D01*
X160155382Y-73805965D01*
X160085219Y-73786835D01*
X160022323Y-73798177D01*
X159963196Y-73840629D01*
X159908875Y-73894950D01*
X159908875Y-74348566D01*
X159802631Y-74536213D01*
X159763223Y-74603617D01*
X159728741Y-74658492D01*
X159702304Y-74696177D01*
X159687029Y-74712012D01*
X159685118Y-74711836D01*
X159675894Y-74692488D01*
X159659868Y-74649718D01*
X159639541Y-74590458D01*
X159623517Y-74541062D01*
X159609663Y-74496682D01*
X159598453Y-74457391D01*
X159589441Y-74418961D01*
X159582182Y-74377162D01*
X159576228Y-74327765D01*
X159571135Y-74266544D01*
X159566457Y-74189268D01*
X159561747Y-74091710D01*
X159556560Y-73969641D01*
X159552367Y-73866375D01*
X159545020Y-73698002D01*
X159537793Y-73560521D01*
X159530623Y-73453072D01*
X159523445Y-73374797D01*
X159516196Y-73324837D01*
X159510747Y-73305590D01*
X159473335Y-73258318D01*
X159417979Y-73225685D01*
X159365945Y-73215559D01*
X159315135Y-73227423D01*
G36*
X157189296Y-73274658D02*
G01*
X157090635Y-73332898D01*
X156994811Y-73410090D01*
X156910509Y-73498037D01*
X156846414Y-73588541D01*
X156835631Y-73608486D01*
X156789438Y-73699687D01*
X156789438Y-74652187D01*
X156843599Y-74752073D01*
X156914323Y-74855301D01*
X157008275Y-74952098D01*
X157116966Y-75034526D01*
X157189529Y-75075670D01*
X157296657Y-75128437D01*
X157598672Y-75132073D01*
X157724566Y-75132668D01*
X157821978Y-75130955D01*
X157894102Y-75126782D01*
X157944135Y-75120000D01*
X157964188Y-75114844D01*
X158085581Y-75061459D01*
X158200718Y-74985613D01*
X158302218Y-74893456D01*
X158382696Y-74791137D01*
X158410084Y-74743422D01*
X158456313Y-74652187D01*
X158456313Y-74289980D01*
X158128018Y-74289980D01*
X158127638Y-74397019D01*
X158125837Y-74478220D01*
X158122510Y-74536529D01*
X158117550Y-74574891D01*
X158111209Y-74595583D01*
X158089784Y-74624029D01*
X158051097Y-74664504D01*
X158002702Y-74709228D01*
X157991796Y-74718614D01*
X157892404Y-74803000D01*
X157634608Y-74802940D01*
X157535362Y-74802480D01*
X157462447Y-74800805D01*
X157410454Y-74797397D01*
X157373973Y-74791737D01*
X157347593Y-74783307D01*
X157329188Y-74773646D01*
X157291993Y-74747268D01*
X157243425Y-74708239D01*
X157202188Y-74672323D01*
X157122813Y-74600234D01*
X157117913Y-74221398D01*
X157116933Y-74111708D01*
X157116846Y-74009882D01*
X157117592Y-73921125D01*
X157119110Y-73850646D01*
X157121338Y-73803649D01*
X157122953Y-73789095D01*
X157144329Y-73737686D01*
X157191102Y-73682908D01*
X157265391Y-73622500D01*
X157304128Y-73595692D01*
X157332067Y-73577638D01*
X157356884Y-73564949D01*
X157384762Y-73556679D01*
X157421885Y-73551881D01*
X157474437Y-73549611D01*
X157548599Y-73548922D01*
X157610232Y-73548875D01*
X157714597Y-73549639D01*
X157793832Y-73553213D01*
X157854546Y-73561521D01*
X157903346Y-73576484D01*
X157946842Y-73600025D01*
X157991640Y-73634068D01*
X158035625Y-73672649D01*
X158122938Y-73751383D01*
X158127084Y-74154160D01*
X158128018Y-74289980D01*
X158456313Y-74289980D01*
X158456313Y-73699687D01*
X158411587Y-73608606D01*
X158353294Y-73516116D01*
X158272945Y-73424918D01*
X158179376Y-73343652D01*
X158081421Y-73280953D01*
X158071160Y-73275759D01*
X157964903Y-73223437D01*
X157297438Y-73223437D01*
X157189296Y-73274658D01*
G37*
X157189296Y-73274658D02*
X157090635Y-73332898D01*
X156994811Y-73410090D01*
X156910509Y-73498037D01*
X156846414Y-73588541D01*
X156835631Y-73608486D01*
X156789438Y-73699687D01*
X156789438Y-74652187D01*
X156843599Y-74752073D01*
X156914323Y-74855301D01*
X157008275Y-74952098D01*
X157116966Y-75034526D01*
X157189529Y-75075670D01*
X157296657Y-75128437D01*
X157598672Y-75132073D01*
X157724566Y-75132668D01*
X157821978Y-75130955D01*
X157894102Y-75126782D01*
X157944135Y-75120000D01*
X157964188Y-75114844D01*
X158085581Y-75061459D01*
X158200718Y-74985613D01*
X158302218Y-74893456D01*
X158382696Y-74791137D01*
X158410084Y-74743422D01*
X158456313Y-74652187D01*
X158456313Y-74289980D01*
X158128018Y-74289980D01*
X158127638Y-74397019D01*
X158125837Y-74478220D01*
X158122510Y-74536529D01*
X158117550Y-74574891D01*
X158111209Y-74595583D01*
X158089784Y-74624029D01*
X158051097Y-74664504D01*
X158002702Y-74709228D01*
X157991796Y-74718614D01*
X157892404Y-74803000D01*
X157634608Y-74802940D01*
X157535362Y-74802480D01*
X157462447Y-74800805D01*
X157410454Y-74797397D01*
X157373973Y-74791737D01*
X157347593Y-74783307D01*
X157329188Y-74773646D01*
X157291993Y-74747268D01*
X157243425Y-74708239D01*
X157202188Y-74672323D01*
X157122813Y-74600234D01*
X157117913Y-74221398D01*
X157116933Y-74111708D01*
X157116846Y-74009882D01*
X157117592Y-73921125D01*
X157119110Y-73850646D01*
X157121338Y-73803649D01*
X157122953Y-73789095D01*
X157144329Y-73737686D01*
X157191102Y-73682908D01*
X157265391Y-73622500D01*
X157304128Y-73595692D01*
X157332067Y-73577638D01*
X157356884Y-73564949D01*
X157384762Y-73556679D01*
X157421885Y-73551881D01*
X157474437Y-73549611D01*
X157548599Y-73548922D01*
X157610232Y-73548875D01*
X157714597Y-73549639D01*
X157793832Y-73553213D01*
X157854546Y-73561521D01*
X157903346Y-73576484D01*
X157946842Y-73600025D01*
X157991640Y-73634068D01*
X158035625Y-73672649D01*
X158122938Y-73751383D01*
X158127084Y-74154160D01*
X158128018Y-74289980D01*
X158456313Y-74289980D01*
X158456313Y-73699687D01*
X158411587Y-73608606D01*
X158353294Y-73516116D01*
X158272945Y-73424918D01*
X158179376Y-73343652D01*
X158081421Y-73280953D01*
X158071160Y-73275759D01*
X157964903Y-73223437D01*
X157297438Y-73223437D01*
X157189296Y-73274658D01*
G36*
X152967532Y-72504051D02*
G01*
X152376188Y-72509062D01*
X152268653Y-72559999D01*
X152148705Y-72633521D01*
X152043639Y-72731086D01*
X151960067Y-72846082D01*
X151935000Y-72893652D01*
X151915397Y-72936041D01*
X151901604Y-72971354D01*
X151892601Y-73006520D01*
X151887366Y-73048469D01*
X151884878Y-73104130D01*
X151884116Y-73180434D01*
X151884063Y-73239312D01*
X151884290Y-73331521D01*
X151885639Y-73398883D01*
X151889112Y-73448297D01*
X151895710Y-73486667D01*
X151906434Y-73520893D01*
X151922288Y-73557877D01*
X151933882Y-73582583D01*
X151968619Y-73647117D01*
X152009434Y-73710384D01*
X152042886Y-73753239D01*
X152102070Y-73818750D01*
X152042886Y-73884260D01*
X152004647Y-73933977D01*
X151964051Y-73998166D01*
X151933882Y-74054916D01*
X151914691Y-74096506D01*
X151901194Y-74131441D01*
X151892389Y-74166622D01*
X151887275Y-74208953D01*
X151884850Y-74265333D01*
X151884112Y-74342664D01*
X151884063Y-74398187D01*
X151884278Y-74490283D01*
X151885603Y-74557560D01*
X151889059Y-74606946D01*
X151895669Y-74645371D01*
X151906452Y-74679766D01*
X151922430Y-74717059D01*
X151935000Y-74743847D01*
X152008522Y-74863795D01*
X152106087Y-74968861D01*
X152221083Y-75052433D01*
X152268653Y-75077500D01*
X152376188Y-75128437D01*
X152967532Y-75133448D01*
X153558875Y-75138458D01*
X153558875Y-74805012D01*
X153225500Y-74805012D01*
X152437274Y-74795062D01*
X152371890Y-74751761D01*
X152324427Y-74711270D01*
X152278886Y-74658155D01*
X152261972Y-74632699D01*
X152241255Y-74594738D01*
X152228170Y-74560221D01*
X152220990Y-74520065D01*
X152217990Y-74465183D01*
X152217438Y-74398187D01*
X152218201Y-74323042D01*
X152221638Y-74270548D01*
X152229477Y-74231618D01*
X152243441Y-74197168D01*
X152261972Y-74163675D01*
X152301162Y-74110305D01*
X152349570Y-74061654D01*
X152371890Y-74044613D01*
X152437274Y-74001312D01*
X153225500Y-73991362D01*
X153225500Y-74805012D01*
X153558875Y-74805012D01*
X153558875Y-73644125D01*
X153225500Y-73644125D01*
X152862744Y-73644125D01*
X152725366Y-73643234D01*
X152612489Y-73640620D01*
X152526077Y-73636370D01*
X152468094Y-73630568D01*
X152446026Y-73625821D01*
X152362413Y-73585603D01*
X152297244Y-73525237D01*
X152261155Y-73472431D01*
X152240789Y-73434953D01*
X152227931Y-73400479D01*
X152220886Y-73359964D01*
X152217958Y-73304364D01*
X152217438Y-73239312D01*
X152218201Y-73164167D01*
X152221638Y-73111673D01*
X152229477Y-73072743D01*
X152243441Y-73038293D01*
X152261972Y-73004800D01*
X152301162Y-72951430D01*
X152349570Y-72902779D01*
X152371890Y-72885738D01*
X152437274Y-72842437D01*
X153225500Y-72832487D01*
X153225500Y-73644125D01*
X153558875Y-73644125D01*
X153558875Y-72499041D01*
X152967532Y-72504051D01*
G37*
X152967532Y-72504051D02*
X152376188Y-72509062D01*
X152268653Y-72559999D01*
X152148705Y-72633521D01*
X152043639Y-72731086D01*
X151960067Y-72846082D01*
X151935000Y-72893652D01*
X151915397Y-72936041D01*
X151901604Y-72971354D01*
X151892601Y-73006520D01*
X151887366Y-73048469D01*
X151884878Y-73104130D01*
X151884116Y-73180434D01*
X151884063Y-73239312D01*
X151884290Y-73331521D01*
X151885639Y-73398883D01*
X151889112Y-73448297D01*
X151895710Y-73486667D01*
X151906434Y-73520893D01*
X151922288Y-73557877D01*
X151933882Y-73582583D01*
X151968619Y-73647117D01*
X152009434Y-73710384D01*
X152042886Y-73753239D01*
X152102070Y-73818750D01*
X152042886Y-73884260D01*
X152004647Y-73933977D01*
X151964051Y-73998166D01*
X151933882Y-74054916D01*
X151914691Y-74096506D01*
X151901194Y-74131441D01*
X151892389Y-74166622D01*
X151887275Y-74208953D01*
X151884850Y-74265333D01*
X151884112Y-74342664D01*
X151884063Y-74398187D01*
X151884278Y-74490283D01*
X151885603Y-74557560D01*
X151889059Y-74606946D01*
X151895669Y-74645371D01*
X151906452Y-74679766D01*
X151922430Y-74717059D01*
X151935000Y-74743847D01*
X152008522Y-74863795D01*
X152106087Y-74968861D01*
X152221083Y-75052433D01*
X152268653Y-75077500D01*
X152376188Y-75128437D01*
X152967532Y-75133448D01*
X153558875Y-75138458D01*
X153558875Y-74805012D01*
X153225500Y-74805012D01*
X152437274Y-74795062D01*
X152371890Y-74751761D01*
X152324427Y-74711270D01*
X152278886Y-74658155D01*
X152261972Y-74632699D01*
X152241255Y-74594738D01*
X152228170Y-74560221D01*
X152220990Y-74520065D01*
X152217990Y-74465183D01*
X152217438Y-74398187D01*
X152218201Y-74323042D01*
X152221638Y-74270548D01*
X152229477Y-74231618D01*
X152243441Y-74197168D01*
X152261972Y-74163675D01*
X152301162Y-74110305D01*
X152349570Y-74061654D01*
X152371890Y-74044613D01*
X152437274Y-74001312D01*
X153225500Y-73991362D01*
X153225500Y-74805012D01*
X153558875Y-74805012D01*
X153558875Y-73644125D01*
X153225500Y-73644125D01*
X152862744Y-73644125D01*
X152725366Y-73643234D01*
X152612489Y-73640620D01*
X152526077Y-73636370D01*
X152468094Y-73630568D01*
X152446026Y-73625821D01*
X152362413Y-73585603D01*
X152297244Y-73525237D01*
X152261155Y-73472431D01*
X152240789Y-73434953D01*
X152227931Y-73400479D01*
X152220886Y-73359964D01*
X152217958Y-73304364D01*
X152217438Y-73239312D01*
X152218201Y-73164167D01*
X152221638Y-73111673D01*
X152229477Y-73072743D01*
X152243441Y-73038293D01*
X152261972Y-73004800D01*
X152301162Y-72951430D01*
X152349570Y-72902779D01*
X152371890Y-72885738D01*
X152437274Y-72842437D01*
X153225500Y-72832487D01*
X153225500Y-73644125D01*
X153558875Y-73644125D01*
X153558875Y-72499041D01*
X152967532Y-72504051D01*
G36*
X150403064Y-73215888D02*
G01*
X150324844Y-73217135D01*
X150268211Y-73219759D01*
X150228086Y-73224220D01*
X150199388Y-73230978D01*
X150177038Y-73240494D01*
X150166568Y-73246483D01*
X150118562Y-73293113D01*
X150099188Y-73337705D01*
X150094786Y-73370233D01*
X150090993Y-73432980D01*
X150087844Y-73524417D01*
X150085372Y-73643019D01*
X150083610Y-73787258D01*
X150082593Y-73955607D01*
X150082339Y-74100531D01*
X150082250Y-74803000D01*
X149898644Y-74803000D01*
X149805477Y-74804400D01*
X149737787Y-74809623D01*
X149689385Y-74820198D01*
X149654081Y-74837655D01*
X149625686Y-74863526D01*
X149618260Y-74872326D01*
X149592571Y-74927059D01*
X149591317Y-74989517D01*
X149612148Y-75050377D01*
X149652713Y-75100318D01*
X149680363Y-75118641D01*
X149704512Y-75122956D01*
X149755861Y-75126655D01*
X149829866Y-75129731D01*
X149921983Y-75132174D01*
X150027667Y-75133979D01*
X150142375Y-75135136D01*
X150261561Y-75135639D01*
X150380683Y-75135478D01*
X150495196Y-75134647D01*
X150600556Y-75133138D01*
X150692219Y-75130942D01*
X150765639Y-75128053D01*
X150816275Y-75124461D01*
X150838583Y-75120633D01*
X150885894Y-75085425D01*
X150915568Y-75029045D01*
X150923625Y-74973049D01*
X150918314Y-74913162D01*
X150899978Y-74868541D01*
X150865013Y-74837200D01*
X150809814Y-74817156D01*
X150730779Y-74806422D01*
X150624302Y-74803015D01*
X150614851Y-74803000D01*
X150431500Y-74803000D01*
X150431500Y-73548875D01*
X150615107Y-73548875D01*
X150708274Y-73547474D01*
X150775964Y-73542251D01*
X150824366Y-73531676D01*
X150859670Y-73514219D01*
X150888065Y-73488348D01*
X150895491Y-73479548D01*
X150921180Y-73424815D01*
X150922434Y-73362357D01*
X150901603Y-73301497D01*
X150861038Y-73251556D01*
X150833388Y-73233233D01*
X150802838Y-73226253D01*
X150743278Y-73220899D01*
X150657413Y-73217320D01*
X150547948Y-73215660D01*
X150507950Y-73215559D01*
X150403064Y-73215888D01*
G37*
X150403064Y-73215888D02*
X150324844Y-73217135D01*
X150268211Y-73219759D01*
X150228086Y-73224220D01*
X150199388Y-73230978D01*
X150177038Y-73240494D01*
X150166568Y-73246483D01*
X150118562Y-73293113D01*
X150099188Y-73337705D01*
X150094786Y-73370233D01*
X150090993Y-73432980D01*
X150087844Y-73524417D01*
X150085372Y-73643019D01*
X150083610Y-73787258D01*
X150082593Y-73955607D01*
X150082339Y-74100531D01*
X150082250Y-74803000D01*
X149898644Y-74803000D01*
X149805477Y-74804400D01*
X149737787Y-74809623D01*
X149689385Y-74820198D01*
X149654081Y-74837655D01*
X149625686Y-74863526D01*
X149618260Y-74872326D01*
X149592571Y-74927059D01*
X149591317Y-74989517D01*
X149612148Y-75050377D01*
X149652713Y-75100318D01*
X149680363Y-75118641D01*
X149704512Y-75122956D01*
X149755861Y-75126655D01*
X149829866Y-75129731D01*
X149921983Y-75132174D01*
X150027667Y-75133979D01*
X150142375Y-75135136D01*
X150261561Y-75135639D01*
X150380683Y-75135478D01*
X150495196Y-75134647D01*
X150600556Y-75133138D01*
X150692219Y-75130942D01*
X150765639Y-75128053D01*
X150816275Y-75124461D01*
X150838583Y-75120633D01*
X150885894Y-75085425D01*
X150915568Y-75029045D01*
X150923625Y-74973049D01*
X150918314Y-74913162D01*
X150899978Y-74868541D01*
X150865013Y-74837200D01*
X150809814Y-74817156D01*
X150730779Y-74806422D01*
X150624302Y-74803015D01*
X150614851Y-74803000D01*
X150431500Y-74803000D01*
X150431500Y-73548875D01*
X150615107Y-73548875D01*
X150708274Y-73547474D01*
X150775964Y-73542251D01*
X150824366Y-73531676D01*
X150859670Y-73514219D01*
X150888065Y-73488348D01*
X150895491Y-73479548D01*
X150921180Y-73424815D01*
X150922434Y-73362357D01*
X150901603Y-73301497D01*
X150861038Y-73251556D01*
X150833388Y-73233233D01*
X150802838Y-73226253D01*
X150743278Y-73220899D01*
X150657413Y-73217320D01*
X150547948Y-73215660D01*
X150507950Y-73215559D01*
X150403064Y-73215888D01*
G36*
X148068006Y-72662751D02*
G01*
X148030657Y-72690283D01*
X147978813Y-72736566D01*
X147973701Y-72976033D01*
X147968588Y-73215500D01*
X147619693Y-73215500D01*
X147498959Y-73215912D01*
X147405864Y-73217314D01*
X147336307Y-73219956D01*
X147286187Y-73224085D01*
X147251403Y-73229952D01*
X147227852Y-73237803D01*
X147224433Y-73239476D01*
X147175877Y-73276004D01*
X147150977Y-73326603D01*
X147145375Y-73382187D01*
X147154241Y-73449313D01*
X147183528Y-73496530D01*
X147224433Y-73524898D01*
X147246328Y-73533126D01*
X147278686Y-73539331D01*
X147325601Y-73543759D01*
X147391166Y-73546658D01*
X147479478Y-73548276D01*
X147594629Y-73548860D01*
X147620837Y-73548875D01*
X147970875Y-73548875D01*
X147970523Y-74124343D01*
X147970639Y-74289010D01*
X147970285Y-74424728D01*
X147968072Y-74534284D01*
X147962613Y-74620467D01*
X147952520Y-74686063D01*
X147936407Y-74733862D01*
X147912885Y-74766649D01*
X147880568Y-74787215D01*
X147838067Y-74798344D01*
X147783995Y-74802827D01*
X147716965Y-74803450D01*
X147635590Y-74803000D01*
X147632748Y-74803000D01*
X147533022Y-74801802D01*
X147459418Y-74796580D01*
X147406347Y-74784891D01*
X147368219Y-74764291D01*
X147339446Y-74732336D01*
X147314437Y-74686582D01*
X147301838Y-74658325D01*
X147257538Y-74581680D01*
X147203878Y-74534364D01*
X147142139Y-74516983D01*
X147073600Y-74530147D01*
X147052428Y-74539871D01*
X147005127Y-74581034D01*
X146977970Y-74641509D01*
X146972020Y-74715230D01*
X146988338Y-74796134D01*
X147001649Y-74829833D01*
X147049783Y-74909115D01*
X147118129Y-74987284D01*
X147196572Y-75053829D01*
X147247926Y-75085738D01*
X147278463Y-75100892D01*
X147307088Y-75111964D01*
X147339550Y-75119691D01*
X147381594Y-75124810D01*
X147438969Y-75128059D01*
X147517422Y-75130176D01*
X147605750Y-75131646D01*
X147725756Y-75132438D01*
X147817925Y-75130658D01*
X147886080Y-75126114D01*
X147934045Y-75118613D01*
X147949854Y-75114289D01*
X148058010Y-75065728D01*
X148152421Y-74992880D01*
X148191474Y-74951921D01*
X148218813Y-74920015D01*
X148241336Y-74890014D01*
X148259509Y-74858569D01*
X148273797Y-74822338D01*
X148284668Y-74777972D01*
X148292588Y-74722128D01*
X148298024Y-74651459D01*
X148301442Y-74562620D01*
X148303307Y-74452266D01*
X148304088Y-74317049D01*
X148304250Y-74153626D01*
X148304250Y-73552236D01*
X148432786Y-73546399D01*
X148498166Y-73542502D01*
X148540420Y-73536327D01*
X148568168Y-73525280D01*
X148590033Y-73506764D01*
X148599474Y-73496208D01*
X148631209Y-73436853D01*
X148638566Y-73368447D01*
X148621545Y-73302279D01*
X148599474Y-73268166D01*
X148577514Y-73245765D01*
X148553270Y-73231916D01*
X148518119Y-73224024D01*
X148463440Y-73219491D01*
X148432786Y-73217975D01*
X148304250Y-73212138D01*
X148304250Y-72751949D01*
X148250275Y-72697974D01*
X148190355Y-72654513D01*
X148129474Y-72642768D01*
X148068006Y-72662751D01*
G37*
X148068006Y-72662751D02*
X148030657Y-72690283D01*
X147978813Y-72736566D01*
X147973701Y-72976033D01*
X147968588Y-73215500D01*
X147619693Y-73215500D01*
X147498959Y-73215912D01*
X147405864Y-73217314D01*
X147336307Y-73219956D01*
X147286187Y-73224085D01*
X147251403Y-73229952D01*
X147227852Y-73237803D01*
X147224433Y-73239476D01*
X147175877Y-73276004D01*
X147150977Y-73326603D01*
X147145375Y-73382187D01*
X147154241Y-73449313D01*
X147183528Y-73496530D01*
X147224433Y-73524898D01*
X147246328Y-73533126D01*
X147278686Y-73539331D01*
X147325601Y-73543759D01*
X147391166Y-73546658D01*
X147479478Y-73548276D01*
X147594629Y-73548860D01*
X147620837Y-73548875D01*
X147970875Y-73548875D01*
X147970523Y-74124343D01*
X147970639Y-74289010D01*
X147970285Y-74424728D01*
X147968072Y-74534284D01*
X147962613Y-74620467D01*
X147952520Y-74686063D01*
X147936407Y-74733862D01*
X147912885Y-74766649D01*
X147880568Y-74787215D01*
X147838067Y-74798344D01*
X147783995Y-74802827D01*
X147716965Y-74803450D01*
X147635590Y-74803000D01*
X147632748Y-74803000D01*
X147533022Y-74801802D01*
X147459418Y-74796580D01*
X147406347Y-74784891D01*
X147368219Y-74764291D01*
X147339446Y-74732336D01*
X147314437Y-74686582D01*
X147301838Y-74658325D01*
X147257538Y-74581680D01*
X147203878Y-74534364D01*
X147142139Y-74516983D01*
X147073600Y-74530147D01*
X147052428Y-74539871D01*
X147005127Y-74581034D01*
X146977970Y-74641509D01*
X146972020Y-74715230D01*
X146988338Y-74796134D01*
X147001649Y-74829833D01*
X147049783Y-74909115D01*
X147118129Y-74987284D01*
X147196572Y-75053829D01*
X147247926Y-75085738D01*
X147278463Y-75100892D01*
X147307088Y-75111964D01*
X147339550Y-75119691D01*
X147381594Y-75124810D01*
X147438969Y-75128059D01*
X147517422Y-75130176D01*
X147605750Y-75131646D01*
X147725756Y-75132438D01*
X147817925Y-75130658D01*
X147886080Y-75126114D01*
X147934045Y-75118613D01*
X147949854Y-75114289D01*
X148058010Y-75065728D01*
X148152421Y-74992880D01*
X148191474Y-74951921D01*
X148218813Y-74920015D01*
X148241336Y-74890014D01*
X148259509Y-74858569D01*
X148273797Y-74822338D01*
X148284668Y-74777972D01*
X148292588Y-74722128D01*
X148298024Y-74651459D01*
X148301442Y-74562620D01*
X148303307Y-74452266D01*
X148304088Y-74317049D01*
X148304250Y-74153626D01*
X148304250Y-73552236D01*
X148432786Y-73546399D01*
X148498166Y-73542502D01*
X148540420Y-73536327D01*
X148568168Y-73525280D01*
X148590033Y-73506764D01*
X148599474Y-73496208D01*
X148631209Y-73436853D01*
X148638566Y-73368447D01*
X148621545Y-73302279D01*
X148599474Y-73268166D01*
X148577514Y-73245765D01*
X148553270Y-73231916D01*
X148518119Y-73224024D01*
X148463440Y-73219491D01*
X148432786Y-73217975D01*
X148304250Y-73212138D01*
X148304250Y-72751949D01*
X148250275Y-72697974D01*
X148190355Y-72654513D01*
X148129474Y-72642768D01*
X148068006Y-72662751D01*
G36*
X142049589Y-72719406D02*
G01*
X142051001Y-72833129D01*
X142055827Y-72919767D01*
X142065108Y-72983892D01*
X142079887Y-73030080D01*
X142101205Y-73062906D01*
X142130104Y-73086944D01*
X142133818Y-73089266D01*
X142202207Y-73116331D01*
X142265681Y-73114434D01*
X142320642Y-73086336D01*
X142363491Y-73034795D01*
X142390631Y-72962574D01*
X142398662Y-72886093D01*
X142398750Y-72834500D01*
X142732125Y-72834500D01*
X142732125Y-75028425D01*
X142786100Y-75082400D01*
X142830012Y-75119065D01*
X142871939Y-75134541D01*
X142898813Y-75136375D01*
X142945372Y-75129716D01*
X142986520Y-75105409D01*
X143011525Y-75082400D01*
X143065500Y-75028425D01*
X143065500Y-72834500D01*
X143229967Y-72834500D01*
X143394434Y-72834499D01*
X143403758Y-72924847D01*
X143422455Y-73011341D01*
X143458323Y-73071683D01*
X143511955Y-73106798D01*
X143522452Y-73110202D01*
X143594579Y-73116156D01*
X143659265Y-73091449D01*
X143693916Y-73061727D01*
X143708137Y-73045159D01*
X143718321Y-73027459D01*
X143725141Y-73003344D01*
X143729271Y-72967527D01*
X143731383Y-72914723D01*
X143732151Y-72839648D01*
X143732250Y-72760744D01*
X143732250Y-72501125D01*
X142049500Y-72501125D01*
X142049589Y-72719406D01*
G37*
X142049589Y-72719406D02*
X142051001Y-72833129D01*
X142055827Y-72919767D01*
X142065108Y-72983892D01*
X142079887Y-73030080D01*
X142101205Y-73062906D01*
X142130104Y-73086944D01*
X142133818Y-73089266D01*
X142202207Y-73116331D01*
X142265681Y-73114434D01*
X142320642Y-73086336D01*
X142363491Y-73034795D01*
X142390631Y-72962574D01*
X142398662Y-72886093D01*
X142398750Y-72834500D01*
X142732125Y-72834500D01*
X142732125Y-75028425D01*
X142786100Y-75082400D01*
X142830012Y-75119065D01*
X142871939Y-75134541D01*
X142898813Y-75136375D01*
X142945372Y-75129716D01*
X142986520Y-75105409D01*
X143011525Y-75082400D01*
X143065500Y-75028425D01*
X143065500Y-72834500D01*
X143229967Y-72834500D01*
X143394434Y-72834499D01*
X143403758Y-72924847D01*
X143422455Y-73011341D01*
X143458323Y-73071683D01*
X143511955Y-73106798D01*
X143522452Y-73110202D01*
X143594579Y-73116156D01*
X143659265Y-73091449D01*
X143693916Y-73061727D01*
X143708137Y-73045159D01*
X143718321Y-73027459D01*
X143725141Y-73003344D01*
X143729271Y-72967527D01*
X143731383Y-72914723D01*
X143732151Y-72839648D01*
X143732250Y-72760744D01*
X143732250Y-72501125D01*
X142049500Y-72501125D01*
X142049589Y-72719406D01*
G36*
X140271500Y-73323450D02*
G01*
X140271500Y-74800476D01*
X140065441Y-74805707D01*
X139980912Y-74808117D01*
X139921908Y-74811122D01*
X139882212Y-74815944D01*
X139855607Y-74823810D01*
X139835875Y-74835943D01*
X139816797Y-74853568D01*
X139815410Y-74854954D01*
X139785516Y-74892958D01*
X139773053Y-74936277D01*
X139771438Y-74971350D01*
X139775321Y-75021982D01*
X139791656Y-75057423D01*
X139823282Y-75090052D01*
X139875126Y-75136375D01*
X141004925Y-75136375D01*
X141058900Y-75082400D01*
X141095566Y-75038488D01*
X141111042Y-74996561D01*
X141112875Y-74969687D01*
X141106217Y-74923128D01*
X141081910Y-74881980D01*
X141058900Y-74856975D01*
X141004925Y-74803000D01*
X140604875Y-74803000D01*
X140604875Y-73548875D01*
X140803063Y-73548875D01*
X140885545Y-73548640D01*
X140942845Y-73547127D01*
X140981526Y-73543118D01*
X141008157Y-73535396D01*
X141029302Y-73522746D01*
X141051528Y-73503950D01*
X141053094Y-73502552D01*
X141086441Y-73467623D01*
X141101476Y-73432373D01*
X141104938Y-73382187D01*
X141101344Y-73331350D01*
X141086068Y-73296229D01*
X141053094Y-73261822D01*
X141001250Y-73215500D01*
X140379450Y-73215500D01*
X140271500Y-73323450D01*
G37*
X140271500Y-73323450D02*
X140271500Y-74800476D01*
X140065441Y-74805707D01*
X139980912Y-74808117D01*
X139921908Y-74811122D01*
X139882212Y-74815944D01*
X139855607Y-74823810D01*
X139835875Y-74835943D01*
X139816797Y-74853568D01*
X139815410Y-74854954D01*
X139785516Y-74892958D01*
X139773053Y-74936277D01*
X139771438Y-74971350D01*
X139775321Y-75021982D01*
X139791656Y-75057423D01*
X139823282Y-75090052D01*
X139875126Y-75136375D01*
X141004925Y-75136375D01*
X141058900Y-75082400D01*
X141095566Y-75038488D01*
X141111042Y-74996561D01*
X141112875Y-74969687D01*
X141106217Y-74923128D01*
X141081910Y-74881980D01*
X141058900Y-74856975D01*
X141004925Y-74803000D01*
X140604875Y-74803000D01*
X140604875Y-73548875D01*
X140803063Y-73548875D01*
X140885545Y-73548640D01*
X140942845Y-73547127D01*
X140981526Y-73543118D01*
X141008157Y-73535396D01*
X141029302Y-73522746D01*
X141051528Y-73503950D01*
X141053094Y-73502552D01*
X141086441Y-73467623D01*
X141101476Y-73432373D01*
X141104938Y-73382187D01*
X141101344Y-73331350D01*
X141086068Y-73296229D01*
X141053094Y-73261822D01*
X141001250Y-73215500D01*
X140379450Y-73215500D01*
X140271500Y-73323450D01*
G36*
X137646517Y-73220003D02*
G01*
X137586170Y-73228986D01*
X137554542Y-73237000D01*
X137443288Y-73284647D01*
X137347697Y-73356194D01*
X137272399Y-73447062D01*
X137222019Y-73552673D01*
X137216291Y-73571674D01*
X137210711Y-73605491D01*
X137204696Y-73665880D01*
X137198403Y-73748789D01*
X137191989Y-73850168D01*
X137185610Y-73965967D01*
X137179423Y-74092135D01*
X137173585Y-74224623D01*
X137168253Y-74359379D01*
X137163584Y-74492353D01*
X137159734Y-74619494D01*
X137156860Y-74736753D01*
X137155120Y-74840079D01*
X137154670Y-74925421D01*
X137155666Y-74988729D01*
X137158266Y-75025953D01*
X137159732Y-75032480D01*
X137191587Y-75079752D01*
X137241209Y-75117204D01*
X137295740Y-75135738D01*
X137306536Y-75136375D01*
X137366939Y-75124222D01*
X137421209Y-75092606D01*
X137457490Y-75048788D01*
X137460470Y-75042068D01*
X137464596Y-75017624D01*
X137469566Y-74965098D01*
X137475159Y-74888140D01*
X137481156Y-74790400D01*
X137487339Y-74675528D01*
X137493487Y-74547174D01*
X137499382Y-74408989D01*
X137501057Y-74366437D01*
X137506652Y-74225545D01*
X137512212Y-74092979D01*
X137517559Y-73972462D01*
X137522514Y-73867717D01*
X137526899Y-73782469D01*
X137530537Y-73720439D01*
X137533250Y-73685353D01*
X137533830Y-73680800D01*
X137554412Y-73631035D01*
X137590383Y-73589519D01*
X137616609Y-73569858D01*
X137643781Y-73557784D01*
X137680417Y-73551483D01*
X137735039Y-73549138D01*
X137781132Y-73548875D01*
X137833500Y-73549074D01*
X137876281Y-73551053D01*
X137914220Y-73556887D01*
X137952057Y-73568648D01*
X137994537Y-73588409D01*
X138046402Y-73618245D01*
X138112394Y-73660228D01*
X138197257Y-73716432D01*
X138259344Y-73757936D01*
X138493500Y-73914508D01*
X138493500Y-75028425D01*
X138547475Y-75082400D01*
X138607393Y-75125862D01*
X138668265Y-75137609D01*
X138729716Y-75117627D01*
X138767094Y-75090060D01*
X138818938Y-75043746D01*
X138823322Y-74205351D01*
X138824161Y-74001828D01*
X138824368Y-73828401D01*
X138823917Y-73683421D01*
X138822783Y-73565239D01*
X138820937Y-73472207D01*
X138818356Y-73402675D01*
X138815011Y-73354996D01*
X138810877Y-73327521D01*
X138809267Y-73322440D01*
X138769864Y-73262098D01*
X138715850Y-73226497D01*
X138653811Y-73217198D01*
X138590331Y-73235763D01*
X138553346Y-73261765D01*
X138523074Y-73292909D01*
X138505893Y-73325570D01*
X138496748Y-73371804D01*
X138493564Y-73404324D01*
X138485563Y-73500617D01*
X138318875Y-73395247D01*
X138221326Y-73335132D01*
X138141900Y-73290994D01*
X138073018Y-73260170D01*
X138007099Y-73240001D01*
X137936564Y-73227823D01*
X137853831Y-73220977D01*
X137817492Y-73219214D01*
X137720698Y-73216944D01*
X137646517Y-73220003D01*
G37*
X137646517Y-73220003D02*
X137586170Y-73228986D01*
X137554542Y-73237000D01*
X137443288Y-73284647D01*
X137347697Y-73356194D01*
X137272399Y-73447062D01*
X137222019Y-73552673D01*
X137216291Y-73571674D01*
X137210711Y-73605491D01*
X137204696Y-73665880D01*
X137198403Y-73748789D01*
X137191989Y-73850168D01*
X137185610Y-73965967D01*
X137179423Y-74092135D01*
X137173585Y-74224623D01*
X137168253Y-74359379D01*
X137163584Y-74492353D01*
X137159734Y-74619494D01*
X137156860Y-74736753D01*
X137155120Y-74840079D01*
X137154670Y-74925421D01*
X137155666Y-74988729D01*
X137158266Y-75025953D01*
X137159732Y-75032480D01*
X137191587Y-75079752D01*
X137241209Y-75117204D01*
X137295740Y-75135738D01*
X137306536Y-75136375D01*
X137366939Y-75124222D01*
X137421209Y-75092606D01*
X137457490Y-75048788D01*
X137460470Y-75042068D01*
X137464596Y-75017624D01*
X137469566Y-74965098D01*
X137475159Y-74888140D01*
X137481156Y-74790400D01*
X137487339Y-74675528D01*
X137493487Y-74547174D01*
X137499382Y-74408989D01*
X137501057Y-74366437D01*
X137506652Y-74225545D01*
X137512212Y-74092979D01*
X137517559Y-73972462D01*
X137522514Y-73867717D01*
X137526899Y-73782469D01*
X137530537Y-73720439D01*
X137533250Y-73685353D01*
X137533830Y-73680800D01*
X137554412Y-73631035D01*
X137590383Y-73589519D01*
X137616609Y-73569858D01*
X137643781Y-73557784D01*
X137680417Y-73551483D01*
X137735039Y-73549138D01*
X137781132Y-73548875D01*
X137833500Y-73549074D01*
X137876281Y-73551053D01*
X137914220Y-73556887D01*
X137952057Y-73568648D01*
X137994537Y-73588409D01*
X138046402Y-73618245D01*
X138112394Y-73660228D01*
X138197257Y-73716432D01*
X138259344Y-73757936D01*
X138493500Y-73914508D01*
X138493500Y-75028425D01*
X138547475Y-75082400D01*
X138607393Y-75125862D01*
X138668265Y-75137609D01*
X138729716Y-75117627D01*
X138767094Y-75090060D01*
X138818938Y-75043746D01*
X138823322Y-74205351D01*
X138824161Y-74001828D01*
X138824368Y-73828401D01*
X138823917Y-73683421D01*
X138822783Y-73565239D01*
X138820937Y-73472207D01*
X138818356Y-73402675D01*
X138815011Y-73354996D01*
X138810877Y-73327521D01*
X138809267Y-73322440D01*
X138769864Y-73262098D01*
X138715850Y-73226497D01*
X138653811Y-73217198D01*
X138590331Y-73235763D01*
X138553346Y-73261765D01*
X138523074Y-73292909D01*
X138505893Y-73325570D01*
X138496748Y-73371804D01*
X138493564Y-73404324D01*
X138485563Y-73500617D01*
X138318875Y-73395247D01*
X138221326Y-73335132D01*
X138141900Y-73290994D01*
X138073018Y-73260170D01*
X138007099Y-73240001D01*
X137936564Y-73227823D01*
X137853831Y-73220977D01*
X137817492Y-73219214D01*
X137720698Y-73216944D01*
X137646517Y-73220003D01*
G36*
X136130030Y-72519873D02*
G01*
X136092657Y-72547434D01*
X136040813Y-72593743D01*
X136032875Y-73308238D01*
X136024938Y-74022734D01*
X135580438Y-73641533D01*
X135477605Y-73553725D01*
X135380851Y-73471834D01*
X135293168Y-73398339D01*
X135217550Y-73335718D01*
X135156988Y-73286449D01*
X135114475Y-73253011D01*
X135093070Y-73237915D01*
X135024715Y-73217318D01*
X134958460Y-73225030D01*
X134916211Y-73248101D01*
X134876625Y-73295420D01*
X134853183Y-73355932D01*
X134849942Y-73416741D01*
X134855849Y-73439980D01*
X134872329Y-73461769D01*
X134910693Y-73501205D01*
X134968265Y-73555811D01*
X135042370Y-73623113D01*
X135130333Y-73700633D01*
X135229479Y-73785896D01*
X135230856Y-73787067D01*
X135321188Y-73864405D01*
X135402873Y-73935386D01*
X135472967Y-73997367D01*
X135528527Y-74047708D01*
X135566610Y-74083766D01*
X135584273Y-74102900D01*
X135585128Y-74105027D01*
X135572456Y-74118110D01*
X135538568Y-74149502D01*
X135486243Y-74196725D01*
X135418264Y-74257298D01*
X135337409Y-74328741D01*
X135246459Y-74408574D01*
X135167688Y-74477348D01*
X135068849Y-74563695D01*
X134976313Y-74645021D01*
X134893159Y-74718579D01*
X134822467Y-74781627D01*
X134767318Y-74831421D01*
X134730792Y-74865217D01*
X134717514Y-74878368D01*
X134692720Y-74913697D01*
X134685960Y-74952394D01*
X134688752Y-74984461D01*
X134711004Y-75049975D01*
X134753721Y-75099467D01*
X134809917Y-75129152D01*
X134872607Y-75135242D01*
X134931395Y-75115968D01*
X134950809Y-75101389D01*
X134991233Y-75068411D01*
X135049746Y-75019505D01*
X135123431Y-74957142D01*
X135209368Y-74883792D01*
X135304638Y-74801925D01*
X135404388Y-74715687D01*
X135504885Y-74628704D01*
X135597913Y-74548481D01*
X135680734Y-74477359D01*
X135750608Y-74417677D01*
X135804795Y-74371775D01*
X135840556Y-74341992D01*
X135855151Y-74330669D01*
X135855201Y-74330649D01*
X135872366Y-74337914D01*
X135906025Y-74360852D01*
X135945770Y-74391977D01*
X136024938Y-74457342D01*
X136032875Y-74750573D01*
X136040813Y-75043805D01*
X136092657Y-75090090D01*
X136154296Y-75129294D01*
X136215576Y-75136762D01*
X136276123Y-75112507D01*
X136312275Y-75082400D01*
X136366250Y-75028425D01*
X136366250Y-72609074D01*
X136312275Y-72555099D01*
X136252357Y-72511637D01*
X136191484Y-72499891D01*
X136130030Y-72519873D01*
G37*
X136130030Y-72519873D02*
X136092657Y-72547434D01*
X136040813Y-72593743D01*
X136032875Y-73308238D01*
X136024938Y-74022734D01*
X135580438Y-73641533D01*
X135477605Y-73553725D01*
X135380851Y-73471834D01*
X135293168Y-73398339D01*
X135217550Y-73335718D01*
X135156988Y-73286449D01*
X135114475Y-73253011D01*
X135093070Y-73237915D01*
X135024715Y-73217318D01*
X134958460Y-73225030D01*
X134916211Y-73248101D01*
X134876625Y-73295420D01*
X134853183Y-73355932D01*
X134849942Y-73416741D01*
X134855849Y-73439980D01*
X134872329Y-73461769D01*
X134910693Y-73501205D01*
X134968265Y-73555811D01*
X135042370Y-73623113D01*
X135130333Y-73700633D01*
X135229479Y-73785896D01*
X135230856Y-73787067D01*
X135321188Y-73864405D01*
X135402873Y-73935386D01*
X135472967Y-73997367D01*
X135528527Y-74047708D01*
X135566610Y-74083766D01*
X135584273Y-74102900D01*
X135585128Y-74105027D01*
X135572456Y-74118110D01*
X135538568Y-74149502D01*
X135486243Y-74196725D01*
X135418264Y-74257298D01*
X135337409Y-74328741D01*
X135246459Y-74408574D01*
X135167688Y-74477348D01*
X135068849Y-74563695D01*
X134976313Y-74645021D01*
X134893159Y-74718579D01*
X134822467Y-74781627D01*
X134767318Y-74831421D01*
X134730792Y-74865217D01*
X134717514Y-74878368D01*
X134692720Y-74913697D01*
X134685960Y-74952394D01*
X134688752Y-74984461D01*
X134711004Y-75049975D01*
X134753721Y-75099467D01*
X134809917Y-75129152D01*
X134872607Y-75135242D01*
X134931395Y-75115968D01*
X134950809Y-75101389D01*
X134991233Y-75068411D01*
X135049746Y-75019505D01*
X135123431Y-74957142D01*
X135209368Y-74883792D01*
X135304638Y-74801925D01*
X135404388Y-74715687D01*
X135504885Y-74628704D01*
X135597913Y-74548481D01*
X135680734Y-74477359D01*
X135750608Y-74417677D01*
X135804795Y-74371775D01*
X135840556Y-74341992D01*
X135855151Y-74330669D01*
X135855201Y-74330649D01*
X135872366Y-74337914D01*
X135906025Y-74360852D01*
X135945770Y-74391977D01*
X136024938Y-74457342D01*
X136032875Y-74750573D01*
X136040813Y-75043805D01*
X136092657Y-75090090D01*
X136154296Y-75129294D01*
X136215576Y-75136762D01*
X136276123Y-75112507D01*
X136312275Y-75082400D01*
X136366250Y-75028425D01*
X136366250Y-72609074D01*
X136312275Y-72555099D01*
X136252357Y-72511637D01*
X136191484Y-72499891D01*
X136130030Y-72519873D01*
G36*
X133016625Y-73218022D02*
G01*
X132910060Y-73220005D01*
X132829965Y-73222162D01*
X132771064Y-73225181D01*
X132728083Y-73229749D01*
X132695746Y-73236557D01*
X132668777Y-73246292D01*
X132641901Y-73259643D01*
X132624473Y-73269206D01*
X132578377Y-73300204D01*
X132519665Y-73347454D01*
X132457029Y-73403669D01*
X132415841Y-73444106D01*
X132360369Y-73502705D01*
X132317838Y-73554126D01*
X132286540Y-73603942D01*
X132264767Y-73657725D01*
X132250810Y-73721045D01*
X132242960Y-73799476D01*
X132239510Y-73898588D01*
X132238750Y-74021656D01*
X132238750Y-74298175D01*
X132346700Y-74406125D01*
X133588125Y-74406125D01*
X133588125Y-74462197D01*
X133575638Y-74541671D01*
X133536965Y-74616575D01*
X133470293Y-74689469D01*
X133375566Y-74761734D01*
X133313820Y-74803000D01*
X132346700Y-74803000D01*
X132292725Y-74856974D01*
X132256060Y-74900886D01*
X132240584Y-74942813D01*
X132238750Y-74969687D01*
X132245409Y-75016246D01*
X132269716Y-75057394D01*
X132292725Y-75082400D01*
X132346700Y-75136375D01*
X132852319Y-75135313D01*
X133013716Y-75134504D01*
X133145487Y-75132771D01*
X133249746Y-75130034D01*
X133328608Y-75126215D01*
X133384184Y-75121234D01*
X133418590Y-75115015D01*
X133421438Y-75114168D01*
X133485803Y-75090739D01*
X133543612Y-75061536D01*
X133603206Y-75021368D01*
X133672926Y-74965046D01*
X133703280Y-74938792D01*
X133784077Y-74860983D01*
X133841304Y-74788488D01*
X133866955Y-74744237D01*
X133913563Y-74652187D01*
X133913563Y-73745818D01*
X133572250Y-73745818D01*
X133572250Y-74072750D01*
X132572125Y-74072750D01*
X132572125Y-73749807D01*
X132644993Y-73679988D01*
X132694204Y-73633759D01*
X132735282Y-73599926D01*
X132774563Y-73576555D01*
X132818383Y-73561708D01*
X132873079Y-73553451D01*
X132944988Y-73549846D01*
X133040444Y-73548959D01*
X133073941Y-73548934D01*
X133178296Y-73549483D01*
X133257413Y-73552567D01*
X133317800Y-73560257D01*
X133365966Y-73574624D01*
X133408418Y-73597740D01*
X133451666Y-73631676D01*
X133502217Y-73678503D01*
X133512719Y-73688581D01*
X133572250Y-73745818D01*
X133913563Y-73745818D01*
X133913563Y-73699687D01*
X133863361Y-73604437D01*
X133821058Y-73534631D01*
X133769163Y-73470928D01*
X133701727Y-73407135D01*
X133612803Y-73337058D01*
X133591807Y-73321664D01*
X133541558Y-73287396D01*
X133493582Y-73261081D01*
X133442798Y-73241802D01*
X133384126Y-73228645D01*
X133312483Y-73220693D01*
X133222789Y-73217031D01*
X133109962Y-73216743D01*
X133016625Y-73218022D01*
G37*
X133016625Y-73218022D02*
X132910060Y-73220005D01*
X132829965Y-73222162D01*
X132771064Y-73225181D01*
X132728083Y-73229749D01*
X132695746Y-73236557D01*
X132668777Y-73246292D01*
X132641901Y-73259643D01*
X132624473Y-73269206D01*
X132578377Y-73300204D01*
X132519665Y-73347454D01*
X132457029Y-73403669D01*
X132415841Y-73444106D01*
X132360369Y-73502705D01*
X132317838Y-73554126D01*
X132286540Y-73603942D01*
X132264767Y-73657725D01*
X132250810Y-73721045D01*
X132242960Y-73799476D01*
X132239510Y-73898588D01*
X132238750Y-74021656D01*
X132238750Y-74298175D01*
X132346700Y-74406125D01*
X133588125Y-74406125D01*
X133588125Y-74462197D01*
X133575638Y-74541671D01*
X133536965Y-74616575D01*
X133470293Y-74689469D01*
X133375566Y-74761734D01*
X133313820Y-74803000D01*
X132346700Y-74803000D01*
X132292725Y-74856974D01*
X132256060Y-74900886D01*
X132240584Y-74942813D01*
X132238750Y-74969687D01*
X132245409Y-75016246D01*
X132269716Y-75057394D01*
X132292725Y-75082400D01*
X132346700Y-75136375D01*
X132852319Y-75135313D01*
X133013716Y-75134504D01*
X133145487Y-75132771D01*
X133249746Y-75130034D01*
X133328608Y-75126215D01*
X133384184Y-75121234D01*
X133418590Y-75115015D01*
X133421438Y-75114168D01*
X133485803Y-75090739D01*
X133543612Y-75061536D01*
X133603206Y-75021368D01*
X133672926Y-74965046D01*
X133703280Y-74938792D01*
X133784077Y-74860983D01*
X133841304Y-74788488D01*
X133866955Y-74744237D01*
X133913563Y-74652187D01*
X133913563Y-73745818D01*
X133572250Y-73745818D01*
X133572250Y-74072750D01*
X132572125Y-74072750D01*
X132572125Y-73749807D01*
X132644993Y-73679988D01*
X132694204Y-73633759D01*
X132735282Y-73599926D01*
X132774563Y-73576555D01*
X132818383Y-73561708D01*
X132873079Y-73553451D01*
X132944988Y-73549846D01*
X133040444Y-73548959D01*
X133073941Y-73548934D01*
X133178296Y-73549483D01*
X133257413Y-73552567D01*
X133317800Y-73560257D01*
X133365966Y-73574624D01*
X133408418Y-73597740D01*
X133451666Y-73631676D01*
X133502217Y-73678503D01*
X133512719Y-73688581D01*
X133572250Y-73745818D01*
X133913563Y-73745818D01*
X133913563Y-73699687D01*
X133863361Y-73604437D01*
X133821058Y-73534631D01*
X133769163Y-73470928D01*
X133701727Y-73407135D01*
X133612803Y-73337058D01*
X133591807Y-73321664D01*
X133541558Y-73287396D01*
X133493582Y-73261081D01*
X133442798Y-73241802D01*
X133384126Y-73228645D01*
X133312483Y-73220693D01*
X133222789Y-73217031D01*
X133109962Y-73216743D01*
X133016625Y-73218022D01*
G36*
X131263620Y-73219391D02*
G01*
X131202477Y-73250821D01*
X131181475Y-73269475D01*
X131154701Y-73297806D01*
X131138666Y-73322878D01*
X131130622Y-73353993D01*
X131127819Y-73400450D01*
X131127500Y-73452037D01*
X131126491Y-73511423D01*
X131123806Y-73556287D01*
X131119961Y-73579164D01*
X131118627Y-73580625D01*
X131103961Y-73570901D01*
X131069842Y-73544220D01*
X131020899Y-73504314D01*
X130961761Y-73454917D01*
X130942017Y-73438205D01*
X130855704Y-73365885D01*
X130786246Y-73311930D01*
X130726731Y-73273655D01*
X130670248Y-73248374D01*
X130609884Y-73233400D01*
X130538727Y-73226049D01*
X130449866Y-73223634D01*
X130389313Y-73223437D01*
X130274500Y-73225105D01*
X130185014Y-73231381D01*
X130114549Y-73244174D01*
X130056797Y-73265390D01*
X130005451Y-73296938D01*
X129954204Y-73340726D01*
X129932927Y-73361488D01*
X129865829Y-73438580D01*
X129821426Y-73516598D01*
X129796229Y-73604476D01*
X129786748Y-73711148D01*
X129786427Y-73736635D01*
X129786636Y-73806120D01*
X129789071Y-73851757D01*
X129795824Y-73881446D01*
X129808985Y-73903088D01*
X129830648Y-73924584D01*
X129837907Y-73931104D01*
X129899706Y-73969834D01*
X129962328Y-73976902D01*
X130024514Y-73952305D01*
X130051147Y-73931688D01*
X130077559Y-73905524D01*
X130093977Y-73878934D01*
X130103799Y-73842538D01*
X130110422Y-73786959D01*
X130112530Y-73762267D01*
X130118875Y-73697998D01*
X130127287Y-73656116D01*
X130141108Y-73627286D01*
X130163685Y-73602169D01*
X130172883Y-73593767D01*
X130197964Y-73573003D01*
X130222180Y-73559882D01*
X130253487Y-73552662D01*
X130299838Y-73549605D01*
X130369189Y-73548970D01*
X130377657Y-73548972D01*
X130477448Y-73552194D01*
X130546429Y-73561697D01*
X130575648Y-73571742D01*
X130600335Y-73588829D01*
X130644432Y-73623592D01*
X130703701Y-73672518D01*
X130773907Y-73732092D01*
X130850813Y-73798803D01*
X130873304Y-73818576D01*
X131127500Y-74042740D01*
X131127500Y-75028425D01*
X131181475Y-75082400D01*
X131241393Y-75125862D01*
X131302265Y-75137609D01*
X131363716Y-75117627D01*
X131401094Y-75090060D01*
X131452938Y-75043746D01*
X131457322Y-74205351D01*
X131458279Y-74013917D01*
X131458854Y-73851629D01*
X131458851Y-73715885D01*
X131458076Y-73604083D01*
X131456331Y-73513619D01*
X131453420Y-73441892D01*
X131449149Y-73386298D01*
X131443321Y-73344234D01*
X131435739Y-73313098D01*
X131426208Y-73290287D01*
X131414533Y-73273199D01*
X131400516Y-73259231D01*
X131385148Y-73246711D01*
X131325950Y-73217861D01*
X131263620Y-73219391D01*
G37*
X131263620Y-73219391D02*
X131202477Y-73250821D01*
X131181475Y-73269475D01*
X131154701Y-73297806D01*
X131138666Y-73322878D01*
X131130622Y-73353993D01*
X131127819Y-73400450D01*
X131127500Y-73452037D01*
X131126491Y-73511423D01*
X131123806Y-73556287D01*
X131119961Y-73579164D01*
X131118627Y-73580625D01*
X131103961Y-73570901D01*
X131069842Y-73544220D01*
X131020899Y-73504314D01*
X130961761Y-73454917D01*
X130942017Y-73438205D01*
X130855704Y-73365885D01*
X130786246Y-73311930D01*
X130726731Y-73273655D01*
X130670248Y-73248374D01*
X130609884Y-73233400D01*
X130538727Y-73226049D01*
X130449866Y-73223634D01*
X130389313Y-73223437D01*
X130274500Y-73225105D01*
X130185014Y-73231381D01*
X130114549Y-73244174D01*
X130056797Y-73265390D01*
X130005451Y-73296938D01*
X129954204Y-73340726D01*
X129932927Y-73361488D01*
X129865829Y-73438580D01*
X129821426Y-73516598D01*
X129796229Y-73604476D01*
X129786748Y-73711148D01*
X129786427Y-73736635D01*
X129786636Y-73806120D01*
X129789071Y-73851757D01*
X129795824Y-73881446D01*
X129808985Y-73903088D01*
X129830648Y-73924584D01*
X129837907Y-73931104D01*
X129899706Y-73969834D01*
X129962328Y-73976902D01*
X130024514Y-73952305D01*
X130051147Y-73931688D01*
X130077559Y-73905524D01*
X130093977Y-73878934D01*
X130103799Y-73842538D01*
X130110422Y-73786959D01*
X130112530Y-73762267D01*
X130118875Y-73697998D01*
X130127287Y-73656116D01*
X130141108Y-73627286D01*
X130163685Y-73602169D01*
X130172883Y-73593767D01*
X130197964Y-73573003D01*
X130222180Y-73559882D01*
X130253487Y-73552662D01*
X130299838Y-73549605D01*
X130369189Y-73548970D01*
X130377657Y-73548972D01*
X130477448Y-73552194D01*
X130546429Y-73561697D01*
X130575648Y-73571742D01*
X130600335Y-73588829D01*
X130644432Y-73623592D01*
X130703701Y-73672518D01*
X130773907Y-73732092D01*
X130850813Y-73798803D01*
X130873304Y-73818576D01*
X131127500Y-74042740D01*
X131127500Y-75028425D01*
X131181475Y-75082400D01*
X131241393Y-75125862D01*
X131302265Y-75137609D01*
X131363716Y-75117627D01*
X131401094Y-75090060D01*
X131452938Y-75043746D01*
X131457322Y-74205351D01*
X131458279Y-74013917D01*
X131458854Y-73851629D01*
X131458851Y-73715885D01*
X131458076Y-73604083D01*
X131456331Y-73513619D01*
X131453420Y-73441892D01*
X131449149Y-73386298D01*
X131443321Y-73344234D01*
X131435739Y-73313098D01*
X131426208Y-73290287D01*
X131414533Y-73273199D01*
X131400516Y-73259231D01*
X131385148Y-73246711D01*
X131325950Y-73217861D01*
X131263620Y-73219391D01*
G36*
X145107970Y-73636765D02*
G01*
X145019315Y-73676389D01*
X144942126Y-73740164D01*
X144897218Y-73800096D01*
X144849754Y-73900873D01*
X144833220Y-73998001D01*
X144847617Y-74094995D01*
X144892942Y-74195372D01*
X144897151Y-74202416D01*
X144959649Y-74277869D01*
X145041062Y-74335538D01*
X145133699Y-74372105D01*
X145229868Y-74384252D01*
X145298605Y-74375612D01*
X145384569Y-74341938D01*
X145463262Y-74289037D01*
X145523884Y-74224609D01*
X145535415Y-74206812D01*
X145582591Y-74103101D01*
X145598879Y-74003616D01*
X145584286Y-73905262D01*
X145538819Y-73804945D01*
X145536279Y-73800718D01*
X145470420Y-73719668D01*
X145389317Y-73662743D01*
X145298314Y-73629947D01*
X145202751Y-73621286D01*
X145107970Y-73636765D01*
G37*
X145107970Y-73636765D02*
X145019315Y-73676389D01*
X144942126Y-73740164D01*
X144897218Y-73800096D01*
X144849754Y-73900873D01*
X144833220Y-73998001D01*
X144847617Y-74094995D01*
X144892942Y-74195372D01*
X144897151Y-74202416D01*
X144959649Y-74277869D01*
X145041062Y-74335538D01*
X145133699Y-74372105D01*
X145229868Y-74384252D01*
X145298605Y-74375612D01*
X145384569Y-74341938D01*
X145463262Y-74289037D01*
X145523884Y-74224609D01*
X145535415Y-74206812D01*
X145582591Y-74103101D01*
X145598879Y-74003616D01*
X145584286Y-73905262D01*
X145538819Y-73804945D01*
X145536279Y-73800718D01*
X145470420Y-73719668D01*
X145389317Y-73662743D01*
X145298314Y-73629947D01*
X145202751Y-73621286D01*
X145107970Y-73636765D01*
G36*
X155077470Y-73620890D02*
G01*
X154988815Y-73660514D01*
X154911626Y-73724289D01*
X154866718Y-73784221D01*
X154819254Y-73884998D01*
X154802720Y-73982126D01*
X154817117Y-74079120D01*
X154862442Y-74179497D01*
X154866651Y-74186541D01*
X154929149Y-74261994D01*
X155010562Y-74319663D01*
X155103199Y-74356230D01*
X155199368Y-74368377D01*
X155268105Y-74359737D01*
X155354069Y-74326063D01*
X155432762Y-74273162D01*
X155493384Y-74208734D01*
X155504915Y-74190937D01*
X155552091Y-74087226D01*
X155568379Y-73987741D01*
X155553786Y-73889387D01*
X155508319Y-73789070D01*
X155505779Y-73784843D01*
X155439920Y-73703793D01*
X155358817Y-73646868D01*
X155267814Y-73614072D01*
X155172251Y-73605411D01*
X155077470Y-73620890D01*
G37*
X155077470Y-73620890D02*
X154988815Y-73660514D01*
X154911626Y-73724289D01*
X154866718Y-73784221D01*
X154819254Y-73884998D01*
X154802720Y-73982126D01*
X154817117Y-74079120D01*
X154862442Y-74179497D01*
X154866651Y-74186541D01*
X154929149Y-74261994D01*
X155010562Y-74319663D01*
X155103199Y-74356230D01*
X155199368Y-74368377D01*
X155268105Y-74359737D01*
X155354069Y-74326063D01*
X155432762Y-74273162D01*
X155493384Y-74208734D01*
X155504915Y-74190937D01*
X155552091Y-74087226D01*
X155568379Y-73987741D01*
X155553786Y-73889387D01*
X155508319Y-73789070D01*
X155505779Y-73784843D01*
X155439920Y-73703793D01*
X155358817Y-73646868D01*
X155267814Y-73614072D01*
X155172251Y-73605411D01*
X155077470Y-73620890D01*
G36*
X150259598Y-72361328D02*
G01*
X150198145Y-72371866D01*
X150155338Y-72391821D01*
X150124866Y-72423148D01*
X150121748Y-72427749D01*
X150100629Y-72479574D01*
X150088442Y-72549859D01*
X150086283Y-72626295D01*
X150095244Y-72696575D01*
X150097184Y-72704255D01*
X150120386Y-72760717D01*
X150157328Y-72799267D01*
X150212723Y-72822371D01*
X150291284Y-72832493D01*
X150344188Y-72833434D01*
X150409103Y-72831268D01*
X150465250Y-72826401D01*
X150502115Y-72819804D01*
X150505981Y-72818472D01*
X150548817Y-72790926D01*
X150576357Y-72746467D01*
X150590287Y-72680679D01*
X150592381Y-72592047D01*
X150588719Y-72527970D01*
X150582443Y-72473671D01*
X150574774Y-72439076D01*
X150573074Y-72435193D01*
X150534949Y-72395307D01*
X150470509Y-72369976D01*
X150378759Y-72358862D01*
X150346010Y-72358250D01*
X150259598Y-72361328D01*
G37*
X150259598Y-72361328D02*
X150198145Y-72371866D01*
X150155338Y-72391821D01*
X150124866Y-72423148D01*
X150121748Y-72427749D01*
X150100629Y-72479574D01*
X150088442Y-72549859D01*
X150086283Y-72626295D01*
X150095244Y-72696575D01*
X150097184Y-72704255D01*
X150120386Y-72760717D01*
X150157328Y-72799267D01*
X150212723Y-72822371D01*
X150291284Y-72832493D01*
X150344188Y-72833434D01*
X150409103Y-72831268D01*
X150465250Y-72826401D01*
X150502115Y-72819804D01*
X150505981Y-72818472D01*
X150548817Y-72790926D01*
X150576357Y-72746467D01*
X150590287Y-72680679D01*
X150592381Y-72592047D01*
X150588719Y-72527970D01*
X150582443Y-72473671D01*
X150574774Y-72439076D01*
X150573074Y-72435193D01*
X150534949Y-72395307D01*
X150470509Y-72369976D01*
X150378759Y-72358862D01*
X150346010Y-72358250D01*
X150259598Y-72361328D01*
G36*
X140455109Y-72358689D02*
G01*
X140409902Y-72361532D01*
X140379639Y-72369068D01*
X140355918Y-72383585D01*
X140330337Y-72407372D01*
X140325475Y-72412225D01*
X140298842Y-72440370D01*
X140282824Y-72465259D01*
X140274726Y-72496089D01*
X140271851Y-72542058D01*
X140271500Y-72596375D01*
X140272128Y-72661235D01*
X140275806Y-72703544D01*
X140285231Y-72732501D01*
X140303100Y-72757303D01*
X140325475Y-72780525D01*
X140351968Y-72805882D01*
X140375254Y-72821714D01*
X140403644Y-72830266D01*
X140445451Y-72833778D01*
X140508987Y-72834494D01*
X140525500Y-72834500D01*
X140594449Y-72834104D01*
X140640001Y-72831381D01*
X140670511Y-72824029D01*
X140694331Y-72809743D01*
X140719815Y-72786219D01*
X140727153Y-72778897D01*
X140782755Y-72723295D01*
X140777159Y-72587095D01*
X140773769Y-72520340D01*
X140768480Y-72476777D01*
X140758599Y-72447857D01*
X140741438Y-72425031D01*
X140719719Y-72404572D01*
X140693075Y-72382512D01*
X140667769Y-72368854D01*
X140635315Y-72361595D01*
X140587228Y-72358729D01*
X140523663Y-72358250D01*
X140455109Y-72358689D01*
G37*
X140455109Y-72358689D02*
X140409902Y-72361532D01*
X140379639Y-72369068D01*
X140355918Y-72383585D01*
X140330337Y-72407372D01*
X140325475Y-72412225D01*
X140298842Y-72440370D01*
X140282824Y-72465259D01*
X140274726Y-72496089D01*
X140271851Y-72542058D01*
X140271500Y-72596375D01*
X140272128Y-72661235D01*
X140275806Y-72703544D01*
X140285231Y-72732501D01*
X140303100Y-72757303D01*
X140325475Y-72780525D01*
X140351968Y-72805882D01*
X140375254Y-72821714D01*
X140403644Y-72830266D01*
X140445451Y-72833778D01*
X140508987Y-72834494D01*
X140525500Y-72834500D01*
X140594449Y-72834104D01*
X140640001Y-72831381D01*
X140670511Y-72824029D01*
X140694331Y-72809743D01*
X140719815Y-72786219D01*
X140727153Y-72778897D01*
X140782755Y-72723295D01*
X140777159Y-72587095D01*
X140773769Y-72520340D01*
X140768480Y-72476777D01*
X140758599Y-72447857D01*
X140741438Y-72425031D01*
X140719719Y-72404572D01*
X140693075Y-72382512D01*
X140667769Y-72368854D01*
X140635315Y-72361595D01*
X140587228Y-72358729D01*
X140523663Y-72358250D01*
X140455109Y-72358689D01*
G36*
X169989500Y-74993500D02*
G01*
X170751500Y-74993500D01*
X170751500Y-72326500D01*
X169989500Y-72326500D01*
X169989500Y-74993500D01*
G37*
X169989500Y-74993500D02*
X170751500Y-74993500D01*
X170751500Y-72326500D01*
X169989500Y-72326500D01*
X169989500Y-74993500D01*
D12*
X64820800Y-63169800D02*
X90982800Y-63169800D01*
X90982800Y-63169800D02*
X90982800Y-80441800D01*
X90982800Y-80441800D02*
X64820800Y-80441800D01*
X64820800Y-80441800D02*
X64820800Y-63169800D01*
X64820800Y-75869800D02*
X72186800Y-75869800D01*
X72186800Y-75869800D02*
X72186800Y-66979800D01*
X72186800Y-66979800D02*
X64820800Y-66979800D01*
X99870000Y-86470000D02*
X99870000Y-106570000D01*
X177870000Y-86470000D02*
X99870000Y-86470000D01*
X177870000Y-106570000D02*
X177870000Y-86470000D01*
X99870000Y-106570000D02*
X177870000Y-106570000D01*
D10*
X73202704Y-80664180D02*
X73202704Y-81473704D01*
X73155085Y-81568942D01*
X73107466Y-81616561D01*
X73012228Y-81664180D01*
X72821752Y-81664180D01*
X72726514Y-81616561D01*
X72678895Y-81568942D01*
X72631276Y-81473704D01*
X72631276Y-80664180D01*
X72107466Y-81664180D02*
X71916990Y-81664180D01*
X71821752Y-81616561D01*
X71774133Y-81568942D01*
X71678895Y-81426085D01*
X71631276Y-81235609D01*
X71631276Y-80854657D01*
X71678895Y-80759419D01*
X71726514Y-80711800D01*
X71821752Y-80664180D01*
X72012228Y-80664180D01*
X72107466Y-80711800D01*
X72155085Y-80759419D01*
X72202704Y-80854657D01*
X72202704Y-81092752D01*
X72155085Y-81187990D01*
X72107466Y-81235609D01*
X72012228Y-81283228D01*
X71821752Y-81283228D01*
X71726514Y-81235609D01*
X71678895Y-81187990D01*
X71631276Y-81092752D01*
X69892704Y-69734180D02*
X69892704Y-70543704D01*
X69845085Y-70638942D01*
X69797466Y-70686561D01*
X69702228Y-70734180D01*
X69511752Y-70734180D01*
X69416514Y-70686561D01*
X69368895Y-70638942D01*
X69321276Y-70543704D01*
X69321276Y-69734180D01*
X68892704Y-70686561D02*
X68749847Y-70734180D01*
X68511752Y-70734180D01*
X68416514Y-70686561D01*
X68368895Y-70638942D01*
X68321276Y-70543704D01*
X68321276Y-70448466D01*
X68368895Y-70353228D01*
X68416514Y-70305609D01*
X68511752Y-70257990D01*
X68702228Y-70210371D01*
X68797466Y-70162752D01*
X68845085Y-70115133D01*
X68892704Y-70019895D01*
X68892704Y-69924657D01*
X68845085Y-69829419D01*
X68797466Y-69781800D01*
X68702228Y-69734180D01*
X68464133Y-69734180D01*
X68321276Y-69781800D01*
X67559371Y-70210371D02*
X67416514Y-70257990D01*
X67368895Y-70305609D01*
X67321276Y-70400847D01*
X67321276Y-70543704D01*
X67368895Y-70638942D01*
X67416514Y-70686561D01*
X67511752Y-70734180D01*
X67892704Y-70734180D01*
X67892704Y-69734180D01*
X67559371Y-69734180D01*
X67464133Y-69781800D01*
X67416514Y-69829419D01*
X67368895Y-69924657D01*
X67368895Y-70019895D01*
X67416514Y-70115133D01*
X67464133Y-70162752D01*
X67559371Y-70210371D01*
X67892704Y-70210371D01*
X70392704Y-73528180D02*
X70392704Y-72528180D01*
X70059371Y-73242466D01*
X69726038Y-72528180D01*
X69726038Y-73528180D01*
X69249847Y-73528180D02*
X69249847Y-72861514D01*
X69249847Y-72528180D02*
X69297466Y-72575800D01*
X69249847Y-72623419D01*
X69202228Y-72575800D01*
X69249847Y-72528180D01*
X69249847Y-72623419D01*
X68345085Y-73480561D02*
X68440323Y-73528180D01*
X68630800Y-73528180D01*
X68726038Y-73480561D01*
X68773657Y-73432942D01*
X68821276Y-73337704D01*
X68821276Y-73051990D01*
X68773657Y-72956752D01*
X68726038Y-72909133D01*
X68630800Y-72861514D01*
X68440323Y-72861514D01*
X68345085Y-72909133D01*
X67916514Y-73528180D02*
X67916514Y-72861514D01*
X67916514Y-73051990D02*
X67868895Y-72956752D01*
X67821276Y-72909133D01*
X67726038Y-72861514D01*
X67630800Y-72861514D01*
X67154609Y-73528180D02*
X67249847Y-73480561D01*
X67297466Y-73432942D01*
X67345085Y-73337704D01*
X67345085Y-73051990D01*
X67297466Y-72956752D01*
X67249847Y-72909133D01*
X67154609Y-72861514D01*
X67011752Y-72861514D01*
X66916514Y-72909133D01*
X66868895Y-72956752D01*
X66821276Y-73051990D01*
X66821276Y-73337704D01*
X66868895Y-73432942D01*
X66916514Y-73480561D01*
X67011752Y-73528180D01*
X67154609Y-73528180D01*
X87013847Y-64400180D02*
X86823371Y-64400180D01*
X86728133Y-64447800D01*
X86632895Y-64543038D01*
X86585276Y-64733514D01*
X86585276Y-65066847D01*
X86632895Y-65257323D01*
X86728133Y-65352561D01*
X86823371Y-65400180D01*
X87013847Y-65400180D01*
X87109085Y-65352561D01*
X87204323Y-65257323D01*
X87251942Y-65066847D01*
X87251942Y-64733514D01*
X87204323Y-64543038D01*
X87109085Y-64447800D01*
X87013847Y-64400180D01*
X86156704Y-64400180D02*
X86156704Y-65209704D01*
X86109085Y-65304942D01*
X86061466Y-65352561D01*
X85966228Y-65400180D01*
X85775752Y-65400180D01*
X85680514Y-65352561D01*
X85632895Y-65304942D01*
X85585276Y-65209704D01*
X85585276Y-64400180D01*
X85251942Y-64400180D02*
X84680514Y-64400180D01*
X84966228Y-65400180D02*
X84966228Y-64400180D01*
X84347180Y-65019228D02*
X83585276Y-65019228D01*
X86751942Y-67924371D02*
X86609085Y-67971990D01*
X86561466Y-68019609D01*
X86513847Y-68114847D01*
X86513847Y-68257704D01*
X86561466Y-68352942D01*
X86609085Y-68400561D01*
X86704323Y-68448180D01*
X87085276Y-68448180D01*
X87085276Y-67448180D01*
X86751942Y-67448180D01*
X86656704Y-67495800D01*
X86609085Y-67543419D01*
X86561466Y-67638657D01*
X86561466Y-67733895D01*
X86609085Y-67829133D01*
X86656704Y-67876752D01*
X86751942Y-67924371D01*
X87085276Y-67924371D01*
X86132895Y-68162466D02*
X85656704Y-68162466D01*
X86228133Y-68448180D02*
X85894800Y-67448180D01*
X85561466Y-68448180D01*
X85370990Y-67448180D02*
X84799561Y-67448180D01*
X85085276Y-68448180D02*
X85085276Y-67448180D01*
X84466228Y-68067228D02*
X83704323Y-68067228D01*
X86751942Y-75544371D02*
X86609085Y-75591990D01*
X86561466Y-75639609D01*
X86513847Y-75734847D01*
X86513847Y-75877704D01*
X86561466Y-75972942D01*
X86609085Y-76020561D01*
X86704323Y-76068180D01*
X87085276Y-76068180D01*
X87085276Y-75068180D01*
X86751942Y-75068180D01*
X86656704Y-75115800D01*
X86609085Y-75163419D01*
X86561466Y-75258657D01*
X86561466Y-75353895D01*
X86609085Y-75449133D01*
X86656704Y-75496752D01*
X86751942Y-75544371D01*
X87085276Y-75544371D01*
X86132895Y-75782466D02*
X85656704Y-75782466D01*
X86228133Y-76068180D02*
X85894800Y-75068180D01*
X85561466Y-76068180D01*
X85370990Y-75068180D02*
X84799561Y-75068180D01*
X85085276Y-76068180D02*
X85085276Y-75068180D01*
X84466228Y-75687228D02*
X83704323Y-75687228D01*
X84085276Y-76068180D02*
X84085276Y-75306276D01*
X86759847Y-78116180D02*
X86569371Y-78116180D01*
X86474133Y-78163800D01*
X86378895Y-78259038D01*
X86331276Y-78449514D01*
X86331276Y-78782847D01*
X86378895Y-78973323D01*
X86474133Y-79068561D01*
X86569371Y-79116180D01*
X86759847Y-79116180D01*
X86855085Y-79068561D01*
X86950323Y-78973323D01*
X86997942Y-78782847D01*
X86997942Y-78449514D01*
X86950323Y-78259038D01*
X86855085Y-78163800D01*
X86759847Y-78116180D01*
X85902704Y-78116180D02*
X85902704Y-78925704D01*
X85855085Y-79020942D01*
X85807466Y-79068561D01*
X85712228Y-79116180D01*
X85521752Y-79116180D01*
X85426514Y-79068561D01*
X85378895Y-79020942D01*
X85331276Y-78925704D01*
X85331276Y-78116180D01*
X84997942Y-78116180D02*
X84426514Y-78116180D01*
X84712228Y-79116180D02*
X84712228Y-78116180D01*
X84093180Y-78735228D02*
X83331276Y-78735228D01*
X83712228Y-79116180D02*
X83712228Y-78354276D01*
X70154704Y-65090657D02*
X68630895Y-65090657D01*
X70154704Y-78806657D02*
X68630895Y-78806657D01*
X69392800Y-79568561D02*
X69392800Y-78044752D01*
X137945714Y-100258571D02*
X137802857Y-100306190D01*
X137755238Y-100353809D01*
X137707619Y-100449047D01*
X137707619Y-100591904D01*
X137755238Y-100687142D01*
X137802857Y-100734761D01*
X137898095Y-100782380D01*
X138279047Y-100782380D01*
X138279047Y-99782380D01*
X137945714Y-99782380D01*
X137850476Y-99830000D01*
X137802857Y-99877619D01*
X137755238Y-99972857D01*
X137755238Y-100068095D01*
X137802857Y-100163333D01*
X137850476Y-100210952D01*
X137945714Y-100258571D01*
X138279047Y-100258571D01*
X137421904Y-99782380D02*
X136850476Y-99782380D01*
X137136190Y-100782380D02*
X137136190Y-99782380D01*
X135993333Y-100782380D02*
X136564761Y-100782380D01*
X136279047Y-100782380D02*
X136279047Y-99782380D01*
X136374285Y-99925238D01*
X136469523Y-100020476D01*
X136564761Y-100068095D01*
M02*
