M48
INCH,TZ
T1C0.0157
T2C0.0295
T3C0.0300
T4C0.0315
T5C0.0362
T6C0.0394
T7C0.0402
T8C0.0433
T9C0.0440
T10C0.0551
T11C0.0591
T12C0.0787
%
G90
G05
T1
X36592Y-24089
X44192Y-26798
X44763Y-19298
X45734Y-24216
X47238Y-32980
X49748Y-26599
X50361Y-30741
X50800Y-29980
X54335Y-21014
X55971Y-34002
X57707Y-25642
X61829Y-24094
T2
X58800Y-20000
X59500Y-20000
X60200Y-20000
T3
X36400Y-11900
X36400Y-14300
X26320Y-25570
X26320Y-30970
X35120Y-25570
X35120Y-26770
X35120Y-29770
X35120Y-30970
X38300Y-13600
X38300Y-14600
X38300Y-15600
X38300Y-16600
X38300Y-17600
X38300Y-18600
X38300Y-19600
X38300Y-20600
X38300Y-21600
X38300Y-22600
X38300Y-23600
X38300Y-24600
X38300Y-25600
X38300Y-26600
X70500Y-18600
X70500Y-19600
X70500Y-20600
X70500Y-21600
X72600Y-11818
X72600Y-14218
X26100Y-19610
X26100Y-20410
X26100Y-21210
X26100Y-22810
X27100Y-19610
X27100Y-20410
X27100Y-21210
X27100Y-22810
T4
X60094Y-12000
X60094Y-15000
X51000Y-18500
X51000Y-21500
X66000Y-18500
X66000Y-21500
X70000Y-23500
X70000Y-26500
X66000Y-23500
X66000Y-26500
X57000Y-18500
X57000Y-21500
X62000Y-18500
X62000Y-21500
X64000Y-18500
X64000Y-21500
X62000Y-23500
X62000Y-26500
X68000Y-23500
X68000Y-26500
X55000Y-18500
X55000Y-21500
X68000Y-18500
X68000Y-21500
X53000Y-18500
X53000Y-21500
X64000Y-23500
X64000Y-26500
X58500Y-12000
X58500Y-15000
T5
X66200Y-31600
X67200Y-31600
X68200Y-31600
X62900Y-15100
X63700Y-15100
X64500Y-15100
X65300Y-15100
X66100Y-15100
T6
X30700Y-24400
X30700Y-26300
X31000Y-18700
X32000Y-18700
X33000Y-18700
X33300Y-24400
X33300Y-26300
X35600Y-21200
X35600Y-22200
X35600Y-23200
X83040Y-30980
X83040Y-31980
X83040Y-32980
X83040Y-33980
X83040Y-34980
X83040Y-35980
X75200Y-36900
X75200Y-38800
X75500Y-31200
X76500Y-31200
X77500Y-31200
X77800Y-36900
X77800Y-38800
X80100Y-33700
X80100Y-34700
X80100Y-35700
T7
X40800Y-19700
X40800Y-20800
X40800Y-21800
X40800Y-25000
X40800Y-26000
X48300Y-19900
X48300Y-20900
X48300Y-24800
X48300Y-25800
X40800Y-16600
X41800Y-16600
X42800Y-16600
X43800Y-16600
X44800Y-16600
X45800Y-16600
X46800Y-16600
X47800Y-16600
X48800Y-16600
X51200Y-11400
X51200Y-12400
X51200Y-13400
X51200Y-14400
X51200Y-15400
X51200Y-16400
X44504Y-31500
X44504Y-40500
X45504Y-31500
X45504Y-40500
X46504Y-31500
X46504Y-40500
X47504Y-31500
X47504Y-40500
X48504Y-31500
X48504Y-40500
X49504Y-31500
X49504Y-40500
X50504Y-31500
X50504Y-40500
X51504Y-31500
X51504Y-40500
X52504Y-31500
X52504Y-40500
X53504Y-31500
X53504Y-40500
X54504Y-31500
X54504Y-40500
X55504Y-31500
X55504Y-40500
X56504Y-31500
X56504Y-40500
X57504Y-31500
X57504Y-40500
X58504Y-31500
X58504Y-40500
X59504Y-31500
X59504Y-40500
X60504Y-31500
X60504Y-40500
X61504Y-31500
X61504Y-40500
X62504Y-31500
X62504Y-40500
T8
X26000Y-34000
X26000Y-35772
X28559Y-34000
X28559Y-35772
X81000Y-22000
X81000Y-23772
X83559Y-22000
X83559Y-23772
X77000Y-25000
X77000Y-26772
X79559Y-25000
X79559Y-26772
X62600Y-11100
X66400Y-11100
X77000Y-19000
X77000Y-20772
X79559Y-19000
X79559Y-20772
X73000Y-22000
X73000Y-23772
X75559Y-22000
X75559Y-23772
X30000Y-31000
X30000Y-32772
X32559Y-31000
X32559Y-32772
X34000Y-34000
X34000Y-35772
X36559Y-34000
X36559Y-35772
X30000Y-37000
X30000Y-38772
X32559Y-37000
X32559Y-38772
T9
X51000Y-24000
X51000Y-27000
X52000Y-24000
X52000Y-27000
X53000Y-24000
X53000Y-27000
X54000Y-24000
X54000Y-27000
X55000Y-24000
X55000Y-27000
X56000Y-24000
X56000Y-27000
X57000Y-24000
X57000Y-27000
X58000Y-24000
X58000Y-27000
T10
X29500Y-20100
X29500Y-24200
X34600Y-20100
X34600Y-24200
X74000Y-32600
X74000Y-36700
X79100Y-32600
X79100Y-36700
T11
X26600Y-18810
X26600Y-23610
T12
X40500Y-38000
X68846Y-38000
T0
M30
